<?xml version="1.0" encoding="UTF-8"?> <svg xmlns="http://www.w3.org/2000/svg" width="534" height="267" viewBox="0 0 534 267" fill="none"> <rect width="261" height="176" rx="12" fill="white"></rect> <path d="M20.844 21.186C21.656 21.186 22.3653 21.382 22.972 21.774C23.588 22.1567 24.064 22.7213 24.4 23.468C24.7453 24.2147 24.918 25.12 24.918 26.184C24.918 27.2293 24.7453 28.1253 24.4 28.872C24.064 29.6187 23.588 30.188 22.972 30.58C22.3653 30.972 21.656 31.168 20.844 31.168C20.032 31.168 19.318 30.9767 18.702 30.594C18.0953 30.2113 17.6193 29.6467 17.274 28.9C16.938 28.1533 16.77 27.2527 16.77 26.198C16.77 25.162 16.938 24.266 17.274 23.51C17.6193 22.754 18.1 22.18 18.716 21.788C19.332 21.3867 20.0413 21.186 20.844 21.186ZM20.844 22.278C20.004 22.278 19.3507 22.5953 18.884 23.23C18.4173 23.8647 18.184 24.854 18.184 26.198C18.184 27.5327 18.4173 28.5127 18.884 29.138C19.36 29.7633 20.0133 30.076 20.844 30.076C22.6173 30.076 23.504 28.7787 23.504 26.184C23.504 23.58 22.6173 22.278 20.844 22.278ZM32.0192 21.354L31.8792 22.488H29.2052V31H27.8752V22.488H25.1312V21.354H32.0192ZM35.3802 21.186C36.0242 21.186 36.5748 21.2793 37.0322 21.466C37.4895 21.6433 37.9328 21.9233 38.3622 22.306L37.6342 23.118C37.2702 22.8287 36.9108 22.6187 36.5562 22.488C36.2108 22.348 35.8375 22.278 35.4362 22.278C34.9322 22.278 34.5168 22.3947 34.1902 22.628C33.8635 22.8613 33.7002 23.202 33.7002 23.65C33.7002 23.93 33.7562 24.168 33.8682 24.364C33.9802 24.5507 34.1855 24.7233 34.4842 24.882C34.7922 25.0407 35.2355 25.2087 35.8142 25.386C36.4208 25.5727 36.9248 25.7733 37.3262 25.988C37.7275 26.2027 38.0495 26.5013 38.2922 26.884C38.5442 27.2573 38.6702 27.7333 38.6702 28.312C38.6702 28.872 38.5302 29.3667 38.2502 29.796C37.9795 30.2253 37.5828 30.5613 37.0602 30.804C36.5468 31.0467 35.9355 31.168 35.2262 31.168C33.8915 31.168 32.7995 30.7527 31.9502 29.922L32.6782 29.11C33.0702 29.4273 33.4668 29.67 33.8682 29.838C34.2695 29.9967 34.7175 30.076 35.2122 30.076C35.8095 30.076 36.3042 29.9313 36.6962 29.642C37.0882 29.3433 37.2842 28.914 37.2842 28.354C37.2842 28.0367 37.2235 27.7753 37.1022 27.57C36.9808 27.3553 36.7708 27.164 36.4722 26.996C36.1828 26.828 35.7582 26.66 35.1982 26.492C34.2088 26.1933 33.4855 25.834 33.0282 25.414C32.5708 24.994 32.3422 24.4247 32.3422 23.706C32.3422 23.2207 32.4682 22.7867 32.7202 22.404C32.9815 22.0213 33.3408 21.7227 33.7982 21.508C34.2648 21.2933 34.7922 21.186 35.3802 21.186Z" fill="#262626"></path> <path d="M16 90.3095C22.0829 90.3572 22.7632 95.8595 27.1048 97.4195C31.4465 98.9796 33.259 78.8302 38.2118 78.1613C43.1646 77.4924 44.9107 103.939 49.3187 102.56C53.7268 101.181 54.0576 89.2403 59.8703 87.2954C65.6831 85.3504 65.1871 104.945 70.4219 105.495C75.6568 106.045 75.5692 61.5 80.9735 61.5C86.3779 61.5 86.9243 91.777 92.6358 91.27C98.3474 90.763 98.461 73.9053 104.593 73.9053C110.725 73.9053 112.653 88.8748 118.044 90.2619C123.435 91.649 122.081 107.462 127.623 102.56C133.164 97.6576 132.432 79.0138 137.619 78.1613C142.806 77.3088 144.52 89.2475 148.99 91.27C153.46 93.2925 155.601 102.619 160 102.619" stroke="#F9D458" stroke-width="4" stroke-linecap="round"></path> <path d="M27.414 139.972H20.862V144.314C21.7287 143.881 22.6127 143.664 23.514 143.664C24.4847 143.664 25.3513 143.889 26.114 144.34C26.8767 144.791 27.466 145.441 27.882 146.29C28.3153 147.139 28.532 148.145 28.532 149.306C28.532 150.502 28.2633 151.559 27.726 152.478C27.1887 153.397 26.426 154.116 25.438 154.636C24.45 155.139 23.306 155.39 22.006 155.39C20.8447 155.39 19.8133 155.182 18.912 154.766C18.028 154.333 17.222 153.717 16.494 152.92L18.392 151.152C19.3973 152.261 20.576 152.816 21.928 152.816C22.916 152.816 23.6873 152.513 24.242 151.906C24.814 151.299 25.1 150.433 25.1 149.306C25.1 147.139 24.164 146.056 22.292 146.056C21.8933 146.056 21.5207 146.108 21.174 146.212C20.8273 146.299 20.446 146.446 20.03 146.654H17.664V137.502H27.804L27.414 139.972ZM35.601 137.19C37.577 137.19 39.0936 137.805 40.151 139.036C41.2083 140.249 41.737 141.896 41.737 143.976C41.737 146.351 41.3816 148.301 40.671 149.826C39.9603 151.334 38.8683 152.539 37.395 153.44C35.9216 154.341 33.9716 155.078 31.545 155.65L30.843 153.284C33.131 152.677 34.8643 151.897 36.043 150.944C37.239 149.973 37.9496 148.656 38.175 146.992C37.2216 148.205 35.9736 148.812 34.431 148.812C33.5296 148.812 32.6976 148.587 31.935 148.136C31.1896 147.668 30.6003 147.001 30.167 146.134C29.7336 145.267 29.517 144.262 29.517 143.118C29.517 141.922 29.7856 140.882 30.323 139.998C30.8603 139.097 31.5883 138.403 32.507 137.918C33.443 137.433 34.4743 137.19 35.601 137.19ZM35.341 146.394C36.5196 146.394 37.5163 145.796 38.331 144.6C38.3483 142.815 38.1403 141.549 37.707 140.804C37.291 140.041 36.589 139.66 35.601 139.66C34.7343 139.66 34.0583 139.955 33.573 140.544C33.0876 141.133 32.845 141.974 32.845 143.066C32.845 144.21 33.0703 145.051 33.521 145.588C33.989 146.125 34.5956 146.394 35.341 146.394ZM54.2675 137.19C55.4462 137.19 56.4602 137.407 57.3095 137.84C58.1762 138.273 58.8349 138.863 59.2855 139.608C59.7362 140.353 59.9615 141.185 59.9615 142.104C59.9615 143.092 59.7449 144.045 59.3115 144.964C58.8955 145.865 58.1935 146.871 57.2055 147.98C56.2175 149.089 54.7702 150.554 52.8635 152.374H60.3515L59.9875 155H49.0935V152.556C51.3122 150.303 52.8982 148.639 53.8515 147.564C54.8222 146.472 55.5069 145.545 55.9055 144.782C56.3215 144.002 56.5295 143.196 56.5295 142.364C56.5295 141.567 56.2955 140.943 55.8275 140.492C55.3769 140.041 54.7702 139.816 54.0075 139.816C53.3315 139.816 52.7335 139.963 52.2135 140.258C51.7109 140.535 51.1822 141.003 50.6275 141.662L48.5995 140.05C50.0729 138.143 51.9622 137.19 54.2675 137.19ZM71.0853 145.614C73.4773 146.689 74.6733 148.249 74.6733 150.294C74.6733 151.247 74.4046 152.114 73.8673 152.894C73.3299 153.657 72.5673 154.263 71.5793 154.714C70.6086 155.165 69.4733 155.39 68.1733 155.39C66.8906 155.39 65.7726 155.173 64.8193 154.74C63.8659 154.289 63.1293 153.683 62.6093 152.92C62.0893 152.157 61.8293 151.299 61.8293 150.346C61.8293 148.335 62.9386 146.862 65.1573 145.926C63.4066 144.973 62.5313 143.595 62.5313 141.792C62.5313 140.873 62.7826 140.067 63.2853 139.374C63.8053 138.663 64.4986 138.126 65.3653 137.762C66.2493 137.381 67.2113 137.19 68.2513 137.19C69.3086 137.19 70.2706 137.363 71.1373 137.71C72.0039 138.057 72.6886 138.568 73.1913 139.244C73.7113 139.92 73.9713 140.726 73.9713 141.662C73.9713 143.309 73.0093 144.626 71.0853 145.614ZM68.2513 139.53C67.4713 139.53 66.8559 139.729 66.4053 140.128C65.9719 140.527 65.7553 141.099 65.7553 141.844C65.7553 142.537 65.9633 143.092 66.3793 143.508C66.7953 143.907 67.4626 144.271 68.3813 144.6L68.8753 144.782C69.5513 144.366 70.0279 143.933 70.3053 143.482C70.5999 143.014 70.7473 142.459 70.7473 141.818C70.7473 141.107 70.5306 140.553 70.0973 140.154C69.6639 139.738 69.0486 139.53 68.2513 139.53ZM68.2513 152.92C69.2046 152.92 69.9499 152.677 70.4873 152.192C71.0246 151.707 71.2933 151.074 71.2933 150.294C71.2933 149.497 71.0593 148.873 70.5913 148.422C70.1233 147.954 69.2913 147.503 68.0953 147.07L67.2893 146.784C65.8853 147.529 65.1833 148.682 65.1833 150.242C65.1833 151.074 65.4606 151.733 66.0153 152.218C66.5699 152.686 67.3153 152.92 68.2513 152.92ZM88.7492 148.448V150.996H86.6432V155H83.3932V150.996H75.9572V148.708L81.0532 137.164L83.8872 138.23L79.4152 148.448H83.4192L83.7572 144.054H86.6432V148.448H88.7492ZM106.268 139.972H99.7161V144.314C100.583 143.881 101.467 143.664 102.368 143.664C103.339 143.664 104.205 143.889 104.968 144.34C105.731 144.791 106.32 145.441 106.736 146.29C107.169 147.139 107.386 148.145 107.386 149.306C107.386 150.502 107.117 151.559 106.58 152.478C106.043 153.397 105.28 154.116 104.292 154.636C103.304 155.139 102.16 155.39 100.86 155.39C99.6988 155.39 98.6675 155.182 97.7661 154.766C96.8821 154.333 96.0761 153.717 95.3481 152.92L97.2461 151.152C98.2515 152.261 99.4301 152.816 100.782 152.816C101.77 152.816 102.541 152.513 103.096 151.906C103.668 151.299 103.954 150.433 103.954 149.306C103.954 147.139 103.018 146.056 101.146 146.056C100.747 146.056 100.375 146.108 100.028 146.212C99.6815 146.299 99.3001 146.446 98.8841 146.654H96.5181V137.502H106.658L106.268 139.972ZM115.278 137.19C117.323 137.19 118.875 137.97 119.932 139.53C121.007 141.09 121.544 143.335 121.544 146.264C121.544 149.211 121.007 151.473 119.932 153.05C118.875 154.61 117.323 155.39 115.278 155.39C113.233 155.39 111.673 154.61 110.598 153.05C109.541 151.473 109.012 149.211 109.012 146.264C109.012 143.335 109.541 141.09 110.598 139.53C111.673 137.97 113.233 137.19 115.278 137.19ZM115.278 139.712C114.29 139.712 113.571 140.215 113.12 141.22C112.669 142.208 112.444 143.889 112.444 146.264C112.444 148.656 112.669 150.355 113.12 151.36C113.571 152.365 114.29 152.868 115.278 152.868C116.266 152.868 116.985 152.374 117.436 151.386C117.887 150.381 118.112 148.673 118.112 146.264C118.112 143.872 117.887 142.182 117.436 141.194C116.985 140.206 116.266 139.712 115.278 139.712ZM129.662 137.19C131.708 137.19 133.259 137.97 134.316 139.53C135.391 141.09 135.928 143.335 135.928 146.264C135.928 149.211 135.391 151.473 134.316 153.05C133.259 154.61 131.708 155.39 129.662 155.39C127.617 155.39 126.057 154.61 124.982 153.05C123.925 151.473 123.396 149.211 123.396 146.264C123.396 143.335 123.925 141.09 124.982 139.53C126.057 137.97 127.617 137.19 129.662 137.19ZM129.662 139.712C128.674 139.712 127.955 140.215 127.504 141.22C127.054 142.208 126.828 143.889 126.828 146.264C126.828 148.656 127.054 150.355 127.504 151.36C127.955 152.365 128.674 152.868 129.662 152.868C130.65 152.868 131.37 152.374 131.82 151.386C132.271 150.381 132.496 148.673 132.496 146.264C132.496 143.872 132.271 142.182 131.82 141.194C131.37 140.206 130.65 139.712 129.662 139.712Z" fill="#262626"></path> <path d="M152.769 146.041V155H151.205V151.26C150.876 151.566 150.468 151.81 149.981 151.991C149.505 152.161 149.012 152.246 148.502 152.246C147.652 152.246 147.012 152.019 146.581 151.566C146.15 151.101 145.935 150.444 145.935 149.594V146.041H147.499V149.407C147.499 149.974 147.612 150.387 147.839 150.648C148.077 150.897 148.44 151.022 148.927 151.022C149.324 151.022 149.737 150.931 150.168 150.75C150.61 150.569 150.956 150.336 151.205 150.053V146.041H152.769ZM162.421 150.257C162.421 150.518 162.41 150.784 162.387 151.056H156.675C156.743 152.042 156.992 152.767 157.423 153.232C157.854 153.697 158.409 153.929 159.089 153.929C159.52 153.929 159.916 153.867 160.279 153.742C160.642 153.617 161.021 153.419 161.418 153.147L162.098 154.082C161.146 154.83 160.103 155.204 158.97 155.204C157.723 155.204 156.749 154.796 156.046 153.98C155.355 153.164 155.009 152.042 155.009 150.614C155.009 149.685 155.156 148.863 155.451 148.149C155.757 147.424 156.188 146.857 156.743 146.449C157.31 146.041 157.973 145.837 158.732 145.837C159.922 145.837 160.834 146.228 161.469 147.01C162.104 147.792 162.421 148.874 162.421 150.257ZM160.874 149.798C160.874 148.914 160.698 148.24 160.347 147.775C159.996 147.31 159.469 147.078 158.766 147.078C157.485 147.078 156.788 148.019 156.675 149.9H160.874V149.798ZM170.975 146.041V155H169.411V147.316H166.64L166.385 150.308C166.283 151.521 166.152 152.427 165.994 153.028C165.846 153.629 165.608 154.093 165.28 154.422C164.962 154.739 164.475 155 163.818 155.204L163.427 153.963C163.812 153.827 164.084 153.651 164.243 153.436C164.401 153.221 164.52 152.892 164.6 152.45C164.679 152.008 164.764 151.237 164.855 150.138L165.212 146.041H170.975ZM174.275 152.841C174.615 152.841 174.899 152.954 175.125 153.181C175.352 153.408 175.465 153.685 175.465 154.014C175.465 154.343 175.352 154.626 175.125 154.864C174.899 155.091 174.615 155.204 174.275 155.204C173.947 155.204 173.669 155.091 173.442 154.864C173.216 154.626 173.102 154.343 173.102 154.014C173.102 153.685 173.216 153.408 173.442 153.181C173.669 152.954 173.947 152.841 174.275 152.841Z" fill="#262626"></path> <rect x="273" width="261" height="176" rx="12" fill="white"></rect> <path d="M296.168 21.354V31H294.838V27.108C294.427 27.416 294.035 27.6353 293.662 27.766C293.298 27.8967 292.873 27.962 292.388 27.962C291.529 27.962 290.843 27.7007 290.33 27.178C289.817 26.6553 289.56 25.9507 289.56 25.064V21.354H290.89V24.966C290.89 26.2073 291.501 26.828 292.724 26.828C293.573 26.828 294.278 26.5573 294.838 26.016V21.354H296.168ZM303.592 29.278C303.592 29.5767 303.644 29.8007 303.746 29.95C303.849 30.09 304.003 30.1973 304.208 30.272L303.914 31.168C303.532 31.1213 303.224 31.014 302.99 30.846C302.757 30.678 302.584 30.4167 302.472 30.062C301.978 30.7993 301.245 31.168 300.274 31.168C299.546 31.168 298.972 30.9627 298.552 30.552C298.132 30.1413 297.922 29.6047 297.922 28.942C297.922 28.158 298.202 27.556 298.762 27.136C299.332 26.716 300.134 26.506 301.17 26.506H302.304V25.96C302.304 25.4373 302.178 25.064 301.926 24.84C301.674 24.616 301.287 24.504 300.764 24.504C300.223 24.504 299.56 24.6347 298.776 24.896L298.454 23.958C299.369 23.622 300.218 23.454 301.002 23.454C301.87 23.454 302.519 23.6687 302.948 24.098C303.378 24.518 303.592 25.12 303.592 25.904V29.278ZM300.568 30.202C301.306 30.202 301.884 29.8193 302.304 29.054V27.36H301.338C299.976 27.36 299.294 27.864 299.294 28.872C299.294 29.3107 299.402 29.642 299.616 29.866C299.831 30.09 300.148 30.202 300.568 30.202ZM308.645 23.454C309.084 23.454 309.485 23.5193 309.849 23.65C310.213 23.7713 310.563 23.972 310.899 24.252L310.283 25.064C310.022 24.8773 309.765 24.742 309.513 24.658C309.271 24.5647 309 24.518 308.701 24.518C308.104 24.518 307.637 24.756 307.301 25.232C306.975 25.708 306.811 26.4127 306.811 27.346C306.811 28.2793 306.975 28.97 307.301 29.418C307.628 29.8567 308.095 30.076 308.701 30.076C308.991 30.076 309.257 30.034 309.499 29.95C309.742 29.8567 310.013 29.712 310.311 29.516L310.899 30.356C310.227 30.8973 309.476 31.168 308.645 31.168C307.647 31.168 306.858 30.832 306.279 30.16C305.71 29.488 305.425 28.5593 305.425 27.374C305.425 26.59 305.556 25.904 305.817 25.316C306.079 24.728 306.447 24.2707 306.923 23.944C307.409 23.6173 307.983 23.454 308.645 23.454ZM317.347 23.622L317.193 24.672H314.827V31H313.539V24.672H311.103V23.622H317.347ZM320.816 23.454C321.852 23.454 322.655 23.7993 323.224 24.49C323.803 25.1807 324.092 26.1187 324.092 27.304C324.092 28.0693 323.961 28.746 323.7 29.334C323.439 29.9127 323.061 30.3653 322.566 30.692C322.071 31.0093 321.483 31.168 320.802 31.168C319.766 31.168 318.959 30.8227 318.38 30.132C317.801 29.4413 317.512 28.5033 317.512 27.318C317.512 26.5527 317.643 25.8807 317.904 25.302C318.165 24.714 318.543 24.2613 319.038 23.944C319.533 23.6173 320.125 23.454 320.816 23.454ZM320.816 24.49C319.537 24.49 318.898 25.4327 318.898 27.318C318.898 29.194 319.533 30.132 320.802 30.132C322.071 30.132 322.706 29.1893 322.706 27.304C322.706 25.428 322.076 24.49 320.816 24.49ZM330.568 23.622L330.414 24.672H328.048V31H326.76V24.672H324.324V23.622H330.568ZM336.03 29.278C336.03 29.5767 336.081 29.8007 336.184 29.95C336.287 30.09 336.441 30.1973 336.646 30.272L336.352 31.168C335.969 31.1213 335.661 31.014 335.428 30.846C335.195 30.678 335.022 30.4167 334.91 30.062C334.415 30.7993 333.683 31.168 332.712 31.168C331.984 31.168 331.41 30.9627 330.99 30.552C330.57 30.1413 330.36 29.6047 330.36 28.942C330.36 28.158 330.64 27.556 331.2 27.136C331.769 26.716 332.572 26.506 333.608 26.506H334.742V25.96C334.742 25.4373 334.616 25.064 334.364 24.84C334.112 24.616 333.725 24.504 333.202 24.504C332.661 24.504 331.998 24.6347 331.214 24.896L330.892 23.958C331.807 23.622 332.656 23.454 333.44 23.454C334.308 23.454 334.957 23.6687 335.386 24.098C335.815 24.518 336.03 25.12 336.03 25.904V29.278ZM333.006 30.202C333.743 30.202 334.322 29.8193 334.742 29.054V27.36H333.776C332.413 27.36 331.732 27.864 331.732 28.872C331.732 29.3107 331.839 29.642 332.054 29.866C332.269 30.09 332.586 30.202 333.006 30.202Z" fill="#262626"></path> <path d="M289 90.3095C295.083 90.3572 295.763 95.8595 300.105 97.4195C304.446 98.9796 306.259 78.8302 311.212 78.1613C316.165 77.4924 338.187 104.945 343.422 105.495C348.657 106.045 348.569 61.5 353.974 61.5C359.378 61.5 395.081 107.462 400.623 102.56C406.164 97.6576 405.432 79.0138 410.619 78.1613C415.806 77.3088 428.601 102.619 433 102.619" stroke="#34B53A" stroke-width="4" stroke-linecap="round"></path> <path d="M295.058 137.19C296.237 137.19 297.251 137.407 298.1 137.84C298.967 138.273 299.625 138.863 300.076 139.608C300.527 140.353 300.752 141.185 300.752 142.104C300.752 143.092 300.535 144.045 300.102 144.964C299.686 145.865 298.984 146.871 297.996 147.98C297.008 149.089 295.561 150.554 293.654 152.374H301.142L300.778 155H289.884V152.556C292.103 150.303 293.689 148.639 294.642 147.564C295.613 146.472 296.297 145.545 296.696 144.782C297.112 144.002 297.32 143.196 297.32 142.364C297.32 141.567 297.086 140.943 296.618 140.492C296.167 140.041 295.561 139.816 294.798 139.816C294.122 139.816 293.524 139.963 293.004 140.258C292.501 140.535 291.973 141.003 291.418 141.662L289.39 140.05C290.863 138.143 292.753 137.19 295.058 137.19ZM309.094 137.19C311.139 137.19 312.69 137.97 313.748 139.53C314.822 141.09 315.36 143.335 315.36 146.264C315.36 149.211 314.822 151.473 313.748 153.05C312.69 154.61 311.139 155.39 309.094 155.39C307.048 155.39 305.488 154.61 304.414 153.05C303.356 151.473 302.828 149.211 302.828 146.264C302.828 143.335 303.356 141.09 304.414 139.53C305.488 137.97 307.048 137.19 309.094 137.19ZM309.094 139.712C308.106 139.712 307.386 140.215 306.936 141.22C306.485 142.208 306.26 143.889 306.26 146.264C306.26 148.656 306.485 150.355 306.936 151.36C307.386 152.365 308.106 152.868 309.094 152.868C310.082 152.868 310.801 152.374 311.252 151.386C311.702 150.381 311.928 148.673 311.928 146.264C311.928 143.872 311.702 142.182 311.252 141.194C310.801 140.206 310.082 139.712 309.094 139.712Z" fill="#262626"></path> <rect y="188" width="170" height="79" rx="12" fill="white"></rect> <path d="M20.774 209.186C21.3527 209.186 21.838 209.261 22.23 209.41C22.6313 209.559 23.0373 209.802 23.448 210.138L22.72 210.992C22.132 210.516 21.5113 210.278 20.858 210.278C20.0553 210.278 19.4067 210.586 18.912 211.202C18.4267 211.818 18.184 212.807 18.184 214.17C18.184 215.495 18.4267 216.475 18.912 217.11C19.3973 217.735 20.0413 218.048 20.844 218.048C21.2547 218.048 21.614 217.978 21.922 217.838C22.23 217.698 22.5567 217.502 22.902 217.25L23.56 218.09C23.2613 218.398 22.8787 218.655 22.412 218.86C21.9453 219.065 21.4087 219.168 20.802 219.168C20.018 219.168 19.318 218.977 18.702 218.594C18.0953 218.202 17.6193 217.633 17.274 216.886C16.938 216.13 16.77 215.225 16.77 214.17C16.77 213.115 16.9473 212.215 17.302 211.468C17.6567 210.712 18.1373 210.143 18.744 209.76C19.3507 209.377 20.0273 209.186 20.774 209.186ZM27.488 209.354C28.6827 209.354 29.6067 209.606 30.26 210.11C30.9133 210.605 31.24 211.347 31.24 212.336C31.24 213.391 30.8993 214.175 30.218 214.688C29.5367 215.201 28.6313 215.458 27.502 215.458H26.284V219H24.954V209.354H27.488ZM27.446 214.408C28.2207 214.408 28.8087 214.259 29.21 213.96C29.6207 213.661 29.826 213.125 29.826 212.35C29.826 211.659 29.6207 211.16 29.21 210.852C28.8087 210.544 28.23 210.39 27.474 210.39H26.284V214.408H27.446ZM38.1513 209.354L38.0113 210.488H35.3373V219H34.0073V210.488H31.2633V209.354H38.1513Z" fill="#262626"></path> <path d="M19.961 236.355C20.7317 236.355 21.3947 236.497 21.95 236.78C22.5167 237.063 22.9473 237.449 23.242 237.936C23.5367 238.423 23.684 238.967 23.684 239.568C23.684 240.214 23.5423 240.837 23.259 241.438C22.987 242.027 22.528 242.685 21.882 243.41C21.236 244.135 20.2897 245.093 19.043 246.283H23.939L23.701 248H16.578V246.402C18.0287 244.929 19.0657 243.841 19.689 243.138C20.3237 242.424 20.7713 241.818 21.032 241.319C21.304 240.809 21.44 240.282 21.44 239.738C21.44 239.217 21.287 238.809 20.981 238.514C20.6863 238.219 20.2897 238.072 19.791 238.072C19.349 238.072 18.958 238.168 18.618 238.361C18.2893 238.542 17.9437 238.848 17.581 239.279L16.255 238.225C17.2183 236.978 18.4537 236.355 19.961 236.355ZM32.7198 243.716V245.382H31.3428V248H29.2178V245.382H24.3558V243.886L27.6878 236.338L29.5408 237.035L26.6168 243.716H29.2348L29.4558 240.843H31.3428V243.716H32.7198ZM34.8244 245.501C35.2211 245.501 35.5498 245.631 35.8104 245.892C36.0824 246.153 36.2184 246.481 36.2184 246.878C36.2184 247.093 36.1844 247.314 36.1164 247.541C36.0484 247.768 35.9351 248.057 35.7764 248.408L34.6714 250.924H33.3454L34.0424 248C33.6571 247.739 33.4644 247.36 33.4644 246.861C33.4644 246.476 33.5948 246.153 33.8554 245.892C34.1161 245.631 34.4391 245.501 34.8244 245.501ZM45.0056 243.716V245.382H43.6286V248H41.5036V245.382H36.6416V243.886L39.9736 236.338L41.8266 237.035L38.9026 243.716H41.5206L41.7416 240.843H43.6286V243.716H45.0056ZM50.6633 240.384C51.2639 240.384 51.8079 240.531 52.2953 240.826C52.7939 241.109 53.1849 241.534 53.4683 242.101C53.7516 242.656 53.8933 243.325 53.8933 244.107C53.8933 244.9 53.7289 245.614 53.4003 246.249C53.0716 246.872 52.6069 247.365 52.0063 247.728C51.4169 248.079 50.7426 248.255 49.9833 248.255C48.5779 248.255 47.5353 247.762 46.8553 246.776C46.1866 245.79 45.8523 244.436 45.8523 242.713C45.8523 241.444 46.0393 240.333 46.4133 239.381C46.7986 238.418 47.3426 237.675 48.0453 237.154C48.7593 236.621 49.5923 236.355 50.5443 236.355C51.4849 236.355 52.3179 236.599 53.0433 237.086L52.2273 238.429C51.7059 238.123 51.1563 237.97 50.5783 237.97C49.8529 237.97 49.2693 238.299 48.8273 238.956C48.3966 239.602 48.1529 240.497 48.0963 241.642C48.7876 240.803 49.6433 240.384 50.6633 240.384ZM49.9833 246.64C50.5499 246.64 50.9749 246.419 51.2583 245.977C51.5529 245.524 51.7003 244.912 51.7003 244.141C51.7003 243.359 51.5643 242.804 51.2923 242.475C51.0316 242.135 50.6463 241.965 50.1363 241.965C49.7509 241.965 49.3826 242.073 49.0313 242.288C48.6913 242.492 48.3853 242.775 48.1133 243.138C48.1359 244.373 48.2889 245.269 48.5723 245.824C48.8669 246.368 49.3373 246.64 49.9833 246.64ZM61.9989 244.906H64.8379V246.147H61.9989V248H59.8399V246.147H58.6329V244.906H59.8399V243.784H58.6329V242.373H59.8399V236.559H62.8319C64.2713 236.559 65.3933 236.871 66.1979 237.494C67.0026 238.106 67.4049 238.996 67.4049 240.163C67.4049 241.398 66.9969 242.311 66.1809 242.9C65.3649 243.489 64.2599 243.784 62.8659 243.784H61.9989V244.906ZM61.9989 238.123V242.373H62.8149C63.5743 242.373 64.1579 242.203 64.5659 241.863C64.9739 241.523 65.1779 240.962 65.1779 240.18C65.1779 238.809 64.3903 238.123 62.8149 238.123H61.9989Z" fill="#262626"></path> <g clip-path="url(#clip0_331_1388)"> <path d="M144.667 230C149.269 230 153 227.761 153 225C153 222.239 149.269 220 144.667 220C140.064 220 136.333 222.239 136.333 225C136.333 227.761 140.064 230 144.667 230Z" stroke="#52C04F" stroke-width="2.5" stroke-linecap="round" stroke-linejoin="round"></path> <path d="M136.333 225V231.667C136.333 234.428 140.065 236.667 144.667 236.667C149.268 236.667 153 234.428 153 231.667V225" stroke="#52C04F" stroke-width="2.5" stroke-linecap="round" stroke-linejoin="round"></path> <path d="M136.333 231.667V238.333C136.333 241.095 140.065 243.333 144.667 243.333C149.268 243.333 153 241.095 153 238.333V231.667" stroke="#52C04F" stroke-width="2.5" stroke-linecap="round" stroke-linejoin="round"></path> <path d="M136.333 238.333V245C136.333 247.762 140.065 250 144.667 250C149.268 250 153 247.762 153 245V238.333" stroke="#52C04F" stroke-width="2.5" stroke-linecap="round" stroke-linejoin="round"></path> <path d="M129.667 230H125.5C124.837 230 124.201 230.263 123.732 230.732C123.263 231.201 123 231.837 123 232.5C123 233.163 123.263 233.799 123.732 234.268C124.201 234.737 124.837 235 125.5 235H127.167C127.83 235 128.466 235.263 128.934 235.732C129.403 236.201 129.667 236.837 129.667 237.5C129.667 238.163 129.403 238.799 128.934 239.268C128.466 239.737 127.83 240 127.167 240H123" stroke="#52C04F" stroke-width="2.5" stroke-linecap="round" stroke-linejoin="round"></path> <path d="M126.333 228.333V230M126.333 240V241.667V240Z" stroke="#52C04F" stroke-width="2.5" stroke-linecap="round" stroke-linejoin="round"></path> </g> <rect x="182" y="188" width="170" height="79" rx="12" fill="white"></rect> <path d="M202.844 209.186C203.656 209.186 204.365 209.382 204.972 209.774C205.588 210.157 206.064 210.721 206.4 211.468C206.745 212.215 206.918 213.12 206.918 214.184C206.918 215.229 206.745 216.125 206.4 216.872C206.064 217.619 205.588 218.188 204.972 218.58C204.365 218.972 203.656 219.168 202.844 219.168C202.032 219.168 201.318 218.977 200.702 218.594C200.095 218.211 199.619 217.647 199.274 216.9C198.938 216.153 198.77 215.253 198.77 214.198C198.77 213.162 198.938 212.266 199.274 211.51C199.619 210.754 200.1 210.18 200.716 209.788C201.332 209.387 202.041 209.186 202.844 209.186ZM202.844 210.278C202.004 210.278 201.351 210.595 200.884 211.23C200.417 211.865 200.184 212.854 200.184 214.198C200.184 215.533 200.417 216.513 200.884 217.138C201.36 217.763 202.013 218.076 202.844 218.076C204.617 218.076 205.504 216.779 205.504 214.184C205.504 211.58 204.617 210.278 202.844 210.278ZM211.435 215.052L213.997 219H212.443L210.637 215.878L208.803 219H207.347L209.923 215.108L207.641 211.622H209.153L210.693 214.324L212.247 211.622H213.703L211.435 215.052ZM219.014 214.996C220.264 215.117 220.89 215.696 220.89 216.732C220.89 217.507 220.605 218.081 220.036 218.454C219.476 218.818 218.724 219 217.782 219H215.122V211.72C215.99 211.543 216.797 211.454 217.544 211.454C218.458 211.454 219.182 211.627 219.714 211.972C220.246 212.317 220.512 212.812 220.512 213.456C220.512 213.876 220.386 214.217 220.134 214.478C219.882 214.739 219.508 214.912 219.014 214.996ZM217.558 212.448C217.166 212.448 216.783 212.476 216.41 212.532V214.618H217.796C218.244 214.618 218.589 214.534 218.832 214.366C219.074 214.198 219.196 213.913 219.196 213.512C219.196 213.139 219.06 212.868 218.79 212.7C218.519 212.532 218.108 212.448 217.558 212.448ZM217.782 217.992C218.332 217.992 218.762 217.899 219.07 217.712C219.378 217.525 219.532 217.189 219.532 216.704C219.532 216.303 219.401 216.013 219.14 215.836C218.878 215.659 218.435 215.57 217.81 215.57H216.41V217.992H217.782ZM227.577 217.278C227.577 217.577 227.629 217.801 227.731 217.95C227.834 218.09 227.988 218.197 228.193 218.272L227.899 219.168C227.517 219.121 227.209 219.014 226.975 218.846C226.742 218.678 226.569 218.417 226.457 218.062C225.963 218.799 225.23 219.168 224.259 219.168C223.531 219.168 222.957 218.963 222.537 218.552C222.117 218.141 221.907 217.605 221.907 216.942C221.907 216.158 222.187 215.556 222.747 215.136C223.317 214.716 224.119 214.506 225.155 214.506H226.289V213.96C226.289 213.437 226.163 213.064 225.911 212.84C225.659 212.616 225.272 212.504 224.749 212.504C224.208 212.504 223.545 212.635 222.761 212.896L222.439 211.958C223.354 211.622 224.203 211.454 224.987 211.454C225.855 211.454 226.504 211.669 226.933 212.098C227.363 212.518 227.577 213.12 227.577 213.904V217.278ZM224.553 218.202C225.291 218.202 225.869 217.819 226.289 217.054V215.36H225.323C223.961 215.36 223.279 215.864 223.279 216.872C223.279 217.311 223.387 217.642 223.601 217.866C223.816 218.09 224.133 218.202 224.553 218.202ZM234.653 211.622L234.499 212.672H232.133V219H230.845V212.672H228.409V211.622H234.653Z" fill="#262626"></path> <path d="M201.961 236.355C202.732 236.355 203.395 236.497 203.95 236.78C204.517 237.063 204.947 237.449 205.242 237.936C205.537 238.423 205.684 238.967 205.684 239.568C205.684 240.214 205.542 240.837 205.259 241.438C204.987 242.027 204.528 242.685 203.882 243.41C203.236 244.135 202.29 245.093 201.043 246.283H205.939L205.701 248H198.578V246.402C200.029 244.929 201.066 243.841 201.689 243.138C202.324 242.424 202.771 241.818 203.032 241.319C203.304 240.809 203.44 240.282 203.44 239.738C203.44 239.217 203.287 238.809 202.981 238.514C202.686 238.219 202.29 238.072 201.791 238.072C201.349 238.072 200.958 238.168 200.618 238.361C200.289 238.542 199.944 238.848 199.581 239.279L198.255 238.225C199.218 236.978 200.454 236.355 201.961 236.355ZM210.237 236.355C211.008 236.355 211.671 236.497 212.226 236.78C212.793 237.063 213.224 237.449 213.518 237.936C213.813 238.423 213.96 238.967 213.96 239.568C213.96 240.214 213.819 240.837 213.535 241.438C213.263 242.027 212.804 242.685 212.158 243.41C211.512 244.135 210.566 245.093 209.319 246.283H214.215L213.977 248H206.854V246.402C208.305 244.929 209.342 243.841 209.965 243.138C210.6 242.424 211.048 241.818 211.308 241.319C211.58 240.809 211.716 240.282 211.716 239.738C211.716 239.217 211.563 238.809 211.257 238.514C210.963 238.219 210.566 238.072 210.067 238.072C209.625 238.072 209.234 238.168 208.894 238.361C208.566 238.542 208.22 238.848 207.857 239.279L206.531 238.225C207.495 236.978 208.73 236.355 210.237 236.355ZM216.575 245.501C216.972 245.501 217.301 245.631 217.561 245.892C217.833 246.153 217.969 246.481 217.969 246.878C217.969 247.093 217.935 247.314 217.867 247.541C217.799 247.768 217.686 248.057 217.527 248.408L216.422 250.924H215.096L215.793 248C215.408 247.739 215.215 247.36 215.215 246.861C215.215 246.476 215.346 246.153 215.606 245.892C215.867 245.631 216.19 245.501 216.575 245.501ZM224.977 241.863C226.541 242.566 227.323 243.586 227.323 244.923C227.323 245.546 227.148 246.113 226.796 246.623C226.445 247.122 225.946 247.518 225.3 247.813C224.666 248.108 223.923 248.255 223.073 248.255C222.235 248.255 221.504 248.113 220.88 247.83C220.257 247.535 219.775 247.139 219.435 246.64C219.095 246.141 218.925 245.58 218.925 244.957C218.925 243.642 219.651 242.679 221.101 242.067C219.957 241.444 219.384 240.543 219.384 239.364C219.384 238.763 219.549 238.236 219.877 237.783C220.217 237.318 220.671 236.967 221.237 236.729C221.815 236.48 222.444 236.355 223.124 236.355C223.816 236.355 224.445 236.468 225.011 236.695C225.578 236.922 226.026 237.256 226.354 237.698C226.694 238.14 226.864 238.667 226.864 239.279C226.864 240.356 226.235 241.217 224.977 241.863ZM223.124 237.885C222.614 237.885 222.212 238.015 221.917 238.276C221.634 238.537 221.492 238.911 221.492 239.398C221.492 239.851 221.628 240.214 221.9 240.486C222.172 240.747 222.609 240.985 223.209 241.2L223.532 241.319C223.974 241.047 224.286 240.764 224.467 240.469C224.66 240.163 224.756 239.8 224.756 239.381C224.756 238.916 224.615 238.554 224.331 238.293C224.048 238.021 223.646 237.885 223.124 237.885ZM223.124 246.64C223.748 246.64 224.235 246.481 224.586 246.164C224.938 245.847 225.113 245.433 225.113 244.923C225.113 244.402 224.96 243.994 224.654 243.699C224.348 243.393 223.804 243.098 223.022 242.815L222.495 242.628C221.577 243.115 221.118 243.869 221.118 244.889C221.118 245.433 221.3 245.864 221.662 246.181C222.025 246.487 222.512 246.64 223.124 246.64ZM232.464 236.355C233.801 236.355 234.816 236.865 235.507 237.885C236.21 238.905 236.561 240.373 236.561 242.288C236.561 244.215 236.21 245.694 235.507 246.725C234.816 247.745 233.801 248.255 232.464 248.255C231.127 248.255 230.107 247.745 229.404 246.725C228.713 245.694 228.367 244.215 228.367 242.288C228.367 240.373 228.713 238.905 229.404 237.885C230.107 236.865 231.127 236.355 232.464 236.355ZM232.464 238.004C231.818 238.004 231.348 238.333 231.053 238.99C230.758 239.636 230.611 240.735 230.611 242.288C230.611 243.852 230.758 244.963 231.053 245.62C231.348 246.277 231.818 246.606 232.464 246.606C233.11 246.606 233.58 246.283 233.875 245.637C234.17 244.98 234.317 243.863 234.317 242.288C234.317 240.724 234.17 239.619 233.875 238.973C233.58 238.327 233.11 238.004 232.464 238.004Z" fill="#262626"></path> <g clip-path="url(#clip1_331_1388)"> <path d="M320 236.667C320.921 236.667 321.667 235.92 321.667 235C321.667 234.08 320.921 233.333 320 233.333C319.08 233.333 318.333 234.08 318.333 235C318.333 235.92 319.08 236.667 320 236.667Z" stroke="#F9D458" stroke-width="2.5" stroke-linecap="round" stroke-linejoin="round"></path> <path d="M328.207 233.553C327.921 231.93 327.16 230.428 326.02 229.238C324.88 228.047 323.413 227.221 321.804 226.864C320.195 226.507 318.516 226.636 316.98 227.233C315.444 227.83 314.119 228.87 313.174 230.22C312.228 231.57 311.705 233.17 311.668 234.818C311.632 236.466 312.086 238.087 312.971 239.477C313.857 240.867 315.135 241.964 316.643 242.627C318.152 243.291 319.824 243.493 321.447 243.207" stroke="#F9D458" stroke-width="2.5" stroke-linecap="round" stroke-linejoin="round"></path> <path d="M305 235C305 237.967 305.88 240.867 307.528 243.334C309.176 245.8 311.519 247.723 314.26 248.858C317.001 249.994 320.017 250.291 322.926 249.712C325.836 249.133 328.509 247.704 330.607 245.607C332.704 243.509 334.133 240.836 334.712 237.926C335.291 235.017 334.994 232.001 333.858 229.26C332.723 226.519 330.8 224.176 328.334 222.528C325.867 220.88 322.967 220 320 220" stroke="#F9D458" stroke-width="2.5" stroke-linecap="round" stroke-linejoin="round"></path> </g> <rect x="364" y="188" width="170" height="79" rx="12" fill="white"></rect> <path d="M384.956 209.186C385.563 209.186 386.085 209.275 386.524 209.452C386.972 209.62 387.415 209.886 387.854 210.25L387.07 211.062C386.725 210.782 386.393 210.581 386.076 210.46C385.759 210.339 385.385 210.278 384.956 210.278C384.461 210.278 384.004 210.413 383.584 210.684C383.173 210.945 382.837 211.37 382.576 211.958C382.315 212.537 382.184 213.274 382.184 214.17C382.184 215.523 382.403 216.513 382.842 217.138C383.29 217.763 383.948 218.076 384.816 218.076C385.525 218.076 386.137 217.931 386.65 217.642V214.73H384.942L384.788 213.652H387.966V218.314C386.967 218.883 385.917 219.168 384.816 219.168C383.547 219.168 382.553 218.743 381.834 217.894C381.125 217.045 380.77 215.803 380.77 214.17C380.77 213.125 380.957 212.229 381.33 211.482C381.713 210.726 382.221 210.157 382.856 209.774C383.5 209.382 384.2 209.186 384.956 209.186ZM392.78 214.912H391.282V219H389.952V209.354H392.486C393.69 209.354 394.6 209.583 395.216 210.04C395.841 210.497 396.154 211.179 396.154 212.084C396.154 212.756 395.981 213.302 395.636 213.722C395.291 214.142 394.768 214.459 394.068 214.674L396.672 219H395.09L392.78 214.912ZM392.626 213.89C393.326 213.89 393.853 213.75 394.208 213.47C394.563 213.181 394.74 212.719 394.74 212.084C394.74 211.487 394.558 211.057 394.194 210.796C393.839 210.525 393.265 210.39 392.472 210.39H391.282V213.89H392.626ZM400.683 209.354C401.877 209.354 402.801 209.606 403.455 210.11C404.108 210.605 404.435 211.347 404.435 212.336C404.435 213.391 404.094 214.175 403.413 214.688C402.731 215.201 401.826 215.458 400.697 215.458H399.479V219H398.149V209.354H400.683ZM400.641 214.408C401.415 214.408 402.003 214.259 402.405 213.96C402.815 213.661 403.021 213.125 403.021 212.35C403.021 211.659 402.815 211.16 402.405 210.852C402.003 210.544 401.425 210.39 400.669 210.39H399.479V214.408H400.641Z" fill="#262626"></path> <path d="M388.925 243.716V245.382H387.548V248H385.423V245.382H380.561V243.886L383.893 236.338L385.746 237.035L382.822 243.716H385.44L385.661 240.843H387.548V243.716H388.925ZM396.304 238.174H392.02V241.013C392.586 240.73 393.164 240.588 393.754 240.588C394.388 240.588 394.955 240.735 395.454 241.03C395.952 241.325 396.338 241.75 396.61 242.305C396.893 242.86 397.035 243.518 397.035 244.277C397.035 245.059 396.859 245.75 396.508 246.351C396.156 246.952 395.658 247.422 395.012 247.762C394.366 248.091 393.618 248.255 392.768 248.255C392.008 248.255 391.334 248.119 390.745 247.847C390.167 247.564 389.64 247.161 389.164 246.64L390.405 245.484C391.062 246.209 391.833 246.572 392.717 246.572C393.363 246.572 393.867 246.374 394.23 245.977C394.604 245.58 394.791 245.014 394.791 244.277C394.791 242.86 394.179 242.152 392.955 242.152C392.694 242.152 392.45 242.186 392.224 242.254C391.997 242.311 391.748 242.407 391.476 242.543H389.929V236.559H396.559L396.304 238.174ZM402.909 240.384C403.509 240.384 404.053 240.531 404.541 240.826C405.039 241.109 405.43 241.534 405.714 242.101C405.997 242.656 406.139 243.325 406.139 244.107C406.139 244.9 405.974 245.614 405.646 246.249C405.317 246.872 404.852 247.365 404.252 247.728C403.662 248.079 402.988 248.255 402.229 248.255C400.823 248.255 399.781 247.762 399.101 246.776C398.432 245.79 398.098 244.436 398.098 242.713C398.098 241.444 398.285 240.333 398.659 239.381C399.044 238.418 399.588 237.675 400.291 237.154C401.005 236.621 401.838 236.355 402.79 236.355C403.73 236.355 404.563 236.599 405.289 237.086L404.473 238.429C403.951 238.123 403.402 237.97 402.824 237.97C402.098 237.97 401.515 238.299 401.073 238.956C400.642 239.602 400.398 240.497 400.342 241.642C401.033 240.803 401.889 240.384 402.909 240.384ZM402.229 246.64C402.795 246.64 403.22 246.419 403.504 245.977C403.798 245.524 403.946 244.912 403.946 244.141C403.946 243.359 403.81 242.804 403.538 242.475C403.277 242.135 402.892 241.965 402.382 241.965C401.996 241.965 401.628 242.073 401.277 242.288C400.937 242.492 400.631 242.775 400.359 243.138C400.381 244.373 400.534 245.269 400.818 245.824C401.112 246.368 401.583 246.64 402.229 246.64ZM408.362 245.501C408.759 245.501 409.088 245.631 409.348 245.892C409.62 246.153 409.756 246.481 409.756 246.878C409.756 247.093 409.722 247.314 409.654 247.541C409.586 247.768 409.473 248.057 409.314 248.408L408.209 250.924H406.883L407.58 248C407.195 247.739 407.002 247.36 407.002 246.861C407.002 246.476 407.133 246.153 407.393 245.892C407.654 245.631 407.977 245.501 408.362 245.501ZM414.73 236.355C416.067 236.355 417.081 236.865 417.773 237.885C418.475 238.905 418.827 240.373 418.827 242.288C418.827 244.215 418.475 245.694 417.773 246.725C417.081 247.745 416.067 248.255 414.73 248.255C413.392 248.255 412.372 247.745 411.67 246.725C410.978 245.694 410.633 244.215 410.633 242.288C410.633 240.373 410.978 238.905 411.67 237.885C412.372 236.865 413.392 236.355 414.73 236.355ZM414.73 238.004C414.084 238.004 413.613 238.333 413.319 238.99C413.024 239.636 412.877 240.735 412.877 242.288C412.877 243.852 413.024 244.963 413.319 245.62C413.613 246.277 414.084 246.606 414.73 246.606C415.376 246.606 415.846 246.283 416.141 245.637C416.435 244.98 416.583 243.863 416.583 242.288C416.583 240.724 416.435 239.619 416.141 238.973C415.846 238.327 415.376 238.004 414.73 238.004ZM423.051 236.355C423.81 236.355 424.462 236.485 425.006 236.746C425.561 237.007 425.975 237.358 426.247 237.8C426.53 238.242 426.672 238.729 426.672 239.262C426.672 239.953 426.473 240.531 426.077 240.996C425.68 241.449 425.136 241.767 424.445 241.948C425.204 242.016 425.827 242.288 426.315 242.764C426.802 243.24 427.046 243.897 427.046 244.736C427.046 245.393 426.876 245.988 426.536 246.521C426.207 247.054 425.731 247.479 425.108 247.796C424.484 248.102 423.748 248.255 422.898 248.255C421.334 248.255 420.098 247.705 419.192 246.606L420.399 245.45C420.784 245.835 421.164 246.119 421.538 246.3C421.912 246.47 422.325 246.555 422.779 246.555C423.391 246.555 423.878 246.385 424.241 246.045C424.615 245.694 424.802 245.223 424.802 244.634C424.802 243.977 424.626 243.506 424.275 243.223C423.935 242.94 423.425 242.798 422.745 242.798H421.844L422.099 241.251H422.711C423.266 241.251 423.708 241.098 424.037 240.792C424.377 240.486 424.547 240.061 424.547 239.517C424.547 239.052 424.394 238.69 424.088 238.429C423.782 238.157 423.374 238.021 422.864 238.021C422.422 238.021 422.019 238.106 421.657 238.276C421.294 238.435 420.931 238.684 420.569 239.024L419.464 237.817C420.495 236.842 421.691 236.355 423.051 236.355Z" fill="#262626"></path> <g clip-path="url(#clip2_331_1388)"> <path d="M495.333 235H488.667C487.746 235 487 235.746 487 236.667V246.667C487 247.587 487.746 248.333 488.667 248.333H495.333C496.254 248.333 497 247.587 497 246.667V236.667C497 235.746 496.254 235 495.333 235Z" stroke="#F9D458" stroke-width="2.5" stroke-linecap="round" stroke-linejoin="round"></path> <path d="M505.333 228.333H498.667C497.746 228.333 497 229.08 497 230V246.667C497 247.587 497.746 248.333 498.667 248.333H505.333C506.254 248.333 507 247.587 507 246.667V230C507 229.08 506.254 228.333 505.333 228.333Z" stroke="#F9D458" stroke-width="2.5" stroke-linecap="round" stroke-linejoin="round"></path> <path d="M515.333 221.667H508.667C507.746 221.667 507 222.413 507 223.333V246.667C507 247.587 507.746 248.333 508.667 248.333H515.333C516.254 248.333 517 247.587 517 246.667V223.333C517 222.413 516.254 221.667 515.333 221.667Z" stroke="#F9D458" stroke-width="2.5" stroke-linecap="round" stroke-linejoin="round"></path> <path d="M488.667 248.333H512" stroke="#F9D458" stroke-width="2.5" stroke-linecap="round" stroke-linejoin="round"></path> </g> <defs> <clipPath id="clip0_331_1388"> <rect width="40" height="40" fill="white" transform="translate(118 215)"></rect> </clipPath> <clipPath id="clip1_331_1388"> <rect width="40" height="40" fill="white" transform="translate(300 215)"></rect> </clipPath> <clipPath id="clip2_331_1388"> <rect width="40" height="40" fill="white" transform="translate(482 215)"></rect> </clipPath> </defs> </svg> 