<?xml version="1.0" encoding="UTF-8"?> <svg xmlns="http://www.w3.org/2000/svg" width="534" height="267" viewBox="0 0 534 267" fill="none"> <rect width="170" height="85" rx="12" fill="white"></rect> <path d="M22.538 31L21.81 28.578H18.156L17.428 31H16.084L19.178 21.354H20.858L23.938 31H22.538ZM18.478 27.5H21.488L19.99 22.46L18.478 27.5ZM28.9674 26.996C30.2181 27.1173 30.8434 27.696 30.8434 28.732C30.8434 29.5067 30.5587 30.0807 29.9894 30.454C29.4294 30.818 28.6781 31 27.7354 31H25.0754V23.72C25.9434 23.5427 26.7507 23.454 27.4974 23.454C28.4121 23.454 29.1354 23.6267 29.6674 23.972C30.1994 24.3173 30.4654 24.812 30.4654 25.456C30.4654 25.876 30.3394 26.2167 30.0874 26.478C29.8354 26.7393 29.4621 26.912 28.9674 26.996ZM27.5114 24.448C27.1194 24.448 26.7367 24.476 26.3634 24.532V26.618H27.7494C28.1974 26.618 28.5427 26.534 28.7854 26.366C29.0281 26.198 29.1494 25.9133 29.1494 25.512C29.1494 25.1387 29.0141 24.868 28.7434 24.7C28.4727 24.532 28.0621 24.448 27.5114 24.448ZM27.7354 29.992C28.2861 29.992 28.7154 29.8987 29.0234 29.712C29.3314 29.5253 29.4854 29.1893 29.4854 28.704C29.4854 28.3027 29.3547 28.0133 29.0934 27.836C28.8321 27.6587 28.3887 27.57 27.7634 27.57H26.3634V29.992H27.7354ZM37.4083 23.622L37.2543 24.672H34.8883V31H33.6003V24.672H31.1643V23.622H37.4083ZM40.8772 23.454C41.9132 23.454 42.7159 23.7993 43.2852 24.49C43.8639 25.1807 44.1532 26.1187 44.1532 27.304C44.1532 28.0693 44.0226 28.746 43.7612 29.334C43.4999 29.9127 43.1219 30.3653 42.6272 30.692C42.1326 31.0093 41.5446 31.168 40.8632 31.168C39.8272 31.168 39.0199 30.8227 38.4412 30.132C37.8626 29.4413 37.5732 28.5033 37.5732 27.318C37.5732 26.5527 37.7039 25.8807 37.9652 25.302C38.2266 24.714 38.6046 24.2613 39.0992 23.944C39.5939 23.6173 40.1866 23.454 40.8772 23.454ZM40.8772 24.49C39.5986 24.49 38.9592 25.4327 38.9592 27.318C38.9592 29.194 39.5939 30.132 40.8632 30.132C42.1326 30.132 42.7672 29.1893 42.7672 27.304C42.7672 25.428 42.1372 24.49 40.8772 24.49ZM53.225 31H51.965L51.629 27.514C51.5917 27.15 51.5683 26.7487 51.559 26.31C51.5497 25.862 51.545 25.3813 51.545 24.868L49.865 30.188H48.647L47.079 24.882C47.079 26.114 47.0603 26.9867 47.023 27.5L46.757 31H45.511L46.169 23.622H47.835L49.277 28.9L50.859 23.622H52.553L53.225 31ZM57.8856 23.454C58.9216 23.454 59.7243 23.7993 60.2936 24.49C60.8723 25.1807 61.1616 26.1187 61.1616 27.304C61.1616 28.0693 61.0309 28.746 60.7696 29.334C60.5083 29.9127 60.1303 30.3653 59.6356 30.692C59.1409 31.0093 58.5529 31.168 57.8716 31.168C56.8356 31.168 56.0283 30.8227 55.4496 30.132C54.8709 29.4413 54.5816 28.5033 54.5816 27.318C54.5816 26.5527 54.7123 25.8807 54.9736 25.302C55.2349 24.714 55.6129 24.2613 56.1076 23.944C56.6023 23.6173 57.1949 23.454 57.8856 23.454ZM57.8856 24.49C56.6069 24.49 55.9676 25.4327 55.9676 27.318C55.9676 29.194 56.6023 30.132 57.8716 30.132C59.1409 30.132 59.7756 29.1893 59.7756 27.304C59.7756 25.428 59.1456 24.49 57.8856 24.49ZM66.2294 24.098C67.0694 24.098 67.7367 24.4013 68.2314 25.008C68.7354 25.6147 68.9874 26.4407 68.9874 27.486C68.9874 28.6527 68.6934 29.558 68.1054 30.202C67.5174 30.846 66.7287 31.168 65.7394 31.168C64.75 31.168 63.9567 30.818 63.3594 30.118C62.7714 29.418 62.4774 28.3587 62.4774 26.94C62.4774 25.8667 62.5567 24.9893 62.7154 24.308C62.8834 23.6173 63.168 23.0527 63.5694 22.614C63.98 22.166 64.554 21.816 65.2914 21.564C65.842 21.3773 66.2807 21.2093 66.6074 21.06C66.9434 20.9107 67.284 20.7193 67.6294 20.486L68.1754 21.452C67.8487 21.6573 67.508 21.8487 67.1534 22.026C66.808 22.194 66.3927 22.3573 65.9074 22.516C65.4407 22.6747 65.072 22.8567 64.8014 23.062C64.5307 23.258 64.3114 23.5473 64.1434 23.93C63.9847 24.3033 63.8774 24.8167 63.8214 25.47C64.0827 25.0407 64.4187 24.7047 64.8294 24.462C65.24 24.2193 65.7067 24.098 66.2294 24.098ZM65.7394 30.132C66.3087 30.132 66.7614 29.9407 67.0974 29.558C67.4334 29.166 67.6014 28.4893 67.6014 27.528C67.6014 26.6787 67.4614 26.0673 67.1814 25.694C66.9107 25.3207 66.514 25.134 65.9914 25.134C65.562 25.134 65.1607 25.2507 64.7874 25.484C64.414 25.708 64.106 26.0533 63.8634 26.52V27.416C63.8634 28.284 64.0267 28.956 64.3534 29.432C64.6894 29.8987 65.1514 30.132 65.7394 30.132ZM76.5768 31H75.3028V27.668C75.3028 27.108 75.3215 26.576 75.3588 26.072C75.3961 25.568 75.4288 25.2367 75.4568 25.078L72.3628 31H70.8368V23.622H72.1108V26.954C72.1108 27.4487 72.0921 27.962 72.0548 28.494C72.0175 29.0167 71.9895 29.3527 71.9708 29.502L75.0228 23.622H76.5768V31ZM84.3553 23.622V31H83.0673V24.672H80.7853L80.5753 27.136C80.4913 28.1347 80.384 28.8813 80.2533 29.376C80.132 29.8707 79.936 30.2533 79.6653 30.524C79.404 30.7853 79.0027 31 78.4613 31.168L78.1393 30.146C78.4567 30.034 78.6807 29.8893 78.8113 29.712C78.942 29.5347 79.04 29.264 79.1053 28.9C79.1707 28.536 79.2407 27.9013 79.3153 26.996L79.6093 23.622H84.3553ZM92.4777 31H91.2037V27.668C91.2037 27.108 91.2224 26.576 91.2597 26.072C91.2971 25.568 91.3297 25.2367 91.3577 25.078L88.2637 31H86.7377V23.622H88.0117V26.954C88.0117 27.4487 87.9931 27.962 87.9557 28.494C87.9184 29.0167 87.8904 29.3527 87.8717 29.502L90.9237 23.622H92.4777V31Z" fill="#262626"></path> <path d="M23.463 56.174H19.179V59.013C19.7457 58.7297 20.3237 58.588 20.913 58.588C21.5477 58.588 22.1143 58.7353 22.613 59.03C23.1117 59.3247 23.497 59.7497 23.769 60.305C24.0523 60.8603 24.194 61.5177 24.194 62.277C24.194 63.059 24.0183 63.7503 23.667 64.351C23.3157 64.9517 22.817 65.422 22.171 65.762C21.525 66.0907 20.777 66.255 19.927 66.255C19.1677 66.255 18.4933 66.119 17.904 65.847C17.326 65.5637 16.799 65.1613 16.323 64.64L17.564 63.484C18.2213 64.2093 18.992 64.572 19.876 64.572C20.522 64.572 21.0263 64.3737 21.389 63.977C21.763 63.5803 21.95 63.0137 21.95 62.277C21.95 60.8603 21.338 60.152 20.114 60.152C19.8533 60.152 19.6097 60.186 19.383 60.254C19.1563 60.3107 18.907 60.407 18.635 60.543H17.088V54.559H23.718L23.463 56.174ZM29.354 54.355C30.6914 54.355 31.7057 54.865 32.397 55.885C33.0997 56.905 33.451 58.3727 33.451 60.288C33.451 62.2147 33.0997 63.6937 32.397 64.725C31.7057 65.745 30.6914 66.255 29.354 66.255C28.0167 66.255 26.9967 65.745 26.294 64.725C25.6027 63.6937 25.257 62.2147 25.257 60.288C25.257 58.3727 25.6027 56.905 26.294 55.885C26.9967 54.865 28.0167 54.355 29.354 54.355ZM29.354 56.004C28.708 56.004 28.2377 56.3327 27.943 56.99C27.6484 57.636 27.501 58.7353 27.501 60.288C27.501 61.852 27.6484 62.9627 27.943 63.62C28.2377 64.2773 28.708 64.606 29.354 64.606C30 64.606 30.4704 64.283 30.765 63.637C31.0597 62.9797 31.207 61.8633 31.207 60.288C31.207 58.724 31.0597 57.619 30.765 56.973C30.4704 56.327 30 56.004 29.354 56.004ZM49.8941 57.007V66H39.1161V57.007H41.2071V64.351H43.5361V57.007H45.4741V64.351H47.8031V57.007H49.8941ZM58.7866 57.007L58.5146 58.673H55.8796V66H53.7036V58.673H50.9156V57.007H58.7866Z" fill="#262626"></path> <rect x="182" width="170" height="85" rx="12" fill="white"></rect> <path d="M208.92 26.1C208.92 27.4813 208.519 28.5313 207.716 29.25C206.923 29.9593 205.812 30.3327 204.384 30.37V31.462H203.096V30.37C201.612 30.3047 200.483 29.9127 199.708 29.194C198.943 28.466 198.56 27.444 198.56 26.128C198.56 24.7467 198.957 23.7013 199.75 22.992C200.553 22.2733 201.668 21.8953 203.096 21.858V20.878H204.384V21.858C205.868 21.9233 206.993 22.32 207.758 23.048C208.533 23.7667 208.92 24.784 208.92 26.1ZM199.932 26.128C199.932 27.2013 200.193 27.9993 200.716 28.522C201.248 29.0447 202.051 29.3293 203.124 29.376V22.838C202.032 22.9033 201.225 23.1927 200.702 23.706C200.189 24.2193 199.932 25.0267 199.932 26.128ZM204.356 29.39C205.448 29.3247 206.251 29.0353 206.764 28.522C207.287 28.0087 207.548 27.2013 207.548 26.1C207.548 25.0267 207.282 24.2287 206.75 23.706C206.227 23.1833 205.429 22.8987 204.356 22.852V29.39ZM213.306 23.454C214.342 23.454 215.145 23.7993 215.714 24.49C216.293 25.1807 216.582 26.1187 216.582 27.304C216.582 28.0693 216.452 28.746 216.19 29.334C215.929 29.9127 215.551 30.3653 215.056 30.692C214.562 31.0093 213.974 31.168 213.292 31.168C212.256 31.168 211.449 30.8227 210.87 30.132C210.292 29.4413 210.002 28.5033 210.002 27.318C210.002 26.5527 210.133 25.8807 210.394 25.302C210.656 24.714 211.034 24.2613 211.528 23.944C212.023 23.6173 212.616 23.454 213.306 23.454ZM213.306 24.49C212.028 24.49 211.388 25.4327 211.388 27.318C211.388 29.194 212.023 30.132 213.292 30.132C214.562 30.132 215.196 29.1893 215.196 27.304C215.196 25.428 214.566 24.49 213.306 24.49ZM221.818 23.454C222.761 23.454 223.451 23.79 223.89 24.462C224.329 25.134 224.548 26.0813 224.548 27.304C224.548 28.4613 224.296 29.3947 223.792 30.104C223.288 30.8133 222.574 31.168 221.65 31.168C220.829 31.168 220.185 30.888 219.718 30.328V33.828L218.43 33.982V23.622H219.536L219.634 24.616C219.905 24.2427 220.231 23.958 220.614 23.762C220.997 23.5567 221.398 23.454 221.818 23.454ZM221.342 30.118C222.555 30.118 223.162 29.18 223.162 27.304C223.162 25.4187 222.607 24.476 221.496 24.476C221.132 24.476 220.801 24.5833 220.502 24.798C220.203 25.0127 219.942 25.288 219.718 25.624V29.222C219.905 29.5113 220.138 29.7353 220.418 29.894C220.698 30.0433 221.006 30.118 221.342 30.118ZM233.687 31H232.427L232.091 27.514C232.053 27.15 232.03 26.7487 232.021 26.31C232.011 25.862 232.007 25.3813 232.007 24.868L230.327 30.188H229.109L227.541 24.882C227.541 26.114 227.522 26.9867 227.485 27.5L227.219 31H225.973L226.631 23.622H228.297L229.739 28.9L231.321 23.622H233.015L233.687 31ZM240.545 29.278C240.545 29.5767 240.597 29.8007 240.699 29.95C240.802 30.09 240.956 30.1973 241.161 30.272L240.867 31.168C240.485 31.1213 240.177 31.014 239.943 30.846C239.71 30.678 239.537 30.4167 239.425 30.062C238.931 30.7993 238.198 31.168 237.227 31.168C236.499 31.168 235.925 30.9627 235.505 30.552C235.085 30.1413 234.875 29.6047 234.875 28.942C234.875 28.158 235.155 27.556 235.715 27.136C236.285 26.716 237.087 26.506 238.123 26.506H239.257V25.96C239.257 25.4373 239.131 25.064 238.879 24.84C238.627 24.616 238.24 24.504 237.717 24.504C237.176 24.504 236.513 24.6347 235.729 24.896L235.407 23.958C236.322 23.622 237.171 23.454 237.955 23.454C238.823 23.454 239.472 23.6687 239.901 24.098C240.331 24.518 240.545 25.12 240.545 25.904V29.278ZM237.521 30.202C238.259 30.202 238.837 29.8193 239.257 29.054V27.36H238.291C236.929 27.36 236.247 27.864 236.247 28.872C236.247 29.3107 236.355 29.642 236.569 29.866C236.784 30.09 237.101 30.202 237.521 30.202ZM247.621 23.622L247.467 24.672H245.101V31H243.813V24.672H241.377V23.622H247.621Z" fill="#262626"></path> <path d="M203.015 58.537C204.477 58.537 205.605 58.843 206.398 59.455C207.203 60.067 207.605 60.9737 207.605 62.175C207.605 63.467 207.191 64.4303 206.364 65.065C205.537 65.6883 204.42 66 203.015 66H199.377V54.253H206.279L206.041 56.004H201.621V58.537H203.015ZM202.947 64.317C203.684 64.317 204.25 64.1583 204.647 63.841C205.044 63.5123 205.242 62.9683 205.242 62.209C205.242 61.5063 205.044 60.9907 204.647 60.662C204.262 60.3333 203.678 60.169 202.896 60.169H201.621V64.317H202.947ZM213.621 56.752C214.754 56.752 215.593 57.1657 216.137 57.993C216.681 58.8203 216.953 59.982 216.953 61.478C216.953 62.4073 216.811 63.2347 216.528 63.96C216.256 64.674 215.848 65.235 215.304 65.643C214.771 66.051 214.137 66.255 213.4 66.255C212.448 66.255 211.694 65.9263 211.139 65.269V69.468L208.963 69.706V57.007H210.867L210.986 58.112C211.337 57.6587 211.74 57.3187 212.193 57.092C212.646 56.8653 213.122 56.752 213.621 56.752ZM212.788 64.589C214.046 64.589 214.675 63.5577 214.675 61.495C214.675 60.3957 214.533 59.6023 214.25 59.115C213.967 58.6277 213.542 58.384 212.975 58.384C212.612 58.384 212.272 58.4973 211.955 58.724C211.638 58.9393 211.366 59.234 211.139 59.608V63.654C211.558 64.2773 212.108 64.589 212.788 64.589ZM226.128 61.291C226.128 61.4043 226.111 61.699 226.077 62.175H220.433C220.501 63.0477 220.728 63.671 221.113 64.045C221.498 64.419 222.008 64.606 222.643 64.606C223.04 64.606 223.414 64.5437 223.765 64.419C224.116 64.283 224.49 64.079 224.887 63.807L225.788 65.048C224.791 65.8527 223.68 66.255 222.456 66.255C221.085 66.255 220.025 65.8357 219.277 64.997C218.54 64.1583 218.172 63.0137 218.172 61.563C218.172 60.645 218.331 59.8233 218.648 59.098C218.965 58.3613 219.424 57.789 220.025 57.381C220.626 56.9617 221.34 56.752 222.167 56.752C223.425 56.752 224.4 57.1543 225.091 57.959C225.782 58.7523 226.128 59.863 226.128 61.291ZM223.969 60.662C223.969 59.0867 223.385 58.299 222.218 58.299C221.685 58.299 221.266 58.4973 220.96 58.894C220.665 59.2793 220.49 59.9027 220.433 60.764H223.969V60.662ZM232.959 66V62.243H229.916V66H227.74V57.007H229.916V60.594H232.959V57.007H235.135V66H232.959ZM245.163 64.351V68.686H243.582L243.293 66H237.972L237.683 68.686H236.102V64.351H236.697C236.935 64.1923 237.122 63.9997 237.258 63.773C237.405 63.535 237.536 63.1383 237.649 62.583C237.774 62.0277 237.876 61.2287 237.955 60.186L238.193 57.007H244.228V64.351H245.163ZM242.137 58.537H240.097L239.978 59.965C239.899 60.9397 239.802 61.7047 239.689 62.26C239.576 62.8153 239.423 63.2517 239.23 63.569C239.037 63.875 238.771 64.1357 238.431 64.351H242.137V58.537ZM254.014 66H251.923V62.396C251.923 61.7387 251.952 61.121 252.008 60.543C252.065 59.9537 252.127 59.5117 252.195 59.217L248.846 66H246.517V57.007H248.625V60.611C248.625 61.2343 248.591 61.852 248.523 62.464C248.467 63.076 248.404 63.5123 248.336 63.773L251.651 57.007H254.014V66ZM261.507 66V62.243H258.464V66H256.288V57.007H258.464V60.594H261.507V57.007H263.683V66H261.507ZM268.134 66H265.958V57.007H271.976L271.721 58.707H268.134V66ZM280.862 56.905V59.506H283.395V61.223H280.862V63.824H278.992V61.223H276.476V59.506H278.992V56.905H280.862ZM296.648 57.007L294.115 61.172L296.92 66H294.523L292.33 62.005H291.361V66H289.185V57.007H291.361V60.56H292.381L294.472 57.007H296.648ZM301.432 56.752C302.758 56.752 303.79 57.177 304.526 58.027C305.274 58.8657 305.648 60.0217 305.648 61.495C305.648 62.4357 305.478 63.2687 305.138 63.994C304.798 64.708 304.311 65.2633 303.676 65.66C303.042 66.0567 302.288 66.255 301.415 66.255C300.089 66.255 299.052 65.8357 298.304 64.997C297.556 64.147 297.182 62.9797 297.182 61.495C297.182 60.5543 297.352 59.727 297.692 59.013C298.032 58.299 298.52 57.7437 299.154 57.347C299.8 56.9503 300.56 56.752 301.432 56.752ZM301.432 58.401C300.129 58.401 299.477 59.4323 299.477 61.495C299.477 62.5603 299.636 63.348 299.953 63.858C300.282 64.3567 300.769 64.606 301.415 64.606C302.061 64.606 302.543 64.351 302.86 63.841C303.189 63.331 303.353 62.549 303.353 61.495C303.353 60.441 303.189 59.6647 302.86 59.166C302.543 58.656 302.067 58.401 301.432 58.401ZM312.006 56.752C313.139 56.752 313.978 57.1657 314.522 57.993C315.066 58.8203 315.338 59.982 315.338 61.478C315.338 62.4073 315.196 63.2347 314.913 63.96C314.641 64.674 314.233 65.235 313.689 65.643C313.156 66.051 312.522 66.255 311.785 66.255C310.833 66.255 310.079 65.9263 309.524 65.269V69.468L307.348 69.706V57.007H309.252L309.371 58.112C309.722 57.6587 310.125 57.3187 310.578 57.092C311.031 56.8653 311.507 56.752 312.006 56.752ZM311.173 64.589C312.431 64.589 313.06 63.5577 313.06 61.495C313.06 60.3957 312.918 59.6023 312.635 59.115C312.352 58.6277 311.927 58.384 311.36 58.384C310.997 58.384 310.657 58.4973 310.34 58.724C310.023 58.9393 309.751 59.234 309.524 59.608V63.654C309.943 64.2773 310.493 64.589 311.173 64.589ZM320.807 56.752C322.133 56.752 323.164 57.177 323.901 58.027C324.649 58.8657 325.023 60.0217 325.023 61.495C325.023 62.4357 324.853 63.2687 324.513 63.994C324.173 64.708 323.686 65.2633 323.051 65.66C322.416 66.0567 321.663 66.255 320.79 66.255C319.464 66.255 318.427 65.8357 317.679 64.997C316.931 64.147 316.557 62.9797 316.557 61.495C316.557 60.5543 316.727 59.727 317.067 59.013C317.407 58.299 317.894 57.7437 318.529 57.347C319.175 56.9503 319.934 56.752 320.807 56.752ZM320.807 58.401C319.504 58.401 318.852 59.4323 318.852 61.495C318.852 62.5603 319.011 63.348 319.328 63.858C319.657 64.3567 320.144 64.606 320.79 64.606C321.436 64.606 321.918 64.351 322.235 63.841C322.564 63.331 322.728 62.549 322.728 61.495C322.728 60.441 322.564 59.6647 322.235 59.166C321.918 58.656 321.442 58.401 320.807 58.401ZM331.109 57.602C331.755 57.602 332.333 57.7663 332.843 58.095C333.353 58.4237 333.749 58.9053 334.033 59.54C334.327 60.1633 334.475 60.9057 334.475 61.767C334.475 62.6963 334.299 63.501 333.948 64.181C333.608 64.8497 333.126 65.3653 332.503 65.728C331.879 66.0793 331.154 66.255 330.327 66.255C329.046 66.255 328.026 65.8243 327.267 64.963C326.519 64.0903 326.145 62.77 326.145 61.002C326.145 59.6987 326.247 58.6277 326.451 57.789C326.666 56.9503 327.034 56.2647 327.556 55.732C328.077 55.188 328.808 54.763 329.749 54.457C330.44 54.2303 330.984 54.032 331.381 53.862C331.777 53.6807 332.208 53.4483 332.673 53.165L333.506 54.627C333.109 54.8877 332.69 55.12 332.248 55.324C331.806 55.5167 331.273 55.715 330.65 55.919C330.128 56.089 329.709 56.2873 329.392 56.514C329.086 56.7407 328.842 57.0637 328.661 57.483C328.479 57.891 328.355 58.4463 328.287 59.149C328.955 58.1177 329.896 57.602 331.109 57.602ZM330.31 64.606C330.888 64.606 331.341 64.402 331.67 63.994C332.01 63.5747 332.18 62.855 332.18 61.835C332.18 60.8943 332.044 60.2313 331.772 59.846C331.5 59.4493 331.092 59.251 330.548 59.251C330.128 59.251 329.732 59.3643 329.358 59.591C328.995 59.8177 328.689 60.1633 328.44 60.628V61.767C328.44 62.6963 328.604 63.4047 328.933 63.892C329.261 64.368 329.72 64.606 330.31 64.606Z" fill="#262626"></path> <g opacity="0.3"> <path fill-rule="evenodd" clip-rule="evenodd" d="M332.497 17.9141C331.623 17.9141 330.914 18.6232 330.914 19.4969C330.914 20.3707 331.623 21.0798 332.497 21.0798C333.371 21.0798 334.08 20.3707 334.08 19.4969C334.08 18.6232 333.371 17.9141 332.497 17.9141ZM338.037 17.9141C337.163 17.9141 336.454 18.6232 336.454 19.4969C336.454 20.3707 337.163 21.0798 338.037 21.0798C338.911 21.0798 339.62 20.3707 339.62 19.4969C339.62 18.6232 338.911 17.9141 338.037 17.9141ZM325.374 19.497C325.374 18.6232 326.083 17.9141 326.957 17.9141C327.831 17.9141 328.54 18.6232 328.54 19.497C328.54 20.3707 327.831 21.0798 326.957 21.0798C326.083 21.0798 325.374 20.3707 325.374 19.497Z" fill="black"></path> </g> <rect x="364" width="170" height="85" rx="12" fill="white"></rect> <path d="M387.938 29.908V33.1H386.888L386.678 31H381.12L380.91 33.1H379.86V29.908H380.518C380.77 29.6653 380.961 29.3573 381.092 28.984C381.232 28.6107 381.349 28.116 381.442 27.5C381.545 26.8747 381.699 25.7593 381.904 24.154L382.254 21.354H387.154V29.908H387.938ZM385.824 22.446H383.416L383.22 24.21C383.052 25.6473 382.912 26.6973 382.8 27.36C382.697 28.0227 382.557 28.55 382.38 28.942C382.212 29.334 381.965 29.656 381.638 29.908H385.824V22.446ZM394.579 29.278C394.579 29.5767 394.63 29.8007 394.733 29.95C394.835 30.09 394.989 30.1973 395.195 30.272L394.901 31.168C394.518 31.1213 394.21 31.014 393.977 30.846C393.743 30.678 393.571 30.4167 393.459 30.062C392.964 30.7993 392.231 31.168 391.261 31.168C390.533 31.168 389.959 30.9627 389.539 30.552C389.119 30.1413 388.909 29.6047 388.909 28.942C388.909 28.158 389.189 27.556 389.749 27.136C390.318 26.716 391.121 26.506 392.157 26.506H393.291V25.96C393.291 25.4373 393.165 25.064 392.913 24.84C392.661 24.616 392.273 24.504 391.751 24.504C391.209 24.504 390.547 24.6347 389.763 24.896L389.441 23.958C390.355 23.622 391.205 23.454 391.989 23.454C392.857 23.454 393.505 23.6687 393.935 24.098C394.364 24.518 394.579 25.12 394.579 25.904V29.278ZM391.555 30.202C392.292 30.202 392.871 29.8193 393.291 29.054V27.36H392.325C390.962 27.36 390.281 27.864 390.281 28.872C390.281 29.3107 390.388 29.642 390.603 29.866C390.817 30.09 391.135 30.202 391.555 30.202ZM401.654 23.622L401.5 24.672H399.134V31H397.846V24.672H395.41V23.622H401.654ZM404.835 26.002C405.936 26.002 406.734 26.2167 407.229 26.646C407.723 27.0753 407.971 27.6867 407.971 28.48C407.971 29.3107 407.691 29.9407 407.131 30.37C406.58 30.79 405.894 31 405.073 31H402.707V23.622H403.995V26.002H404.835ZM409.035 23.622H410.323V31H409.035V23.622ZM404.961 29.992C405.483 29.992 405.885 29.8753 406.165 29.642C406.454 29.4087 406.599 29.0213 406.599 28.48C406.599 27.9667 406.463 27.5887 406.193 27.346C405.931 27.1033 405.474 26.982 404.821 26.982H403.995V29.992H404.961Z" fill="#262626"></path> <path d="M384.862 54.355C386.199 54.355 387.214 54.865 387.905 55.885C388.608 56.905 388.959 58.3727 388.959 60.288C388.959 62.2147 388.608 63.6937 387.905 64.725C387.214 65.745 386.199 66.255 384.862 66.255C383.525 66.255 382.505 65.745 381.802 64.725C381.111 63.6937 380.765 62.2147 380.765 60.288C380.765 58.3727 381.111 56.905 381.802 55.885C382.505 54.865 383.525 54.355 384.862 54.355ZM384.862 56.004C384.216 56.004 383.746 56.3327 383.451 56.99C383.156 57.636 383.009 58.7353 383.009 60.288C383.009 61.852 383.156 62.9627 383.451 63.62C383.746 64.2773 384.216 64.606 384.862 64.606C385.508 64.606 385.978 64.283 386.273 63.637C386.568 62.9797 386.715 61.8633 386.715 60.288C386.715 58.724 386.568 57.619 386.273 56.973C385.978 56.327 385.508 56.004 384.862 56.004ZM395.042 54.559V66H392.9V56.752L390.35 58.299L389.398 56.837L393.121 54.559H395.042ZM398.343 63.501C398.728 63.501 399.057 63.637 399.329 63.909C399.601 64.1697 399.737 64.4927 399.737 64.878C399.737 65.252 399.601 65.575 399.329 65.847C399.057 66.119 398.728 66.255 398.343 66.255C397.969 66.255 397.646 66.119 397.374 65.847C397.113 65.575 396.983 65.252 396.983 64.878C396.983 64.4927 397.113 64.1697 397.374 63.909C397.635 63.637 397.958 63.501 398.343 63.501ZM404.71 54.355C406.047 54.355 407.062 54.865 407.753 55.885C408.456 56.905 408.807 58.3727 408.807 60.288C408.807 62.2147 408.456 63.6937 407.753 64.725C407.062 65.745 406.047 66.255 404.71 66.255C403.373 66.255 402.353 65.745 401.65 64.725C400.959 63.6937 400.613 62.2147 400.613 60.288C400.613 58.3727 400.959 56.905 401.65 55.885C402.353 54.865 403.373 54.355 404.71 54.355ZM404.71 56.004C404.064 56.004 403.594 56.3327 403.299 56.99C403.004 57.636 402.857 58.7353 402.857 60.288C402.857 61.852 403.004 62.9627 403.299 63.62C403.594 64.2773 404.064 64.606 404.71 64.606C405.356 64.606 405.826 64.283 406.121 63.637C406.416 62.9797 406.563 61.8633 406.563 60.288C406.563 58.724 406.416 57.619 406.121 56.973C405.826 56.327 405.356 56.004 404.71 56.004ZM413.032 54.355C413.802 54.355 414.465 54.4967 415.021 54.78C415.587 55.0633 416.018 55.4487 416.313 55.936C416.607 56.4233 416.755 56.9673 416.755 57.568C416.755 58.214 416.613 58.8373 416.33 59.438C416.058 60.0273 415.599 60.6847 414.953 61.41C414.307 62.1353 413.36 63.093 412.114 64.283H417.01L416.772 66H409.649V64.402C411.099 62.9287 412.136 61.8407 412.76 61.138C413.394 60.424 413.842 59.8177 414.103 59.319C414.375 58.809 414.511 58.282 414.511 57.738C414.511 57.2167 414.358 56.8087 414.052 56.514C413.757 56.2193 413.36 56.072 412.862 56.072C412.42 56.072 412.029 56.1683 411.689 56.361C411.36 56.5423 411.014 56.8483 410.652 57.279L409.326 56.225C410.289 54.9783 411.524 54.355 413.032 54.355ZM419.37 63.501C419.755 63.501 420.084 63.637 420.356 63.909C420.628 64.1697 420.764 64.4927 420.764 64.878C420.764 65.252 420.628 65.575 420.356 65.847C420.084 66.119 419.755 66.255 419.37 66.255C418.996 66.255 418.673 66.119 418.401 65.847C418.14 65.575 418.01 65.252 418.01 64.878C418.01 64.4927 418.14 64.1697 418.401 63.909C418.662 63.637 418.985 63.501 419.37 63.501ZM425.052 54.355C425.823 54.355 426.486 54.4967 427.041 54.78C427.608 55.0633 428.038 55.4487 428.333 55.936C428.628 56.4233 428.775 56.9673 428.775 57.568C428.775 58.214 428.633 58.8373 428.35 59.438C428.078 60.0273 427.619 60.6847 426.973 61.41C426.327 62.1353 425.381 63.093 424.134 64.283H429.03L428.792 66H421.669V64.402C423.12 62.9287 424.157 61.8407 424.78 61.138C425.415 60.424 425.862 59.8177 426.123 59.319C426.395 58.809 426.531 58.282 426.531 57.738C426.531 57.2167 426.378 56.8087 426.072 56.514C425.777 56.2193 425.381 56.072 424.882 56.072C424.44 56.072 424.049 56.1683 423.709 56.361C423.38 56.5423 423.035 56.8483 422.672 57.279L421.346 56.225C422.309 54.9783 423.545 54.355 425.052 54.355ZM433.228 54.355C433.987 54.355 434.639 54.4853 435.183 54.746C435.738 55.0067 436.152 55.358 436.424 55.8C436.707 56.242 436.849 56.7293 436.849 57.262C436.849 57.9533 436.651 58.5313 436.254 58.996C435.857 59.4493 435.313 59.7667 434.622 59.948C435.381 60.016 436.005 60.288 436.492 60.764C436.979 61.24 437.223 61.8973 437.223 62.736C437.223 63.3933 437.053 63.9883 436.713 64.521C436.384 65.0537 435.908 65.4787 435.285 65.796C434.662 66.102 433.925 66.255 433.075 66.255C431.511 66.255 430.276 65.7053 429.369 64.606L430.576 63.45C430.961 63.8353 431.341 64.1187 431.715 64.3C432.089 64.47 432.503 64.555 432.956 64.555C433.568 64.555 434.055 64.385 434.418 64.045C434.792 63.6937 434.979 63.2233 434.979 62.634C434.979 61.9767 434.803 61.5063 434.452 61.223C434.112 60.9397 433.602 60.798 432.922 60.798H432.021L432.276 59.251H432.888C433.443 59.251 433.885 59.098 434.214 58.792C434.554 58.486 434.724 58.061 434.724 57.517C434.724 57.0523 434.571 56.6897 434.265 56.429C433.959 56.157 433.551 56.021 433.041 56.021C432.599 56.021 432.197 56.106 431.834 56.276C431.471 56.4347 431.109 56.684 430.746 57.024L429.641 55.817C430.672 54.8423 431.868 54.355 433.228 54.355ZM441.962 61.546V59.812H449.918V61.546H441.962ZM458.784 54.355C460.121 54.355 461.136 54.865 461.827 55.885C462.53 56.905 462.881 58.3727 462.881 60.288C462.881 62.2147 462.53 63.6937 461.827 64.725C461.136 65.745 460.121 66.255 458.784 66.255C457.447 66.255 456.427 65.745 455.724 64.725C455.033 63.6937 454.687 62.2147 454.687 60.288C454.687 58.3727 455.033 56.905 455.724 55.885C456.427 54.865 457.447 54.355 458.784 54.355ZM458.784 56.004C458.138 56.004 457.668 56.3327 457.373 56.99C457.078 57.636 456.931 58.7353 456.931 60.288C456.931 61.852 457.078 62.9627 457.373 63.62C457.668 64.2773 458.138 64.606 458.784 64.606C459.43 64.606 459.9 64.283 460.195 63.637C460.49 62.9797 460.637 61.8633 460.637 60.288C460.637 58.724 460.49 57.619 460.195 56.973C459.9 56.327 459.43 56.004 458.784 56.004ZM468.964 54.559V66H466.822V56.752L464.272 58.299L463.32 56.837L467.043 54.559H468.964ZM472.265 63.501C472.65 63.501 472.979 63.637 473.251 63.909C473.523 64.1697 473.659 64.4927 473.659 64.878C473.659 65.252 473.523 65.575 473.251 65.847C472.979 66.119 472.65 66.255 472.265 66.255C471.891 66.255 471.568 66.119 471.296 65.847C471.035 65.575 470.905 65.252 470.905 64.878C470.905 64.4927 471.035 64.1697 471.296 63.909C471.557 63.637 471.88 63.501 472.265 63.501ZM478.632 54.355C479.97 54.355 480.984 54.865 481.675 55.885C482.378 56.905 482.729 58.3727 482.729 60.288C482.729 62.2147 482.378 63.6937 481.675 64.725C480.984 65.745 479.97 66.255 478.632 66.255C477.295 66.255 476.275 65.745 475.572 64.725C474.881 63.6937 474.535 62.2147 474.535 60.288C474.535 58.3727 474.881 56.905 475.572 55.885C476.275 54.865 477.295 54.355 478.632 54.355ZM478.632 56.004C477.986 56.004 477.516 56.3327 477.221 56.99C476.927 57.636 476.779 58.7353 476.779 60.288C476.779 61.852 476.927 62.9627 477.221 63.62C477.516 64.2773 477.986 64.606 478.632 64.606C479.278 64.606 479.749 64.283 480.043 63.637C480.338 62.9797 480.485 61.8633 480.485 60.288C480.485 58.724 480.338 57.619 480.043 56.973C479.749 56.327 479.278 56.004 478.632 56.004ZM486.953 54.355C487.713 54.355 488.364 54.4853 488.908 54.746C489.464 55.0067 489.877 55.358 490.149 55.8C490.433 56.242 490.574 56.7293 490.574 57.262C490.574 57.9533 490.376 58.5313 489.979 58.996C489.583 59.4493 489.039 59.7667 488.347 59.948C489.107 60.016 489.73 60.288 490.217 60.764C490.705 61.24 490.948 61.8973 490.948 62.736C490.948 63.3933 490.778 63.9883 490.438 64.521C490.11 65.0537 489.634 65.4787 489.01 65.796C488.387 66.102 487.65 66.255 486.8 66.255C485.236 66.255 484.001 65.7053 483.094 64.606L484.301 63.45C484.687 63.8353 485.066 64.1187 485.44 64.3C485.814 64.47 486.228 64.555 486.681 64.555C487.293 64.555 487.781 64.385 488.143 64.045C488.517 63.6937 488.704 63.2233 488.704 62.634C488.704 61.9767 488.529 61.5063 488.177 61.223C487.837 60.9397 487.327 60.798 486.647 60.798H485.746L486.001 59.251H486.613C487.169 59.251 487.611 59.098 487.939 58.792C488.279 58.486 488.449 58.061 488.449 57.517C488.449 57.0523 488.296 56.6897 487.99 56.429C487.684 56.157 487.276 56.021 486.766 56.021C486.324 56.021 485.922 56.106 485.559 56.276C485.197 56.4347 484.834 56.684 484.471 57.024L483.366 55.817C484.398 54.8423 485.593 54.355 486.953 54.355ZM493.358 63.501C493.744 63.501 494.072 63.637 494.344 63.909C494.616 64.1697 494.752 64.4927 494.752 64.878C494.752 65.252 494.616 65.575 494.344 65.847C494.072 66.119 493.744 66.255 493.358 66.255C492.984 66.255 492.661 66.119 492.389 65.847C492.129 65.575 491.998 65.252 491.998 64.878C491.998 64.4927 492.129 64.1697 492.389 63.909C492.65 63.637 492.973 63.501 493.358 63.501ZM499.04 54.355C499.811 54.355 500.474 54.4967 501.029 54.78C501.596 55.0633 502.027 55.4487 502.321 55.936C502.616 56.4233 502.763 56.9673 502.763 57.568C502.763 58.214 502.622 58.8373 502.338 59.438C502.066 60.0273 501.607 60.6847 500.961 61.41C500.315 62.1353 499.369 63.093 498.122 64.283H503.018L502.78 66H495.657V64.402C497.108 62.9287 498.145 61.8407 498.768 61.138C499.403 60.424 499.851 59.8177 500.111 59.319C500.383 58.809 500.519 58.282 500.519 57.738C500.519 57.2167 500.366 56.8087 500.06 56.514C499.766 56.2193 499.369 56.072 498.87 56.072C498.428 56.072 498.037 56.1683 497.697 56.361C497.369 56.5423 497.023 56.8483 496.66 57.279L495.334 56.225C496.298 54.9783 497.533 54.355 499.04 54.355ZM507.217 54.355C507.976 54.355 508.628 54.4853 509.172 54.746C509.727 55.0067 510.141 55.358 510.413 55.8C510.696 56.242 510.838 56.7293 510.838 57.262C510.838 57.9533 510.639 58.5313 510.243 58.996C509.846 59.4493 509.302 59.7667 508.611 59.948C509.37 60.016 509.993 60.288 510.481 60.764C510.968 61.24 511.212 61.8973 511.212 62.736C511.212 63.3933 511.042 63.9883 510.702 64.521C510.373 65.0537 509.897 65.4787 509.274 65.796C508.65 66.102 507.914 66.255 507.064 66.255C505.5 66.255 504.264 65.7053 503.358 64.606L504.565 63.45C504.95 63.8353 505.33 64.1187 505.704 64.3C506.078 64.47 506.491 64.555 506.945 64.555C507.557 64.555 508.044 64.385 508.407 64.045C508.781 63.6937 508.968 63.2233 508.968 62.634C508.968 61.9767 508.792 61.5063 508.441 61.223C508.101 60.9397 507.591 60.798 506.911 60.798H506.01L506.265 59.251H506.877C507.432 59.251 507.874 59.098 508.203 58.792C508.543 58.486 508.713 58.061 508.713 57.517C508.713 57.0523 508.56 56.6897 508.254 56.429C507.948 56.157 507.54 56.021 507.03 56.021C506.588 56.021 506.185 56.106 505.823 56.276C505.46 56.4347 505.097 56.684 504.735 57.024L503.63 55.817C504.661 54.8423 505.857 54.355 507.217 54.355Z" fill="#262626"></path> <rect y="97" width="261" height="170" rx="12" fill="white"></rect> <path d="M20.004 121.98C21.1613 121.98 22.062 122.227 22.706 122.722C23.3593 123.217 23.686 123.949 23.686 124.92C23.686 125.984 23.35 126.763 22.678 127.258C22.0153 127.753 21.1053 128 19.948 128H17.4V118.354H22.65L22.482 119.446H18.73V121.98H20.004ZM20.06 126.936C20.7693 126.936 21.3153 126.791 21.698 126.502C22.0807 126.213 22.272 125.695 22.272 124.948C22.272 124.257 22.0807 123.763 21.698 123.464C21.3153 123.165 20.7553 123.016 20.018 123.016H18.73V126.936H20.06ZM28.5454 120.454C29.4881 120.454 30.1788 120.79 30.6174 121.462C31.0561 122.134 31.2754 123.081 31.2754 124.304C31.2754 125.461 31.0234 126.395 30.5194 127.104C30.0154 127.813 29.3014 128.168 28.3774 128.168C27.5561 128.168 26.9121 127.888 26.4454 127.328V130.828L25.1574 130.982V120.622H26.2634L26.3614 121.616C26.6321 121.243 26.9588 120.958 27.3414 120.762C27.7241 120.557 28.1254 120.454 28.5454 120.454ZM28.0694 127.118C29.2828 127.118 29.8894 126.18 29.8894 124.304C29.8894 122.419 29.3341 121.476 28.2234 121.476C27.8594 121.476 27.5281 121.583 27.2294 121.798C26.9308 122.013 26.6694 122.288 26.4454 122.624V126.222C26.6321 126.511 26.8654 126.735 27.1454 126.894C27.4254 127.043 27.7334 127.118 28.0694 127.118ZM38.7619 124.094C38.7619 124.309 38.7526 124.528 38.7339 124.752H34.0299C34.0859 125.564 34.2913 126.161 34.6459 126.544C35.0006 126.927 35.4579 127.118 36.0179 127.118C36.3726 127.118 36.6993 127.067 36.9979 126.964C37.2966 126.861 37.6093 126.698 37.9359 126.474L38.4959 127.244C37.7119 127.86 36.8533 128.168 35.9199 128.168C34.8933 128.168 34.0906 127.832 33.5119 127.16C32.9426 126.488 32.6579 125.564 32.6579 124.388C32.6579 123.623 32.7793 122.946 33.0219 122.358C33.2739 121.761 33.6286 121.294 34.0859 120.958C34.5526 120.622 35.0986 120.454 35.7239 120.454C36.7039 120.454 37.4553 120.776 37.9779 121.42C38.5006 122.064 38.7619 122.955 38.7619 124.094ZM37.4879 123.716C37.4879 122.988 37.3433 122.433 37.0539 122.05C36.7646 121.667 36.3306 121.476 35.7519 121.476C34.6973 121.476 34.1233 122.251 34.0299 123.8H37.4879V123.716ZM44.8928 128V124.752H41.8268V128H40.5388V120.622H41.8268V123.716H44.8928V120.622H46.1808V128H44.8928ZM54.4797 126.964V130.1H53.4297L53.2197 128H48.4877L48.2777 130.1H47.2277V126.964H47.7457C47.9697 126.815 48.147 126.647 48.2777 126.46C48.4083 126.264 48.525 125.928 48.6277 125.452C48.7397 124.976 48.8283 124.281 48.8937 123.366L49.0897 120.622H53.7097V126.964H54.4797ZM52.4217 121.644H50.2517L50.1397 123.198C50.0743 124.066 49.9997 124.733 49.9157 125.2C49.8317 125.667 49.7103 126.026 49.5517 126.278C49.4023 126.53 49.183 126.759 48.8937 126.964H52.4217V121.644Z" fill="#262626"></path> <path d="M24.942 230.753V242.5H22.698V238.097H20.845L18.754 242.5H16.255L18.788 237.689C17.3487 237.1 16.629 236.017 16.629 234.442C16.629 233.241 17.02 232.328 17.802 231.705C18.5953 231.07 19.7627 230.753 21.304 230.753H24.942ZM22.698 236.448V232.385H21.423C20.5843 232.385 19.9723 232.561 19.587 232.912C19.2017 233.252 19.009 233.773 19.009 234.476C19.009 235.122 19.1903 235.615 19.553 235.955C19.927 236.284 20.4257 236.448 21.049 236.448H22.698ZM32.5142 242.5V238.743H29.4712V242.5H27.2952V233.507H29.4712V237.094H32.5142V233.507H34.6902V242.5H32.5142ZM44.7179 240.851V245.186H43.1369L42.8479 242.5H37.5269L37.2379 245.186H35.6569V240.851H36.2519C36.4899 240.692 36.6769 240.5 36.8129 240.273C36.9602 240.035 37.0906 239.638 37.2039 239.083C37.3286 238.528 37.4306 237.729 37.5099 236.686L37.7479 233.507H43.7829V240.851H44.7179ZM41.6919 235.037H39.6519L39.5329 236.465C39.4536 237.44 39.3572 238.205 39.2439 238.76C39.1306 239.315 38.9776 239.752 38.7849 240.069C38.5922 240.375 38.3259 240.636 37.9859 240.851H41.6919V235.037ZM53.4004 237.791C53.4004 237.904 53.3834 238.199 53.3494 238.675H47.7054C47.7734 239.548 48.0001 240.171 48.3854 240.545C48.7707 240.919 49.2807 241.106 49.9154 241.106C50.3121 241.106 50.6861 241.044 51.0374 240.919C51.3887 240.783 51.7627 240.579 52.1594 240.307L53.0604 241.548C52.0631 242.353 50.9524 242.755 49.7284 242.755C48.3571 242.755 47.2974 242.336 46.5494 241.497C45.8127 240.658 45.4444 239.514 45.4444 238.063C45.4444 237.145 45.6031 236.323 45.9204 235.598C46.2377 234.861 46.6967 234.289 47.2974 233.881C47.8981 233.462 48.6121 233.252 49.4394 233.252C50.6974 233.252 51.6721 233.654 52.3634 234.459C53.0547 235.252 53.4004 236.363 53.4004 237.791ZM51.2414 237.162C51.2414 235.587 50.6577 234.799 49.4904 234.799C48.9577 234.799 48.5384 234.997 48.2324 235.394C47.9377 235.779 47.7621 236.403 47.7054 237.264H51.2414V237.162ZM62.4755 233.507L59.9425 237.672L62.7475 242.5H60.3505L58.1575 238.505H57.1885V242.5H55.0125V233.507H57.1885V237.06H58.2085L60.2995 233.507H62.4755ZM67.2085 233.252C67.7978 233.252 68.3248 233.337 68.7895 233.507C69.2655 233.677 69.7132 233.943 70.1325 234.306L69.1635 235.615C68.8575 235.388 68.5628 235.224 68.2795 235.122C67.9962 235.02 67.6845 234.969 67.3445 234.969C65.9958 234.969 65.3215 235.995 65.3215 238.046C65.3215 239.089 65.4972 239.842 65.8485 240.307C66.1998 240.76 66.6985 240.987 67.3445 240.987C67.6618 240.987 67.9508 240.936 68.2115 240.834C68.4835 240.732 68.8008 240.568 69.1635 240.341L70.1325 241.718C69.2825 242.409 68.3135 242.755 67.2255 242.755C66.3642 242.755 65.6162 242.568 64.9815 242.194C64.3468 241.809 63.8595 241.265 63.5195 240.562C63.1795 239.859 63.0095 239.032 63.0095 238.08C63.0095 237.128 63.1795 236.289 63.5195 235.564C63.8595 234.827 64.3468 234.261 64.9815 233.864C65.6162 233.456 66.3585 233.252 67.2085 233.252ZM86.4787 242.5H84.2857L83.9797 237.587C83.8777 235.83 83.8267 234.436 83.8267 233.405V232.793L81.6847 241.225H79.5597L77.2817 232.776C77.3043 233.524 77.3157 234.091 77.3157 234.476C77.3157 235.507 77.2817 236.567 77.2137 237.655L76.9247 242.5H74.7487L75.6837 230.753H78.5737L80.6647 238.981L82.6367 230.753H85.5607L86.4787 242.5ZM94.8805 240.12C94.8805 240.471 94.9315 240.732 95.0335 240.902C95.1469 241.061 95.3225 241.185 95.5605 241.276L95.1015 242.721C94.5915 242.676 94.1722 242.551 93.8435 242.347C93.5262 242.143 93.2825 241.831 93.1125 241.412C92.8065 241.865 92.4212 242.205 91.9565 242.432C91.5032 242.647 90.9932 242.755 90.4265 242.755C89.5312 242.755 88.8229 242.5 88.3015 241.99C87.7802 241.48 87.5195 240.811 87.5195 239.984C87.5195 239.009 87.8709 238.267 88.5735 237.757C89.2875 237.236 90.3019 236.975 91.6165 236.975H92.7385V236.465C92.7385 235.887 92.6025 235.485 92.3305 235.258C92.0699 235.02 91.6449 234.901 91.0555 234.901C90.3982 234.901 89.6049 235.06 88.6755 235.377L88.1655 233.898C89.2875 233.467 90.3755 233.252 91.4295 233.252C93.7302 233.252 94.8805 234.283 94.8805 236.346V240.12ZM91.0045 241.174C91.7412 241.174 92.3192 240.806 92.7385 240.069V238.25H91.8375C90.4322 238.25 89.7295 238.771 89.7295 239.814C89.7295 240.245 89.8372 240.579 90.0525 240.817C90.2679 241.055 90.5852 241.174 91.0045 241.174ZM101.832 233.252C102.965 233.252 103.804 233.666 104.348 234.493C104.892 235.32 105.164 236.482 105.164 237.978C105.164 238.907 105.022 239.735 104.739 240.46C104.467 241.174 104.059 241.735 103.515 242.143C102.982 242.551 102.347 242.755 101.611 242.755C100.659 242.755 99.9051 242.426 99.3498 241.769V245.968L97.1738 246.206V233.507H99.0778L99.1968 234.612C99.5481 234.159 99.9505 233.819 100.404 233.592C100.857 233.365 101.333 233.252 101.832 233.252ZM100.999 241.089C102.257 241.089 102.886 240.058 102.886 237.995C102.886 236.896 102.744 236.102 102.461 235.615C102.177 235.128 101.752 234.884 101.186 234.884C100.823 234.884 100.483 234.997 100.166 235.224C99.8485 235.439 99.5765 235.734 99.3498 236.108V240.154C99.7691 240.777 100.319 241.089 100.999 241.089ZM114.424 233.507L111.891 237.672L114.696 242.5H112.299L110.106 238.505H109.137V242.5H106.961V233.507H109.137V237.06H110.157L112.248 233.507H114.424ZM122.914 237.791C122.914 237.904 122.897 238.199 122.863 238.675H117.219C117.287 239.548 117.513 240.171 117.899 240.545C118.284 240.919 118.794 241.106 119.429 241.106C119.825 241.106 120.199 241.044 120.551 240.919C120.902 240.783 121.276 240.579 121.673 240.307L122.574 241.548C121.576 242.353 120.466 242.755 119.242 242.755C117.87 242.755 116.811 242.336 116.063 241.497C115.326 240.658 114.958 239.514 114.958 238.063C114.958 237.145 115.116 236.323 115.434 235.598C115.751 234.861 116.21 234.289 116.811 233.881C117.411 233.462 118.125 233.252 118.953 233.252C120.211 233.252 121.185 233.654 121.877 234.459C122.568 235.252 122.914 236.363 122.914 237.791ZM120.755 237.162C120.755 235.587 120.171 234.799 119.004 234.799C118.471 234.799 118.052 234.997 117.746 235.394C117.451 235.779 117.275 236.403 117.219 237.264H120.755V237.162ZM130.707 233.507L130.435 235.173H127.8V242.5H125.624V235.173H122.836V233.507H130.707Z" fill="#262626"></path> <path d="M230 251C238.3 251 245 244.3 245 236C245 227.7 238.3 221 230 221C221.7 221 215 227.7 215 236C214.9 244.3 221.7 251 230 251Z" fill="#FED42B"></path> <mask id="mask0_326_2995" style="mask-type:luminance" maskUnits="userSpaceOnUse" x="214" y="221" width="31" height="30"> <path d="M230 251C238.3 251 245 244.3 245 236C245 227.7 238.3 221 230 221C221.7 221 215 227.7 215 236C214.9 244.3 221.7 251 230 251Z" fill="white"></path> </mask> <g mask="url(#mask0_326_2995)"> <path d="M222.6 229.2L209.4 246.5L212.9 250.5L222.7 237.5L221.7 244.6L227.2 246.5L233.9 235.8C233.6 237.8 233.1 242.4 237.5 243.8C244.4 245.9 250.4 233.5 253.2 227.2L249.2 225.1C246.1 231.6 241.3 238.8 239.4 238.3C237.5 237.8 239.2 231.7 240.3 227.8V227.7L234.2 225.6L226.9 237.5L227.9 231L222.6 229.2Z" fill="black"></path> </g> <rect x="273" y="97" width="261" height="170" rx="12" fill="white"></rect> <path d="M293.004 121.98C294.161 121.98 295.062 122.227 295.706 122.722C296.359 123.217 296.686 123.949 296.686 124.92C296.686 125.984 296.35 126.763 295.678 127.258C295.015 127.753 294.105 128 292.948 128H290.4V118.354H295.65L295.482 119.446H291.73V121.98H293.004ZM293.06 126.936C293.769 126.936 294.315 126.791 294.698 126.502C295.081 126.213 295.272 125.695 295.272 124.948C295.272 124.257 295.081 123.763 294.698 123.464C294.315 123.165 293.755 123.016 293.018 123.016H291.73V126.936H293.06ZM303.855 120.454C304.499 120.454 305.059 120.613 305.535 120.93C306.011 121.247 306.375 121.695 306.627 122.274C306.889 122.853 307.019 123.529 307.019 124.304C307.019 125.032 306.893 125.69 306.641 126.278C306.399 126.857 306.035 127.319 305.549 127.664C305.073 128 304.504 128.168 303.841 128.168C302.945 128.168 302.227 127.855 301.685 127.23C301.144 126.595 300.836 125.769 300.761 124.752H299.445V128H298.157V120.622H299.445V123.716H300.775C300.878 122.755 301.2 121.971 301.741 121.364C302.292 120.757 302.997 120.454 303.855 120.454ZM303.841 127.132C304.476 127.132 304.933 126.894 305.213 126.418C305.493 125.942 305.633 125.237 305.633 124.304C305.633 123.408 305.479 122.717 305.171 122.232C304.863 121.747 304.425 121.504 303.855 121.504C302.67 121.504 302.077 122.442 302.077 124.318C302.077 125.214 302.227 125.909 302.525 126.404C302.824 126.889 303.263 127.132 303.841 127.132ZM314.655 126.964V130.1H313.605L313.395 128H308.663L308.453 130.1H307.403V126.964H307.921C308.145 126.815 308.322 126.647 308.453 126.46C308.584 126.264 308.7 125.928 308.803 125.452C308.915 124.976 309.004 124.281 309.069 123.366L309.265 120.622H313.885V126.964H314.655ZM312.597 121.644H310.427L310.315 123.198C310.25 124.066 310.175 124.733 310.091 125.2C310.007 125.667 309.886 126.026 309.727 126.278C309.578 126.53 309.358 126.759 309.069 126.964H312.597V121.644ZM324.45 120.622L322.602 124.08L324.716 128H323.302L321.552 124.654H320.572V128H319.34V124.654H318.374L316.61 128H315.21L317.324 124.08L315.476 120.622H316.82L318.36 123.646H319.34V120.622H320.572V123.646H321.566L323.12 120.622H324.45ZM331.491 124.094C331.491 124.309 331.482 124.528 331.463 124.752H326.759C326.815 125.564 327.02 126.161 327.375 126.544C327.73 126.927 328.187 127.118 328.747 127.118C329.102 127.118 329.428 127.067 329.727 126.964C330.026 126.861 330.338 126.698 330.665 126.474L331.225 127.244C330.441 127.86 329.582 128.168 328.649 128.168C327.622 128.168 326.82 127.832 326.241 127.16C325.672 126.488 325.387 125.564 325.387 124.388C325.387 123.623 325.508 122.946 325.751 122.358C326.003 121.761 326.358 121.294 326.815 120.958C327.282 120.622 327.828 120.454 328.453 120.454C329.433 120.454 330.184 120.776 330.707 121.42C331.23 122.064 331.491 122.955 331.491 124.094ZM330.217 123.716C330.217 122.988 330.072 122.433 329.783 122.05C329.494 121.667 329.06 121.476 328.481 121.476C327.426 121.476 326.852 122.251 326.759 123.8H330.217V123.716ZM337.896 120.622L337.742 121.672H335.376V128H334.088V121.672H331.652V120.622H337.896Z" fill="#262626"></path> <path d="M298.23 228.502V246H294.954V231.856L291.054 234.222L289.598 231.986L295.292 228.502H298.23ZM312.223 228.19C313.402 228.19 314.416 228.407 315.265 228.84C316.132 229.273 316.79 229.863 317.241 230.608C317.692 231.353 317.917 232.185 317.917 233.104C317.917 234.092 317.7 235.045 317.267 235.964C316.851 236.865 316.149 237.871 315.161 238.98C314.173 240.089 312.726 241.554 310.819 243.374H318.307L317.943 246H307.049V243.556C309.268 241.303 310.854 239.639 311.807 238.564C312.778 237.472 313.462 236.545 313.861 235.782C314.277 235.002 314.485 234.196 314.485 233.364C314.485 232.567 314.251 231.943 313.783 231.492C313.332 231.041 312.726 230.816 311.963 230.816C311.287 230.816 310.689 230.963 310.169 231.258C309.666 231.535 309.138 232.003 308.583 232.662L306.555 231.05C308.028 229.143 309.918 228.19 312.223 228.19ZM330.237 230.972H323.685V235.314C324.551 234.881 325.435 234.664 326.337 234.664C327.307 234.664 328.174 234.889 328.937 235.34C329.699 235.791 330.289 236.441 330.705 237.29C331.138 238.139 331.355 239.145 331.355 240.306C331.355 241.502 331.086 242.559 330.549 243.478C330.011 244.397 329.249 245.116 328.261 245.636C327.273 246.139 326.129 246.39 324.829 246.39C323.667 246.39 322.636 246.182 321.735 245.766C320.851 245.333 320.045 244.717 319.317 243.92L321.215 242.152C322.22 243.261 323.399 243.816 324.751 243.816C325.739 243.816 326.51 243.513 327.065 242.906C327.637 242.299 327.923 241.433 327.923 240.306C327.923 238.139 326.987 237.056 325.115 237.056C324.716 237.056 324.343 237.108 323.997 237.212C323.65 237.299 323.269 237.446 322.853 237.654H320.487V228.502H330.627L330.237 230.972ZM339.247 228.19C341.292 228.19 342.843 228.97 343.901 230.53C344.975 232.09 345.513 234.335 345.513 237.264C345.513 240.211 344.975 242.473 343.901 244.05C342.843 245.61 341.292 246.39 339.247 246.39C337.201 246.39 335.641 245.61 334.567 244.05C333.509 242.473 332.981 240.211 332.981 237.264C332.981 234.335 333.509 232.09 334.567 230.53C335.641 228.97 337.201 228.19 339.247 228.19ZM339.247 230.712C338.259 230.712 337.539 231.215 337.089 232.22C336.638 233.208 336.413 234.889 336.413 237.264C336.413 239.656 336.638 241.355 337.089 242.36C337.539 243.365 338.259 243.868 339.247 243.868C340.235 243.868 340.954 243.374 341.405 242.386C341.855 241.381 342.081 239.673 342.081 237.264C342.081 234.872 341.855 233.182 341.405 232.194C340.954 231.206 340.235 230.712 339.247 230.712ZM359.611 228.19C361.656 228.19 363.208 228.97 364.265 230.53C365.34 232.09 365.877 234.335 365.877 237.264C365.877 240.211 365.34 242.473 364.265 244.05C363.208 245.61 361.656 246.39 359.611 246.39C357.566 246.39 356.006 245.61 354.931 244.05C353.874 242.473 353.345 240.211 353.345 237.264C353.345 234.335 353.874 232.09 354.931 230.53C356.006 228.97 357.566 228.19 359.611 228.19ZM359.611 230.712C358.623 230.712 357.904 231.215 357.453 232.22C357.002 233.208 356.777 234.889 356.777 237.264C356.777 239.656 357.002 241.355 357.453 242.36C357.904 243.365 358.623 243.868 359.611 243.868C360.599 243.868 361.318 243.374 361.769 242.386C362.22 241.381 362.445 239.673 362.445 237.264C362.445 234.872 362.22 233.182 361.769 232.194C361.318 231.206 360.599 230.712 359.611 230.712ZM373.995 228.19C376.041 228.19 377.592 228.97 378.649 230.53C379.724 232.09 380.261 234.335 380.261 237.264C380.261 240.211 379.724 242.473 378.649 244.05C377.592 245.61 376.041 246.39 373.995 246.39C371.95 246.39 370.39 245.61 369.315 244.05C368.258 242.473 367.729 240.211 367.729 237.264C367.729 234.335 368.258 232.09 369.315 230.53C370.39 228.97 371.95 228.19 373.995 228.19ZM373.995 230.712C373.007 230.712 372.288 231.215 371.837 232.22C371.387 233.208 371.161 234.889 371.161 237.264C371.161 239.656 371.387 241.355 371.837 242.36C372.288 243.365 373.007 243.868 373.995 243.868C374.983 243.868 375.703 243.374 376.153 242.386C376.604 241.381 376.829 239.673 376.829 237.264C376.829 234.872 376.604 233.182 376.153 232.194C375.703 231.206 374.983 230.712 373.995 230.712ZM388.38 228.19C390.425 228.19 391.976 228.97 393.034 230.53C394.108 232.09 394.646 234.335 394.646 237.264C394.646 240.211 394.108 242.473 393.034 244.05C391.976 245.61 390.425 246.39 388.38 246.39C386.334 246.39 384.774 245.61 383.7 244.05C382.642 242.473 382.114 240.211 382.114 237.264C382.114 234.335 382.642 232.09 383.7 230.53C384.774 228.97 386.334 228.19 388.38 228.19ZM388.38 230.712C387.392 230.712 386.672 231.215 386.222 232.22C385.771 233.208 385.546 234.889 385.546 237.264C385.546 239.656 385.771 241.355 386.222 242.36C386.672 243.365 387.392 243.868 388.38 243.868C389.368 243.868 390.087 243.374 390.538 242.386C390.988 241.381 391.214 239.673 391.214 237.264C391.214 234.872 390.988 233.182 390.538 232.194C390.087 231.206 389.368 230.712 388.38 230.712ZM407.418 241.268H411.76V243.166H407.418V246H404.116V243.166H402.27V241.268H404.116V239.552H402.27V237.394H404.116V228.502H408.692C410.893 228.502 412.609 228.979 413.84 229.932C415.07 230.868 415.686 232.229 415.686 234.014C415.686 235.903 415.062 237.299 413.814 238.2C412.566 239.101 410.876 239.552 408.744 239.552H407.418V241.268ZM407.418 230.894V237.394H408.666C409.827 237.394 410.72 237.134 411.344 236.614C411.968 236.094 412.28 235.236 412.28 234.04C412.28 231.943 411.075 230.894 408.666 230.894H407.418Z" fill="#262626"></path> <g clip-path="url(#clip0_326_2995)"> <rect x="490" y="223" width="28" height="28" rx="6" fill="#F9D458"></rect> <path d="M504 231V243" stroke="#333333" stroke-width="2.5" stroke-linecap="round" stroke-linejoin="round"></path> <path d="M498 237H510" stroke="#333333" stroke-width="2.5" stroke-linecap="round" stroke-linejoin="round"></path> </g> <defs> <clipPath id="clip0_326_2995"> <rect x="490" y="223" width="28" height="28" rx="6" fill="white"></rect> </clipPath> </defs> </svg> 