<?xml version="1.0" encoding="UTF-8"?> <svg xmlns="http://www.w3.org/2000/svg" width="522" height="280" viewBox="0 0 522 280" fill="none"> <g clip-path="url(#clip0_176_1783)"> <path d="M524 -19H-2V299H524V-19Z" fill="#F5F4F0"></path> <path d="M177.518 259.294C177.518 259.294 118.535 281.793 67.5636 244.083C34.278 219.459 48.527 166.403 56.1558 150.044C63.7628 133.735 78.4305 117.969 102.877 106.597C136.139 91.128 157.505 96.1474 157.505 96.1474C157.505 96.1474 156.402 92.7685 157.505 87.8525C158.609 82.9364 159.993 82.7813 159.993 82.7813C159.993 82.7813 140.559 71.1972 148.066 49.849C156.817 24.9613 172.812 14.1307 218.998 19.6616C260.608 24.6457 279.844 97.0017 317.564 83.524C329.23 79.3561 369.304 54.3569 376.979 48.0044C384.657 41.6519 414.324 20.2085 439.464 36.404C464.392 52.4634 459.463 127.736 456.875 142.963C445.6 209.285 437.471 244.576 415.542 254.204C394.727 263.345 351.173 261.408 277.843 261.381C206.91 261.359 177.518 259.294 177.518 259.294Z" fill="white"></path> <path d="M360.009 231.789C360.009 231.789 360.003 212.568 360.003 195.238C360.003 177.908 363.236 137.614 363.236 137.614C363.347 134.387 365.446 131.569 368.505 130.543L400.333 117.955C405.434 116.244 410.678 120.137 410.518 125.518C410.518 125.518 407.772 179.565 407.772 198.157C407.772 216.75 407.378 232.281 407.378 232.281C407.255 236.463 403.832 239.79 399.651 239.79H367.735C363.361 239.79 359.859 236.164 360.009 231.789Z" fill="#FFDE3F"></path> <path d="M305.612 231.789C305.612 231.789 305.607 225.156 305.607 207.824C305.607 190.491 308.839 163.805 308.839 163.805C308.951 160.578 311.05 157.76 314.108 156.734L345.937 144.146C351.037 142.435 356.281 146.328 356.121 151.709C356.121 151.709 353.375 187.164 353.375 205.756C353.375 224.348 352.981 232.279 352.981 232.279C352.858 236.46 349.436 239.787 345.254 239.787H313.339C308.964 239.79 305.462 236.164 305.612 231.789Z" fill="#FFDE3F"></path> <path d="M250.495 231.789L252.678 190.766C252.789 187.539 254.888 184.721 257.947 183.695L289.775 171.107C294.876 169.396 300.12 173.289 299.96 178.67L297.866 232.284C297.744 236.466 294.321 239.793 290.14 239.793H258.221C253.847 239.79 250.345 236.164 250.495 231.789Z" fill="#FFDE3F"></path> <path d="M195.378 231.789L197.3 217.359C197.411 214.133 199.51 211.314 202.569 210.288L234.397 197.7C239.497 195.989 244.742 199.882 244.581 205.264L242.749 232.281C242.627 236.463 239.204 239.79 235.022 239.79H203.104C198.73 239.79 195.228 236.164 195.378 231.789Z" fill="#FFDE3F"></path> <path d="M177.63 106.66C177.63 106.66 109.462 111.208 99.789 172.105C93.2422 213.338 135.486 232.023 164.272 232.023C198.357 232.02 224.177 222.384 260.995 195.674C297.842 168.941 298.763 139.845 298.763 139.845" stroke="#333333" stroke-miterlimit="10"></path> <path d="M297.741 146.159C297.741 146.159 292.828 145.58 289.041 141.379C285.254 137.179 284.843 130.318 290.474 125.505C296.105 120.692 312.376 113.317 322.92 106.66C333.463 100.002 357.823 82.18 361.61 80.2348C365.397 78.2896 370.106 82.2834 367.752 88.1217C365.397 93.9601 360.251 98.6666 355.776 103.485C351.678 107.895 340.219 115.877 336.943 114.955C333.667 114.032 344.504 107.772 348.405 111.676C352.345 115.618 352.141 125.709 348.15 131.955C344.158 138.202 339.961 141.281 334.333 141.328C328.091 141.379 336.687 125.606 338.017 126.835C339.346 128.065 333.974 139.535 330.494 142.095C327.014 144.655 324.967 144.247 322.716 144.04" stroke="#333333" stroke-miterlimit="10"></path> <path d="M357.616 118.644C357.616 118.644 376.982 107.002 402.753 84.5386C427.04 63.3673 435.095 48.0532 435.095 48.0532" stroke="#333333" stroke-miterlimit="10"></path> <path d="M442.178 64.7385C441.87 63.6639 434.962 47.9146 434.962 47.9146" stroke="#333333" stroke-miterlimit="10"></path> <path d="M417.07 48.8858C418.171 48.7008 435.351 48.1567 435.351 48.1567" stroke="#333333" stroke-miterlimit="10"></path> <path d="M198.357 108.812C202.598 108.812 206.035 105.372 206.035 101.129C206.035 96.8855 202.598 93.4458 198.357 93.4458C194.117 93.4458 190.68 96.8855 190.68 101.129C190.68 105.372 194.117 108.812 198.357 108.812Z" fill="#FF3C00"></path> <path d="M188.07 99.8989C188.07 99.8989 192.368 126.324 215.858 126.324C235.05 126.324 235.664 100.666 235.664 92.0637C235.664 83.4613 232.594 73.4741 232.594 73.4741" stroke="#333333" stroke-miterlimit="10"></path> <path d="M190.206 107.136C190.206 107.136 185.666 111.268 180.549 105.223C175.433 99.1807 177.48 90.1675 181.675 90.1675C185.873 90.1675 186.792 93.9572 186.792 93.9572" stroke="#333333" stroke-miterlimit="10"></path> <path d="M199.483 102.562C199.483 102.562 200.712 109.505 207.568 112.947C214.425 116.388 219.852 112.947 219.852 112.947" stroke="#333333" stroke-miterlimit="10"></path> <path d="M214.444 104.393C214.444 104.393 216.954 105.762 220.423 104.94C223.93 104.108 224.629 102.25 224.629 102.25C224.629 102.25 221.896 99.9969 220.034 95.3774C218.397 91.3183 218.052 85.3276 218.052 85.3276" stroke="#333333" stroke-miterlimit="10"></path> <path d="M219.852 82.1936C219.852 82.1936 221.842 79.1711 226.328 78.6542C230.814 78.1373 232.885 80.4252 232.885 80.4252" stroke="#333333" stroke-miterlimit="10"></path> <path d="M196.982 84.7129C196.982 84.7129 198.972 81.6904 203.458 81.1734C207.944 80.6565 210.015 82.9445 210.015 82.9445" stroke="#333333" stroke-miterlimit="10"></path> <path d="M206.032 75.7487C206.032 75.7487 210.448 79.7751 217.639 77.547C224.83 75.3189 226.431 69.72 222.407 66.6349C218.117 63.3457 222.288 69.943 224.928 71.3142C227.568 72.6854 231.423 75.3107 240.324 73.4743C249.225 71.638 252.822 64.9563 250.595 58.6174C248.369 52.2785 241.523 51.5085 235.188 55.875C229.153 60.0375 232.853 59.5995 234.419 57.8447C236.428 55.5894 245.683 48.0806 239.47 40.9718C233.258 33.863 217.911 32.0647 213.191 36.8611C209.295 40.8195 207.968 46.4537 207.968 46.4537C207.968 46.4537 209.939 37.4297 202.745 35.1471C195.726 32.919 191.275 34.6329 186.482 40.0305C181.689 45.4281 180.182 51.9357 183.864 56.4763C185.794 58.8568 189.135 58.6174 186.653 56.8191C184.171 55.0208 178.861 53.6714 175.011 56.7347C171.673 59.39 171.417 63.7592 173.812 65.9003C176.21 68.0414 182.458 65.6446 182.458 65.6446C182.458 65.6446 172.448 67.5299 172.787 77.3783C173.127 87.2295 181.175 86.7153 181.175 86.7153" stroke="#333333" stroke-miterlimit="10"></path> <path d="M238.274 106.116C238.274 106.116 245.046 105.786 255.829 106.66C264.684 107.378 271.187 109.456 272.489 109.791" stroke="#333333" stroke-miterlimit="10"></path> <path d="M459.512 22.4202V32.1734" stroke="#333333" stroke-miterlimit="10"></path> <path d="M459.512 36.189V45.9422" stroke="#333333" stroke-miterlimit="10"></path> <path d="M461.584 34.0969H468.604" stroke="#333333" stroke-miterlimit="10"></path> <path d="M450.062 34.0969H457.082" stroke="#333333" stroke-miterlimit="10"></path> <path d="M394.931 49.5361V57.268" stroke="#333333" stroke-miterlimit="10"></path> <path d="M394.931 60.4509V68.18" stroke="#333333" stroke-miterlimit="10"></path> <path d="M396.573 58.7942H402.136" stroke="#333333" stroke-miterlimit="10"></path> <path d="M387.441 58.7942H393.006" stroke="#333333" stroke-miterlimit="10"></path> <path d="M420.251 257.4L426.21 86.718" stroke="#333333" stroke-miterlimit="10"></path> <path d="M432.673 250.444H155.241C149.099 250.444 143.05 248.896 137.688 245.898C126.65 239.728 113.323 226.677 125.405 201.294C136.177 178.665 164.27 155.986 192.83 141.524C217.098 129.232 239.579 119.727 257.006 115.523C285.564 108.632 293.054 123.587 293.054 123.587" stroke="#333333" stroke-miterlimit="10"></path> </g> <defs> <clipPath id="clip0_176_1783"> <rect width="522" height="280" rx="16" fill="white"></rect> </clipPath> </defs> </svg> 