<?xml version="1.0" encoding="UTF-8"?> <svg xmlns="http://www.w3.org/2000/svg" width="80" height="36" viewBox="0 0 80 36" fill="none"> <rect width="36" height="36" rx="8" fill="#333333"></rect> <path d="M14.78 25L14 21.9H9.66L8.88 25H5.82L10.08 11.16H13.66L17.9 25H14.78ZM10.22 19.72H13.44L11.82 13.34L10.22 19.72ZM28.2988 10.18V25H25.7988L25.6388 23.7C24.8921 24.78 23.8788 25.32 22.5988 25.32C21.2921 25.32 20.2921 24.82 19.5988 23.82C18.9188 22.8067 18.5788 21.4333 18.5788 19.7C18.5788 18.6067 18.7521 17.64 19.0988 16.8C19.4588 15.9467 19.9654 15.28 20.6188 14.8C21.2721 14.32 22.0254 14.08 22.8788 14.08C23.8654 14.08 24.7254 14.4333 25.4588 15.14V9.86L28.2988 10.18ZM23.4388 23.2C23.8521 23.2 24.2188 23.1 24.5388 22.9C24.8588 22.6867 25.1654 22.36 25.4588 21.92V17.18C25.1788 16.8467 24.8921 16.6 24.5988 16.44C24.3188 16.2667 23.9921 16.18 23.6188 16.18C22.9654 16.18 22.4521 16.4667 22.0788 17.04C21.7188 17.6133 21.5388 18.5 21.5388 19.7C21.5388 20.9667 21.6988 21.8667 22.0188 22.4C22.3521 22.9333 22.8254 23.2 23.4388 23.2Z" fill="white"></path> <path d="M53.5 11.18L53.22 13.28H49.62V25H46.96V13.28H43.24V11.18H53.5ZM61.9694 22.2C61.9694 22.6133 62.0294 22.92 62.1494 23.12C62.2827 23.3067 62.4894 23.4533 62.7694 23.56L62.2294 25.26C61.6294 25.2067 61.136 25.06 60.7494 24.82C60.376 24.58 60.0894 24.2133 59.8894 23.72C59.5294 24.2533 59.076 24.6533 58.5294 24.92C57.996 25.1733 57.396 25.3 56.7294 25.3C55.676 25.3 54.8427 25 54.2294 24.4C53.616 23.8 53.3094 23.0133 53.3094 22.04C53.3094 20.8933 53.7227 20.02 54.5494 19.42C55.3894 18.8067 56.5827 18.5 58.1294 18.5H59.4494V17.9C59.4494 17.22 59.2894 16.7467 58.9694 16.48C58.6627 16.2 58.1627 16.06 57.4694 16.06C56.696 16.06 55.7627 16.2467 54.6694 16.62L54.0694 14.88C55.3894 14.3733 56.6694 14.12 57.9094 14.12C60.616 14.12 61.9694 15.3333 61.9694 17.76V22.2ZM57.4094 23.44C58.276 23.44 58.956 23.0067 59.4494 22.14V20H58.3894C56.736 20 55.9094 20.6133 55.9094 21.84C55.9094 22.3467 56.036 22.74 56.2894 23.02C56.5427 23.3 56.916 23.44 57.4094 23.44ZM70.0473 19.34L73.5873 25H70.6273L68.4473 20.8L66.2873 25H63.4673L66.9873 19.42L63.8273 14.42H66.7473L68.5473 18.02L70.3273 14.42H73.1073L70.0473 19.34ZM77.6273 14.42V25H75.0673V14.42H77.6273ZM76.3273 9.06C76.8073 9.06 77.194 9.21333 77.4873 9.52C77.794 9.81333 77.9473 10.18 77.9473 10.62C77.9473 11.06 77.794 11.4267 77.4873 11.72C77.194 12.0133 76.8073 12.16 76.3273 12.16C75.8607 12.16 75.474 12.0133 75.1673 11.72C74.874 11.4267 74.7273 11.06 74.7273 10.62C74.7273 10.18 74.874 9.81333 75.1673 9.52C75.474 9.21333 75.8607 9.06 76.3273 9.06Z" fill="#333333"></path> </svg> 