<?xml version="1.0" encoding="UTF-8"?> <svg xmlns="http://www.w3.org/2000/svg" width="740" height="350" viewBox="0 0 740 350" fill="none"> <rect x="-7" y="7" width="202.853" height="60.5434" rx="11" transform="matrix(-1 0 0 1 426.804 16)" fill="#484848" stroke="#484848" stroke-width="14"></rect> <rect width="12.7862" height="60.4253" transform="matrix(-1 0 0 1 434.666 23.3414)" fill="#484848"></rect> <rect width="12.7862" height="60.4253" transform="matrix(-1 0 0 1 388.285 43.6714)" fill="#484848"></rect> <rect width="12.7862" height="60.4253" transform="matrix(-1 0 0 1 284.376 43.6714)" fill="#484848"></rect> <rect width="179.518" height="60.4253" rx="6" transform="matrix(-1 0 0 1 421.88 23.3414)" fill="#ED716B"></rect> <rect width="12.7862" height="60.4253" transform="matrix(-1 0 0 1 242.362 23.3414)" fill="#484848"></rect> <path d="M443.766 127.787C443.794 127.787 443.794 127.787 443.823 127.815C443.879 127.843 443.936 127.843 443.964 127.871C443.992 127.871 443.992 127.871 443.992 127.871C458.72 135.173 471.325 142.091 481.834 148.653L483.105 154.927C482.596 155.396 482.201 155.983 481.947 156.718C481.523 157.542 481.213 158.446 480.987 159.417C480.648 160.823 480.479 162.376 480.507 164.11C480.535 164.403 480.535 164.697 480.535 165.019C480.846 167.306 481.495 169.124 482.483 170.502L482.512 170.531L484.008 172.874C484.206 173.134 484.404 173.399 484.658 173.608C485.307 174.134 486.126 174.399 487.114 174.427L487.481 176.217L368.042 171.44L350.209 107.971C365.637 108.677 379.998 110.083 393.308 112.167C410.702 114.883 427.519 120.078 443.766 127.787Z" fill="#484848"></path> <path d="M334.842 169.796L334.814 170.09L229.906 165.9L226.094 122.54C240.364 115.769 255.262 111.489 270.831 109.642H270.746C292.195 107.999 312.265 107.265 330.918 107.445L334.842 169.796Z" fill="#484848"></path> <path d="M652.369 206.441H690.296C693.548 209.254 696.457 212.715 699.004 216.793C699.709 218.024 700.048 219.492 699.964 221.22L699.709 228.55C700.528 228.725 701.319 228.934 702.081 229.194L707.367 231.188L667.972 227.731C667.605 227.172 667.21 226.619 666.814 226.06C666.306 225.298 665.798 224.535 665.261 223.801C661.98 219.08 658.592 214.477 655.113 209.965C654.859 209.61 654.577 209.259 654.294 208.909C653.639 208.079 653.018 207.26 652.369 206.441Z" fill="#EBEBEB"></path> <path d="M184.942 150.534H184.914C196.813 139.776 209.22 131.068 222.192 124.472L225.811 165.753L187.969 164.228C186.642 164.138 185.767 163.613 185.372 162.647C185.372 162.619 185.372 162.619 185.343 162.619L184.016 158.751C182.819 155.136 183.13 152.381 184.942 150.534Z" fill="#484848"></path> <path d="M436.984 113.629C438.141 113.336 439.356 113.076 440.598 112.839C440.909 112.782 441.219 112.72 441.53 112.664C441.84 112.601 442.095 112.455 442.292 112.251C473.832 126.087 508.483 144.706 546.212 168.125C536.488 167.278 528.04 164.81 520.834 160.767C520.128 160.36 519.422 159.914 518.716 159.479C494.806 143.441 471.325 129.724 448.261 118.288C448.261 118.288 448.261 118.288 448.233 118.288C444.528 116.56 440.773 115.007 436.984 113.629Z" fill="#484848"></path> <path d="M551.391 301.072H539.21C537.708 301.1 536.465 300.863 535.477 300.366C535.195 300.219 534.94 300.073 534.686 299.864C534.969 299.745 535.223 299.632 535.477 299.485C536.584 298.779 537.143 297.639 537.228 296.029L537.962 284.04C538.95 268.064 544.885 254.403 555.796 243.086C566.678 231.798 579.847 226.145 595.281 226.145C608.083 226.145 619.304 230.041 628.995 237.812C631.005 239.393 632.925 241.155 634.789 243.092C643.35 252.003 648.551 262.383 650.392 274.225C650.872 277.393 651.126 280.674 651.126 284.074V298.294C650.872 298.265 650.646 298.237 650.392 298.203C645.841 297.616 642.057 298.26 639.03 300.14C636.822 306.855 633.123 312.892 627.894 318.319C618.819 327.727 607.886 332.42 595.05 332.42C582.247 332.42 571.309 327.733 562.239 318.319C557.27 313.151 553.65 307.403 551.391 301.072ZM567.92 256.16C567.892 256.188 567.892 256.188 567.864 256.222C560.63 263.755 556.897 273.107 556.671 284.305C556.671 284.334 556.671 284.39 556.671 284.452V284.599C556.699 289.874 557.603 294.798 559.382 299.344C561.273 304.122 564.103 308.459 567.915 312.417C574.189 318.923 581.564 322.707 590.018 323.763C591.627 323.972 593.299 324.056 595.021 324.056C598.585 324.056 601.973 323.616 605.169 322.769C606.186 322.475 607.174 322.153 608.14 321.803C613.313 319.894 617.972 316.76 622.184 312.423C625.799 308.673 628.543 304.539 630.407 300.027C632.355 295.306 633.377 290.145 633.405 284.577C633.405 284.486 633.405 284.396 633.405 284.311C633.405 275.372 630.921 267.482 625.945 260.655C625.917 260.598 625.861 260.536 625.804 260.446C624.703 258.983 623.517 257.543 622.19 256.165C621.767 255.725 621.315 255.284 620.863 254.878C617.074 251.241 612.895 248.575 608.315 246.87C603.961 245.317 599.522 244.526 595.033 244.526C589.634 244.526 584.517 245.582 579.712 247.694C575.442 249.62 571.512 252.438 567.92 256.16Z" fill="#484848"></path> <path d="M567.869 256.222C567.898 256.188 567.898 256.188 567.926 256.16C571.518 252.438 575.442 249.62 579.712 247.689C584.517 245.577 589.634 244.521 595.033 244.521C599.528 244.521 603.961 245.311 608.315 246.864C612.895 248.564 617.074 251.235 620.863 254.872C621.315 255.284 621.767 255.719 622.19 256.16C623.517 257.538 624.703 258.972 625.804 260.44C625.861 260.531 625.917 260.587 625.946 260.649C630.921 267.477 633.406 275.366 633.406 284.305H556.671C556.897 273.101 560.63 263.75 567.869 256.222ZM585.189 253.494C585.105 253.522 584.992 253.551 584.907 253.585L587.533 261.203C589.877 260.384 592.367 259.972 595.05 259.972C596.913 259.972 598.698 260.175 600.392 260.559L603.046 252.907C600.533 252.229 597.873 251.907 595.078 251.907C591.577 251.907 588.273 252.438 585.189 253.494ZM576.289 269.736C576.544 269.385 576.826 269.03 577.108 268.68L572.303 262.202C569.959 264.783 568.09 267.567 566.734 270.588C565.181 273.988 564.278 277.591 563.99 281.437L571.76 281.64C572.19 277.207 573.686 273.22 576.289 269.736ZM593.446 271.577C592.909 271.667 592.486 271.927 592.147 272.311C591.802 272.689 591.605 273.135 591.554 273.689C591.554 273.717 591.554 273.717 591.526 273.745C591.469 274.389 591.639 274.976 592.006 275.473C592.345 275.914 592.768 276.179 593.276 276.32L593.615 276.382C593.7 276.382 593.785 276.382 593.869 276.411C593.954 276.382 594.039 276.382 594.123 276.382C594.152 276.382 594.152 276.382 594.152 276.382L594.321 276.354C594.886 276.236 595.366 275.942 595.733 275.473C596.1 274.976 596.269 274.389 596.185 273.745C596.185 273.717 596.185 273.717 596.185 273.689C596.128 273.135 595.931 272.689 595.592 272.311C595.253 271.927 594.829 271.667 594.293 271.577L594.123 271.548C594.039 271.548 593.954 271.548 593.869 271.548C593.785 271.548 593.7 271.548 593.615 271.548L593.446 271.577ZM590.786 270.583L590.842 270.611V270.583H590.786ZM586.663 277.941C586.07 277.619 585.477 277.591 584.856 277.794C584.263 277.997 583.812 278.382 583.501 278.997C583.36 279.262 583.303 279.556 583.275 279.844C583.247 280.166 583.275 280.516 583.388 280.872C583.586 281.487 583.953 281.956 584.517 282.25C585.11 282.572 585.703 282.634 586.296 282.425C586.918 282.216 587.369 281.809 587.68 281.194C587.878 280.753 587.962 280.285 587.934 279.844C587.906 279.697 587.878 279.522 587.821 279.347C587.618 278.703 587.228 278.235 586.663 277.941ZM582.789 276.36V276.326L582.761 276.36H582.789ZM617.153 261.406C616.955 261.197 616.729 260.965 616.503 260.762L611.698 267.24C615.594 271.311 617.802 276.151 618.31 281.691L626.171 281.572C625.635 273.807 622.608 267.064 617.153 261.406ZM596.891 270.583V270.73L596.947 270.583H596.891ZM602.882 277.794C602.261 277.585 601.668 277.613 601.075 277.941C600.51 278.235 600.115 278.703 599.917 279.347C599.861 279.522 599.833 279.697 599.805 279.844C599.776 280.285 599.861 280.753 600.059 281.194C600.143 281.369 600.228 281.516 600.341 281.663C600.623 282.013 600.99 282.278 601.442 282.425C602.035 282.628 602.628 282.572 603.227 282.25C603.537 282.103 603.791 281.871 603.989 281.606C604.159 281.403 604.271 281.137 604.356 280.872C604.469 280.522 604.497 280.166 604.469 279.844C604.441 279.55 604.384 279.257 604.243 278.997C603.927 278.382 603.475 277.997 602.882 277.794ZM604.972 276.36L604.944 276.326V276.36H604.972Z" fill="#EBEBEB"></path> <path d="M633.406 284.305L633.293 284.537L633.377 284.571H633.406C633.377 290.139 632.361 295.301 630.407 300.022C628.543 304.534 625.799 308.668 622.184 312.417C617.972 316.76 613.313 319.894 608.14 321.797C607.18 322.147 606.192 322.469 605.169 322.763C601.979 323.616 598.585 324.051 595.021 324.051C593.299 324.051 591.627 323.966 590.018 323.757C581.57 322.701 574.189 318.917 567.915 312.412C564.097 308.453 561.273 304.116 559.382 299.338C557.603 294.792 556.694 289.868 556.671 284.593L556.727 284.565H556.756L556.671 284.3H633.406V284.305ZM599.635 288.112C599.381 288.112 599.127 288.146 598.901 288.23C598.562 288.349 598.252 288.552 597.997 288.812C597.517 289.309 597.292 289.868 597.292 290.54C597.292 291.212 597.517 291.771 597.997 292.24C598.252 292.533 598.562 292.737 598.901 292.855C599.127 292.946 599.381 292.974 599.635 292.974C600.285 292.974 600.821 292.742 601.301 292.24C601.753 291.771 601.979 291.212 601.979 290.54C601.979 289.868 601.753 289.309 601.301 288.812C600.821 288.349 600.285 288.112 599.635 288.112ZM603.983 291.777L603.955 291.748V291.777H603.983ZM612.014 300.953C611.873 301.1 611.731 301.247 611.59 301.394C611.28 301.716 610.941 302.038 610.602 302.36C608.371 304.472 605.881 306.053 603.17 307.081L605.717 314.789C609.93 313.236 613.742 310.684 617.164 307.137C618.152 306.109 619.056 305.053 619.875 303.969C620.637 302.941 621.343 301.919 621.992 300.829C622.472 299.982 622.924 299.129 623.32 298.248C623.376 298.13 623.433 297.983 623.517 297.836L615.86 295.43C614.866 297.407 613.567 299.225 612.014 300.953ZM573.912 294.826L566.367 297.17C567.892 300.778 570.128 304.116 573.037 307.137C577.871 312.152 583.467 315.168 589.877 316.195L589.707 307.9C585.918 307.047 582.501 305.2 579.475 302.36C579.164 302.038 578.825 301.716 578.514 301.388C578.034 300.891 577.611 300.423 577.187 299.926C576.877 299.542 576.566 299.135 576.284 298.751C575.352 297.497 574.567 296.204 573.912 294.826ZM588.103 288.112C587.454 288.112 586.918 288.349 586.438 288.818C585.986 289.315 585.76 289.874 585.76 290.546C585.76 291.218 585.986 291.777 586.438 292.245C586.918 292.742 587.454 292.98 588.103 292.98C588.358 292.98 588.612 292.951 588.838 292.861C589.176 292.742 589.487 292.539 589.741 292.245C590.221 291.777 590.447 291.218 590.447 290.546C590.447 289.874 590.221 289.315 589.741 288.818C589.487 288.558 589.176 288.349 588.838 288.236C588.612 288.146 588.352 288.112 588.103 288.112Z" fill="#EBEBEB"></path> <path d="M105.548 149.45C105.548 149.45 105.548 149.45 105.52 149.45C102.211 150.974 99.0198 151.387 95.9647 150.681H95.9364L89.1259 149.128C116.007 135.552 151.302 121.716 195 107.615C195.113 107.705 195.254 107.79 195.395 107.88L200.427 109.964C173.241 118.288 141.611 131.452 105.548 149.45Z" fill="#484848"></path> <path d="M68.2705 178.064C70.1059 179.442 70.5294 181.17 69.5412 183.31L56.993 204.098C54.0226 209.225 48.0309 211.337 38.9614 210.428C38.8767 208.994 38.792 207.582 38.7638 206.181C38.7355 204.041 38.7356 201.963 38.792 199.907C38.8767 198.061 38.9897 196.214 39.1309 194.396C39.6109 188.765 40.5766 183.344 41.9601 178.126C42.2425 178.245 42.5248 178.358 42.8072 178.504C43.1178 177.358 43.4284 176.279 43.739 175.189C43.9367 174.574 44.1061 173.987 44.3037 173.428C44.8402 171.846 45.4049 170.322 46.0261 168.887C46.4779 167.797 46.9579 166.775 47.4436 165.809C60.2458 173.258 67.1976 177.33 68.2705 178.064Z" fill="#EBEBEB"></path> <path d="M229.793 280.285L231.6 292.454C231.741 293.86 232.08 295.001 232.588 295.882H219.814C217.781 304.5 213.512 312.18 207.04 318.895C197.57 328.715 186.123 333.64 172.728 333.64C159.332 333.64 147.885 328.715 138.421 318.895C130.701 310.893 126.155 301.541 124.715 290.839L112.618 289.84C112.816 289.343 112.957 288.784 112.986 288.112L113.353 282.159C114.341 266.183 120.276 252.523 131.187 241.206C134.66 237.597 138.336 234.582 142.266 232.148C150.658 226.901 160.129 224.264 170.666 224.264C186.1 224.264 199.269 229.923 210.18 241.211C221.056 252.523 227.613 265.54 229.793 280.285ZM186.58 244.255C182.028 242.612 177.398 241.793 172.705 241.793C167.052 241.793 161.71 242.906 156.684 245.102C152.217 247.124 148.117 250.055 144.39 253.957C144.362 253.985 144.333 253.985 144.305 254.014C136.76 261.869 132.858 271.661 132.632 283.357C132.632 283.385 132.632 283.447 132.632 283.503V283.679C132.66 289.19 133.621 294.318 135.456 299.067C137.41 304.054 140.403 308.594 144.39 312.728C150.918 319.527 158.638 323.486 167.481 324.604C169.175 324.807 170.932 324.898 172.711 324.898C176.415 324.898 179.945 324.457 183.31 323.548C184.355 323.226 185.4 322.904 186.422 322.554C191.821 320.532 196.711 317.28 201.088 312.733C204.877 308.803 207.729 304.494 209.677 299.779C211.739 294.82 212.789 289.461 212.817 283.628C212.817 283.537 212.817 283.453 212.817 283.362C212.817 274.01 210.214 265.771 205.013 258.65C204.984 258.594 204.928 258.503 204.872 258.418C203.714 256.894 202.471 255.397 201.082 253.963C200.63 253.494 200.179 253.054 199.699 252.613C195.734 248.829 191.358 246.045 186.58 244.255Z" fill="#484848"></path> <path d="M144.299 254.019C144.327 253.991 144.356 253.991 144.384 253.963C148.117 250.066 152.211 247.13 156.678 245.108C161.704 242.911 167.052 241.799 172.699 241.799C177.392 241.799 182.023 242.617 186.574 244.261C191.352 246.051 195.734 248.835 199.687 252.613C200.167 253.053 200.619 253.494 201.071 253.963C202.454 255.397 203.702 256.894 204.86 258.418C204.922 258.509 204.979 258.593 205.001 258.65C210.202 265.771 212.806 274.01 212.806 283.362H132.626C132.852 271.667 136.749 261.874 144.299 254.019ZM162.41 251.173C162.325 251.201 162.212 251.229 162.128 251.263L164.866 259.237C167.3 258.384 169.926 257.95 172.722 257.95C174.67 257.95 176.511 258.159 178.29 258.565L181.057 250.563C178.431 249.857 175.658 249.507 172.75 249.507C169.085 249.507 165.64 250.06 162.41 251.173ZM153.115 268.149C153.369 267.765 153.651 267.414 153.962 267.03L148.93 260.259C146.473 262.953 144.553 265.884 143.136 269.024C141.526 272.57 140.566 276.354 140.256 280.369L148.393 280.578C148.823 275.947 150.404 271.814 153.115 268.149ZM168.266 269.029L168.323 269.058V269.029H168.266ZM171.485 270.057C171.4 270.057 171.316 270.057 171.203 270.057L171.033 270.086C170.638 270.176 170.271 270.323 169.96 270.554C169.932 270.588 169.932 270.588 169.904 270.611C169.876 270.645 169.876 270.645 169.847 270.673C169.791 270.729 169.734 270.791 169.678 270.848C169.311 271.226 169.113 271.729 169.057 272.282C169.057 272.311 169.057 272.311 169.028 272.339C168.972 273.011 169.141 273.598 169.537 274.157C169.904 274.598 170.327 274.886 170.864 275.038L171.203 275.095C171.287 275.095 171.4 275.095 171.485 275.123C171.57 275.095 171.654 275.095 171.739 275.095H171.762L172.213 275.01C172.355 274.982 172.468 274.92 172.581 274.863C172.891 274.682 173.174 274.451 173.428 274.157C173.766 273.688 173.908 273.158 173.879 272.604V272.339C173.879 272.311 173.879 272.311 173.879 272.282C173.823 271.729 173.625 271.226 173.286 270.848C172.919 270.436 172.468 270.176 171.903 270.086L171.733 270.057C171.654 270.057 171.57 270.057 171.485 270.057ZM163.94 276.71C163.347 276.388 162.698 276.36 162.043 276.563C161.422 276.772 160.942 277.207 160.631 277.822C160.49 278.116 160.433 278.404 160.405 278.703C160.377 279.053 160.405 279.409 160.518 279.787C160.716 280.431 161.111 280.9 161.704 281.222C162.297 281.544 162.918 281.6 163.573 281.397C164.223 281.194 164.703 280.753 165.013 280.104C165.211 279.635 165.296 279.166 165.267 278.698C165.239 278.551 165.211 278.376 165.154 278.172C164.957 277.5 164.533 277.032 163.94 276.71ZM159.897 275.066V275.038L159.869 275.066H159.897ZM195.819 259.446C195.593 259.209 195.367 258.977 195.141 258.774L190.11 265.545C194.209 269.798 196.497 274.84 197.033 280.646L205.227 280.527C204.668 272.401 201.528 265.364 195.819 259.446ZM174.71 269.029H174.653V269.176L174.71 269.029ZM180.899 276.563C180.249 276.36 179.628 276.388 179.007 276.71C178.414 277.032 178.019 277.5 177.793 278.172C177.736 278.376 177.708 278.556 177.68 278.698C177.652 279.166 177.736 279.635 177.962 280.104C178.047 280.313 178.132 280.454 178.239 280.601C178.55 280.985 178.917 281.244 179.402 281.397C180.024 281.6 180.645 281.544 181.266 281.222C181.577 281.075 181.859 280.844 182.057 280.55C182.226 280.318 182.339 280.053 182.424 279.787C182.565 279.403 182.593 279.053 182.565 278.703C182.537 278.41 182.452 278.116 182.311 277.822C182 277.207 181.548 276.772 180.899 276.563Z" fill="#EBEBEB"></path> <path d="M212.806 283.362L212.693 283.6V283.628H212.806C212.778 289.461 211.727 294.826 209.666 299.779C207.718 304.5 204.86 308.809 201.076 312.734C196.7 317.28 191.809 320.532 186.411 322.554C185.394 322.904 184.349 323.226 183.299 323.548C179.933 324.457 176.404 324.898 172.699 324.898C170.92 324.898 169.17 324.813 167.47 324.604C158.626 323.492 150.906 319.533 144.378 312.728C140.397 308.594 137.398 304.054 135.444 299.067C133.609 294.318 132.649 289.185 132.621 283.679L132.677 283.65L132.621 283.504C132.621 283.447 132.621 283.385 132.621 283.357H212.806V283.362ZM176.743 287.468C176.376 287.587 176.065 287.79 175.783 288.084C175.302 288.586 175.048 289.196 175.048 289.902C175.048 290.574 175.302 291.161 175.783 291.664C176.065 291.986 176.376 292.189 176.743 292.308C176.968 292.398 177.223 292.426 177.505 292.426C178.183 292.426 178.776 292.161 179.256 291.664C179.736 291.167 179.961 290.58 179.961 289.902C179.961 289.196 179.736 288.586 179.256 288.084C178.776 287.587 178.183 287.349 177.505 287.349C177.223 287.349 176.968 287.383 176.743 287.468ZM189.997 301.219C189.658 301.569 189.319 301.925 188.952 302.247C186.603 304.443 184.033 306.087 181.209 307.171L183.869 315.23C188.274 313.592 192.261 310.921 195.825 307.228C196.841 306.172 197.773 305.059 198.648 303.913C199.473 302.862 200.207 301.778 200.884 300.632C201.393 299.785 201.844 298.875 202.268 297.938C202.324 297.819 202.381 297.672 202.466 297.526L194.469 295.001C193.424 297.051 192.069 298.988 190.46 300.778C190.307 300.925 190.138 301.072 189.997 301.219ZM150.63 294.358L142.746 296.82C144.356 300.603 146.671 304.059 149.726 307.228C154.758 312.474 160.608 315.614 167.306 316.692L167.137 308.018C163.184 307.109 159.62 305.206 156.452 302.247C156.113 301.925 155.774 301.575 155.436 301.219C154.956 300.722 154.476 300.191 154.052 299.694C153.741 299.282 153.431 298.875 153.12 298.463C152.155 297.142 151.336 295.792 150.63 294.358ZM167.165 288.084C166.911 287.796 166.6 287.587 166.233 287.468C165.979 287.378 165.725 287.349 165.471 287.349C164.793 287.349 164.2 287.587 163.72 288.084C163.24 288.586 163.014 289.196 163.014 289.902C163.014 290.574 163.24 291.161 163.72 291.664C164.2 292.161 164.793 292.426 165.471 292.426C165.725 292.426 165.979 292.398 166.233 292.308C166.6 292.189 166.911 291.986 167.165 291.664C167.645 291.167 167.899 290.58 167.899 289.902C167.899 289.196 167.645 288.586 167.165 288.084Z" fill="#EBEBEB"></path> <path d="M56.9987 204.098L67.3444 186.947L69.5469 183.31C70.5351 181.17 70.1116 179.442 68.2762 178.064C67.2033 177.33 60.2515 173.258 47.4436 165.81C46.9636 166.775 46.4836 167.803 46.0318 168.887C45.4106 170.322 44.8459 171.846 44.3094 173.428C44.1118 173.987 43.9424 174.568 43.7447 175.19C43.4341 176.274 43.1235 177.358 42.8129 178.505C42.5305 178.358 42.2482 178.239 41.9658 178.126C40.4919 177.392 39.9328 176.251 40.2999 174.755C40.5258 173.671 40.7799 172.615 41.034 171.53C41.4293 169.943 41.8811 168.362 42.3894 166.781C43.4623 163.5 44.7612 160.213 46.3142 156.96L85.602 150.393C85.5737 150.218 85.6019 150.043 85.6301 149.862C85.7149 149.45 85.9126 149.128 86.2514 148.924C86.562 148.715 86.929 148.631 87.2961 148.715L89.1315 149.128L95.942 150.681H95.9703C99.0254 151.387 102.216 150.974 105.525 149.45C105.554 149.45 105.554 149.45 105.554 149.45C141.617 131.452 173.241 118.288 200.433 109.964L195.401 107.88C195.26 107.79 195.119 107.705 195.006 107.615C194.864 107.468 194.723 107.293 194.639 107.09C194.61 107.061 194.61 107.005 194.582 106.971C194.497 106.649 194.497 106.299 194.61 105.977C194.752 105.599 195.006 105.305 195.373 105.158C195.74 105.012 196.079 105.012 196.446 105.158L198.112 105.83C201.703 104.774 205.402 103.809 209.22 102.956C210.208 102.724 211.224 102.515 212.218 102.312C212.36 102.284 212.529 102.256 212.67 102.222L212.896 99.6128L211.23 95.6823L193.791 74.6351C193.707 74.5165 193.707 74.3697 193.735 74.2229C193.763 74.076 193.82 73.9292 193.961 73.8106C194.102 73.692 194.243 73.6356 194.384 73.6017C194.526 73.6017 194.667 73.6581 194.752 73.7485L212.472 94.1237L217.504 92.6893C218.888 92.3956 220.13 92.5989 221.209 93.3048L226.833 97.2636C227.144 97.2071 227.426 97.145 227.737 97.1167C229.459 96.8795 231.159 97.4951 232.797 98.9916C232.882 98.9634 232.938 98.9634 232.995 98.9634C233.616 98.873 234.237 98.8165 234.83 98.7601C235.197 98.7262 235.564 98.6697 235.931 98.6415C322.356 91.3735 389.846 95.2701 438.401 110.309C438.966 110.19 439.531 110.071 440.095 109.959C440.406 109.902 440.745 109.84 441.055 109.778C441.451 109.693 441.789 109.778 442.1 110.015C442.411 110.252 442.608 110.574 442.693 110.952C442.778 111.331 442.693 111.715 442.467 112.065C442.411 112.121 442.354 112.184 442.298 112.24C442.1 112.443 441.846 112.59 441.535 112.652C441.225 112.709 440.914 112.771 440.604 112.827C439.361 113.064 438.141 113.324 436.989 113.618C440.779 114.996 444.534 116.549 448.239 118.277C448.267 118.277 448.267 118.277 448.267 118.277C471.33 129.707 494.817 143.43 518.722 159.468C519.428 159.908 520.133 160.349 520.839 160.755C528.045 164.799 536.499 167.261 546.218 168.114C547.122 168.176 548.025 168.232 548.957 168.289C549.352 168.317 549.691 168.464 549.945 168.786C550.199 169.079 550.34 169.429 550.312 169.813C555.88 170.022 561.816 169.757 568.146 169.023C606.948 174.094 637.076 180.074 658.586 186.936C676.929 192.769 688.997 199.275 694.763 206.43H693.407C699.145 214.054 703.804 222.293 707.424 231.171C708.186 233.023 708.892 234.926 709.547 236.829C709.886 238.06 710.168 239.32 710.394 240.613C710.789 242.838 711.015 245.153 711.044 247.587V260.017L708.756 261.779C708.615 267.962 708.192 274.18 707.514 280.392C709.208 281.007 710.626 281.798 711.783 282.798C711.981 282.944 712.15 283.119 712.292 283.294C713.054 284.232 713.195 285.316 712.743 286.576C710.767 291.822 702.398 295.312 687.647 297.074C679.108 298.096 670.519 298.977 661.901 299.655C659.157 299.858 656.418 300.061 653.673 300.27C652.036 300.304 651.189 299.655 651.132 298.277V284.057C651.132 280.657 650.878 277.371 650.398 274.208C648.557 262.366 643.362 251.986 634.795 243.075C632.931 241.138 631.005 239.382 629.001 237.795C619.31 230.024 608.089 226.128 595.287 226.128C579.853 226.128 566.684 231.786 555.801 243.069C544.891 254.386 538.956 268.047 537.967 284.023L537.233 296.012C537.149 297.622 536.584 298.768 535.483 299.468C535.228 299.615 534.974 299.734 534.692 299.847C534.043 300.084 533.308 300.231 532.433 300.259L236.501 298.006C234.723 297.977 233.418 297.271 232.599 295.865C232.091 294.984 231.752 293.844 231.611 292.437L229.804 280.268C227.624 265.523 221.068 252.506 210.191 241.189C199.281 229.9 186.111 224.241 170.677 224.241C160.14 224.241 150.669 226.884 142.278 232.125C138.347 234.559 134.676 237.575 131.198 241.183C120.287 252.5 114.352 266.161 113.364 282.137L112.997 288.089C112.968 288.761 112.827 289.32 112.63 289.817C111.952 291.37 110.427 291.986 108.021 291.607L65.7689 284.87C64.9783 284.723 64.1876 284.548 63.397 284.339L43.4962 279.353C34.0879 276.862 28.9151 271.644 28.0059 263.642V228.658L38.9728 210.428C48.0366 211.338 54.0283 209.225 56.9987 204.098ZM222.186 124.472C209.214 131.068 196.807 139.776 184.908 150.534H184.937C183.124 152.38 182.819 155.136 184.005 158.739L185.332 162.608C185.36 162.608 185.36 162.608 185.36 162.636C185.756 163.607 186.631 164.132 187.958 164.217L225.8 165.742L222.186 124.472ZM330.912 107.44C312.259 107.265 292.189 107.993 270.741 109.637H270.825C255.256 111.483 240.359 115.764 226.088 122.535L229.9 165.894L334.808 170.085L334.837 169.791L330.912 107.44ZM487.12 174.427C486.131 174.399 485.313 174.134 484.663 173.608C484.409 173.399 484.211 173.134 484.014 172.874L482.517 170.531L482.489 170.502C481.501 169.125 480.851 167.306 480.541 165.019C480.541 164.697 480.541 164.403 480.512 164.11C480.484 162.382 480.654 160.829 480.992 159.417C481.218 158.451 481.529 157.542 481.953 156.718C482.207 155.983 482.602 155.402 483.11 154.927L481.84 148.653C471.324 142.091 458.72 135.168 443.998 127.872C443.998 127.872 443.998 127.872 443.969 127.872C443.941 127.843 443.885 127.843 443.828 127.815C443.8 127.787 443.8 127.787 443.772 127.787C427.519 120.078 410.707 114.883 393.325 112.161C380.014 110.077 365.654 108.671 350.225 107.965L368.059 171.434L487.498 176.212L487.12 174.427ZM654.289 208.904C654.571 209.254 654.854 209.609 655.108 209.96C658.586 214.477 661.975 219.074 665.256 223.795C665.792 224.529 666.301 225.292 666.809 226.054C667.204 226.613 667.599 227.167 667.967 227.726L707.362 231.182L702.076 229.188C701.313 228.923 700.523 228.72 699.704 228.545L699.958 221.215C700.043 219.486 699.704 218.024 698.998 216.787C696.451 212.715 693.543 209.254 690.29 206.436H652.363C653.018 207.26 653.639 208.079 654.289 208.904Z" fill="#F7C930"></path> <path d="M595.083 251.907C597.879 251.907 600.539 252.229 603.052 252.907L600.397 260.559C598.703 260.175 596.919 259.971 595.055 259.971C592.373 259.971 589.882 260.378 587.539 261.202L584.913 253.584C584.998 253.556 585.11 253.528 585.195 253.494C588.273 252.438 591.577 251.907 595.083 251.907Z" fill="#484848"></path> <path d="M582.79 276.36H582.761L582.79 276.326V276.36Z" fill="#484848"></path> <path d="M571.766 281.634L563.995 281.431C564.278 277.591 565.181 273.982 566.74 270.583C568.095 267.561 569.964 264.777 572.308 262.196L577.114 268.674C576.832 269.024 576.549 269.38 576.295 269.73C573.686 273.22 572.189 277.207 571.766 281.634Z" fill="#484848"></path> <path d="M584.851 277.794C585.472 277.585 586.065 277.613 586.658 277.941C587.223 278.235 587.618 278.703 587.816 279.347C587.872 279.522 587.9 279.697 587.928 279.844C587.957 280.285 587.872 280.753 587.674 281.194C587.364 281.809 586.912 282.222 586.291 282.425C585.698 282.628 585.105 282.572 584.512 282.25C583.947 281.956 583.58 281.487 583.382 280.872C583.27 280.522 583.241 280.166 583.27 279.844C583.298 279.55 583.354 279.257 583.495 278.997C583.806 278.381 584.258 277.997 584.851 277.794Z" fill="#484848"></path> <path d="M592.147 272.311C592.486 271.927 592.909 271.667 593.446 271.577L593.615 271.548C593.7 271.548 593.785 271.548 593.869 271.548C593.954 271.548 594.039 271.548 594.123 271.548L594.293 271.577C594.829 271.667 595.253 271.927 595.592 272.311C595.931 272.689 596.128 273.135 596.185 273.689C596.185 273.717 596.185 273.717 596.185 273.745C596.269 274.389 596.1 274.976 595.733 275.473C595.366 275.942 594.886 276.235 594.321 276.354L594.152 276.382C594.152 276.382 594.152 276.382 594.123 276.382C594.039 276.382 593.954 276.382 593.869 276.411C593.785 276.382 593.7 276.382 593.615 276.382L593.276 276.32C592.768 276.173 592.345 275.908 592.006 275.473C591.639 274.976 591.469 274.389 591.526 273.745C591.554 273.717 591.554 273.717 591.554 273.689C591.605 273.135 591.802 272.695 592.147 272.311Z" fill="#484848"></path> <path d="M590.786 270.583H590.842V270.611L590.786 270.583Z" fill="#484848"></path> <path d="M596.89 270.583H596.947L596.89 270.73V270.583Z" fill="#484848"></path> <path d="M604.238 278.997C604.379 279.262 604.435 279.556 604.464 279.844C604.492 280.166 604.464 280.516 604.351 280.872C604.266 281.137 604.153 281.397 603.983 281.606C603.786 281.871 603.532 282.103 603.221 282.25C602.628 282.572 602.035 282.634 601.437 282.425C600.985 282.278 600.618 282.013 600.335 281.662C600.222 281.516 600.138 281.369 600.053 281.194C599.855 280.753 599.771 280.285 599.799 279.844C599.827 279.697 599.855 279.522 599.912 279.347C600.11 278.703 600.505 278.235 601.07 277.941C601.662 277.619 602.255 277.591 602.877 277.794C603.475 277.997 603.927 278.381 604.238 278.997Z" fill="#484848"></path> <path d="M604.972 276.36H604.944V276.326L604.972 276.36Z" fill="#484848"></path> <path d="M603.955 291.776V291.748L603.983 291.776H603.955Z" fill="#484848"></path> <path d="M599.635 288.112C600.285 288.112 600.821 288.349 601.301 288.818C601.753 289.314 601.979 289.874 601.979 290.546C601.979 291.218 601.753 291.777 601.301 292.245C600.821 292.742 600.285 292.98 599.635 292.98C599.381 292.98 599.127 292.951 598.901 292.861C598.562 292.742 598.252 292.539 597.997 292.245C597.517 291.777 597.292 291.218 597.292 290.546C597.292 289.874 597.517 289.314 597.997 288.818C598.252 288.558 598.562 288.349 598.901 288.236C599.127 288.146 599.375 288.112 599.635 288.112Z" fill="#484848"></path> <path d="M588.103 292.98C587.454 292.98 586.917 292.748 586.437 292.245C585.986 291.777 585.76 291.218 585.76 290.546C585.76 289.874 585.986 289.314 586.437 288.818C586.917 288.349 587.454 288.112 588.103 288.112C588.357 288.112 588.612 288.145 588.837 288.23C589.176 288.349 589.487 288.552 589.741 288.812C590.221 289.309 590.447 289.868 590.447 290.54C590.447 291.212 590.221 291.771 589.741 292.24C589.487 292.533 589.176 292.737 588.837 292.855C588.612 292.951 588.352 292.98 588.103 292.98Z" fill="#484848"></path> <path d="M611.585 301.394C611.726 301.247 611.867 301.1 612.008 300.953C613.561 299.225 614.86 297.407 615.854 295.442L623.512 297.847C623.427 297.994 623.37 298.141 623.314 298.26C622.919 299.141 622.467 299.988 621.987 300.84C621.337 301.925 620.632 302.953 619.869 303.98C619.05 305.065 618.147 306.121 617.158 307.148C613.742 310.695 609.924 313.247 605.712 314.8L603.165 307.092C605.881 306.064 608.366 304.483 610.596 302.371C610.935 302.038 611.274 301.716 611.585 301.394Z" fill="#484848"></path> <path d="M589.882 316.201C583.467 315.173 577.871 312.158 573.042 307.143C570.134 304.122 567.898 300.778 566.373 297.175L573.917 294.832C574.567 296.21 575.358 297.503 576.289 298.762C576.572 299.146 576.882 299.553 577.193 299.937C577.616 300.434 578.04 300.908 578.52 301.405C578.831 301.727 579.169 302.049 579.48 302.371C582.507 305.211 585.924 307.058 589.713 307.911L589.882 316.201Z" fill="#484848"></path> <path d="M617.153 261.406C622.608 267.064 625.629 273.807 626.171 281.572L618.31 281.691C617.802 276.151 615.6 271.311 611.698 267.239L616.503 260.762C616.729 260.971 616.955 261.202 617.153 261.406Z" fill="#484848"></path> <path d="M556.671 284.447C556.671 284.39 556.671 284.328 556.671 284.3L556.756 284.565H556.727L556.671 284.593V284.447Z" fill="#484848"></path> <path d="M633.406 284.305C633.406 284.39 633.406 284.48 633.406 284.571H633.377L633.293 284.537L633.406 284.305Z" fill="#484848"></path> <path d="M172.756 249.507C175.67 249.507 178.437 249.857 181.063 250.563L178.296 258.565C176.511 258.159 174.676 257.95 172.728 257.95C169.932 257.95 167.3 258.39 164.872 259.237L162.133 251.263C162.218 251.235 162.331 251.201 162.416 251.173C165.64 250.06 169.085 249.507 172.756 249.507Z" fill="#484848"></path> <path d="M195.819 259.446C201.528 265.365 204.668 272.401 205.233 280.522L197.039 280.64C196.502 274.835 194.215 269.792 190.115 265.54L195.147 258.769C195.367 258.972 195.593 259.209 195.819 259.446Z" fill="#484848"></path> <path d="M189.997 301.219C190.138 301.072 190.307 300.925 190.448 300.778C192.058 298.988 193.413 297.051 194.458 295.001L202.454 297.525C202.37 297.672 202.313 297.819 202.257 297.938C201.833 298.875 201.381 299.784 200.873 300.631C200.196 301.778 199.461 302.862 198.637 303.912C197.762 305.059 196.83 306.171 195.813 307.227C192.255 310.921 188.269 313.592 183.858 315.229L181.198 307.171C184.022 306.087 186.597 304.443 188.941 302.246C189.319 301.919 189.658 301.569 189.997 301.219Z" fill="#484848"></path> <path d="M148.399 280.584L140.262 280.375C140.572 276.36 141.532 272.576 143.142 269.03C144.559 265.89 146.474 262.959 148.936 260.265L153.967 267.036C153.657 267.42 153.374 267.77 153.12 268.154C150.404 271.814 148.823 275.947 148.399 280.584Z" fill="#484848"></path> <path d="M159.897 275.066H159.869L159.897 275.038V275.066Z" fill="#484848"></path> <path d="M162.049 276.563C162.698 276.36 163.353 276.388 163.946 276.71C164.539 277.032 164.963 277.5 165.16 278.172C165.217 278.376 165.245 278.556 165.273 278.698C165.301 279.166 165.217 279.635 165.019 280.104C164.708 280.748 164.228 281.188 163.579 281.397C162.929 281.6 162.303 281.544 161.71 281.222C161.117 280.9 160.721 280.431 160.524 279.788C160.411 279.404 160.383 279.053 160.411 278.703C160.439 278.41 160.496 278.116 160.637 277.822C160.942 277.207 161.427 276.772 162.049 276.563Z" fill="#484848"></path> <path d="M169.678 270.848C169.74 270.791 169.791 270.729 169.847 270.673C169.875 270.645 169.875 270.645 169.904 270.611C169.932 270.583 169.932 270.583 169.96 270.554C170.271 270.323 170.638 270.176 171.033 270.086L171.202 270.057C171.315 270.057 171.4 270.057 171.485 270.057C171.57 270.057 171.654 270.057 171.739 270.057L171.908 270.086C172.473 270.176 172.925 270.436 173.292 270.848C173.631 271.226 173.828 271.729 173.885 272.282C173.885 272.311 173.885 272.311 173.885 272.339V272.604C173.913 273.163 173.772 273.689 173.433 274.157C173.179 274.451 172.897 274.682 172.586 274.863C172.473 274.92 172.36 274.982 172.219 275.01L171.767 275.095H171.745C171.66 275.095 171.575 275.095 171.49 275.123C171.406 275.095 171.293 275.095 171.208 275.095L170.869 275.038C170.333 274.891 169.909 274.598 169.542 274.157C169.147 273.598 168.977 273.011 169.034 272.339C169.062 272.311 169.062 272.311 169.062 272.282C169.113 271.729 169.311 271.226 169.678 270.848Z" fill="#484848"></path> <path d="M168.266 269.03H168.323V269.058L168.266 269.03Z" fill="#484848"></path> <path d="M165.465 292.42C164.787 292.42 164.194 292.155 163.714 291.658C163.234 291.161 163.008 290.574 163.008 289.896C163.008 289.19 163.234 288.58 163.714 288.078C164.194 287.581 164.787 287.343 165.465 287.343C165.719 287.343 165.973 287.377 166.227 287.462C166.594 287.581 166.905 287.784 167.159 288.078C167.639 288.58 167.893 289.19 167.893 289.896C167.893 290.568 167.639 291.155 167.159 291.658C166.905 291.98 166.594 292.183 166.227 292.302C165.979 292.392 165.719 292.42 165.465 292.42Z" fill="#484848"></path> <path d="M174.653 269.03H174.71L174.653 269.177V269.03Z" fill="#484848"></path> <path d="M182.311 277.822C182.452 278.116 182.537 278.404 182.565 278.703C182.593 279.053 182.565 279.409 182.424 279.788C182.339 280.053 182.226 280.318 182.057 280.55C181.859 280.844 181.577 281.081 181.266 281.222C180.645 281.544 180.024 281.6 179.402 281.397C178.922 281.25 178.555 280.985 178.239 280.601C178.126 280.454 178.041 280.307 177.962 280.104C177.736 279.635 177.652 279.166 177.68 278.698C177.708 278.551 177.736 278.376 177.793 278.172C178.019 277.5 178.414 277.026 179.007 276.71C179.628 276.388 180.249 276.36 180.899 276.563C181.548 276.772 182 277.207 182.311 277.822Z" fill="#484848"></path> <path d="M177.505 287.349C178.183 287.349 178.776 287.586 179.256 288.083C179.736 288.586 179.961 289.196 179.961 289.902C179.961 290.574 179.736 291.161 179.256 291.664C178.776 292.161 178.183 292.426 177.505 292.426C177.223 292.426 176.968 292.398 176.743 292.307C176.375 292.189 176.065 291.986 175.782 291.664C175.302 291.167 175.048 290.579 175.048 289.902C175.048 289.196 175.302 288.586 175.782 288.083C176.065 287.795 176.375 287.586 176.743 287.468C176.968 287.383 177.223 287.349 177.505 287.349Z" fill="#484848"></path> <path d="M167.306 316.692C160.608 315.608 154.758 312.474 149.726 307.228C146.677 304.059 144.356 300.603 142.746 296.82L150.63 294.358C151.336 295.792 152.16 297.142 153.12 298.463C153.431 298.875 153.741 299.282 154.052 299.694C154.475 300.191 154.955 300.722 155.435 301.219C155.774 301.569 156.113 301.925 156.452 302.247C159.614 305.206 163.178 307.115 167.136 308.018L167.306 316.692Z" fill="#484848"></path> <path d="M212.806 283.362C212.806 283.453 212.806 283.543 212.806 283.628H212.693V283.599L212.806 283.362Z" fill="#484848"></path> <path d="M132.683 283.655L132.627 283.683V283.509L132.683 283.655Z" fill="#484848"></path> <path d="M154.343 197.701H152.008V202.874H149.01V197.701H142.458V195.738L149.249 184.171H152.008V194.995H154.343V197.701ZM149.01 190.883L149.302 188.495H149.196L148.4 190.644L146.304 194.199L145.243 195.207L146.596 194.995H149.01V190.883Z" fill="#484848"></path> <path d="M159.53 200.354C160.485 200.354 161.211 200.044 161.706 199.425C162.201 198.806 162.449 198.01 162.449 197.038C162.449 195.923 162.157 195.119 161.573 194.623C160.989 194.128 160.149 193.881 159.053 193.881L157.328 193.987V184.304H165.048V187.381H160.034V191.175L160.91 191.069C162.342 191.122 163.483 191.652 164.332 192.66C165.181 193.668 165.606 195.083 165.606 196.905C165.606 197.948 165.455 198.868 165.155 199.664C164.854 200.46 164.438 201.123 163.908 201.654C163.395 202.184 162.776 202.582 162.051 202.848C161.325 203.113 160.538 203.246 159.69 203.246C159.053 203.246 158.407 203.175 157.753 203.033C157.116 202.909 156.594 202.741 156.188 202.529L157.01 199.85C157.664 200.186 158.505 200.354 159.53 200.354Z" fill="#484848"></path> <path d="M178.964 197.117C178.964 198.055 178.831 198.904 178.566 199.664C178.319 200.425 177.965 201.07 177.505 201.601C177.063 202.131 176.523 202.538 175.887 202.821C175.268 203.104 174.587 203.246 173.844 203.246C173.066 203.246 172.349 203.113 171.695 202.848C171.041 202.565 170.475 202.14 169.997 201.574C169.52 201.008 169.148 200.283 168.883 199.399C168.618 198.497 168.485 197.436 168.485 196.215C168.485 194.411 168.697 192.802 169.122 191.387C169.564 189.954 170.148 188.725 170.873 187.699C171.615 186.673 172.456 185.851 173.393 185.232C174.348 184.595 175.347 184.162 176.391 183.932L177.187 186.505C176.497 186.682 175.851 186.965 175.25 187.354C174.649 187.744 174.109 188.212 173.632 188.76C173.154 189.309 172.747 189.937 172.411 190.644C172.093 191.334 171.854 192.068 171.695 192.846C171.996 192.422 172.376 192.077 172.836 191.811C173.296 191.546 173.862 191.413 174.534 191.413C175.17 191.413 175.754 191.528 176.285 191.758C176.833 191.988 177.302 192.342 177.691 192.819C178.098 193.297 178.407 193.898 178.619 194.623C178.849 195.331 178.964 196.162 178.964 197.117ZM175.913 197.303C175.913 196.224 175.728 195.446 175.356 194.968C175.002 194.473 174.454 194.226 173.711 194.226C173.181 194.226 172.73 194.376 172.358 194.677C171.987 194.977 171.722 195.331 171.562 195.738C171.545 195.932 171.536 196.136 171.536 196.348C171.536 196.542 171.536 196.737 171.536 196.932C171.536 197.391 171.58 197.834 171.669 198.258C171.757 198.665 171.89 199.036 172.066 199.372C172.261 199.691 172.491 199.947 172.756 200.142C173.039 200.336 173.375 200.433 173.764 200.433C174.401 200.433 174.914 200.168 175.303 199.638C175.71 199.089 175.913 198.311 175.913 197.303Z" fill="#484848"></path> <path d="M548.653 197.882L554.39 198.25L554.022 203.987L548.286 203.619L548.653 197.882Z" fill="#484848"></path> <path d="M571.605 199.358L577.342 199.726L576.974 205.463L571.237 205.095L571.605 199.358Z" fill="#484848"></path> <path d="M554.024 203.992L559.76 204.36L559.393 210.097L553.656 209.729L554.024 203.992Z" fill="#484848"></path> <path d="M560.128 198.621L565.865 198.989L565.497 204.726L559.76 204.358L560.128 198.621Z" fill="#484848"></path> <path d="M565.499 204.725L571.235 205.093L570.867 210.83L565.131 210.462L565.499 204.725Z" fill="#484848"></path> <path d="M97.0509 182.529L102.788 182.897L102.42 188.634L96.683 188.266L97.0509 182.529Z" fill="#484848"></path> <path d="M120.004 183.994L125.741 184.362L125.373 190.099L119.636 189.731L120.004 183.994Z" fill="#484848"></path> <path d="M102.421 188.633L108.158 189.001L107.79 194.737L102.053 194.37L102.421 188.633Z" fill="#484848"></path> <path d="M108.525 183.268L114.262 183.636L113.894 189.373L108.157 189.005L108.525 183.268Z" fill="#484848"></path> <path d="M113.896 189.372L119.633 189.74L119.265 195.477L113.528 195.109L113.896 189.372Z" fill="#484848"></path> <path d="M188.743 180.877C184.987 172.344 184.586 167.95 187.529 167.741H187.557L348.345 174.162L350.18 174.252L519.128 180.995C519.552 181.023 519.947 180.877 520.258 180.611C520.342 180.526 520.427 180.436 520.512 180.346C522.516 183.423 524.126 187.648 525.346 192.956C529.327 210.338 529.129 239.653 524.724 280.872L520.913 290.314L355.127 287.643L259.638 286.09C250.173 286.118 244.069 283.566 241.33 278.382L239.805 275.451L218.645 234.559L201.607 204.979C195.666 194.887 191.374 186.857 188.743 180.877Z" fill="#ED716B"></path> <path d="M665.261 223.796H684.874" stroke="#484848" stroke-miterlimit="10" stroke-linecap="round" stroke-linejoin="round"></path> <path d="M684.874 209.96V223.796" stroke="#484848" stroke-miterlimit="10" stroke-linecap="round" stroke-linejoin="round"></path> <path d="M684.874 223.796H686.286C688.178 223.796 689.115 222.83 689.115 220.865V212.891C689.115 210.931 688.183 209.96 686.286 209.96H684.874" stroke="#484848" stroke-miterlimit="10" stroke-linecap="round" stroke-linejoin="round"></path> <path d="M684.874 209.96H655.113" stroke="#484848" stroke-miterlimit="10" stroke-linecap="round" stroke-linejoin="round"></path> <path d="M442.298 112.246C442.354 112.189 442.411 112.127 442.467 112.071C442.693 111.721 442.778 111.337 442.693 110.958C442.608 110.58 442.411 110.252 442.1 110.021C441.789 109.784 441.451 109.699 441.055 109.784C440.745 109.846 440.406 109.902 440.095 109.959C439.53 110.077 438.966 110.196 438.401 110.315" stroke="#484848"></path> <path d="M520.839 160.767C520.133 160.354 519.427 159.914 518.721 159.474C494.811 143.435 471.324 129.718 448.261 118.283C448.261 118.283 448.261 118.283 448.233 118.283C444.528 116.555 440.773 115.002 436.983 113.624C438.141 113.33 439.355 113.07 440.598 112.833C440.908 112.777 441.219 112.715 441.529 112.658C441.84 112.596 442.094 112.449 442.292 112.246" stroke="#484848"></path> <path d="M206.136 109.784C220.406 105.65 233.638 102.956 245.842 101.635C320.086 96.2133 379.72 99.4096 424.768 111.19C424.825 111.19 424.881 111.19 424.938 111.218C426.942 111.777 428.925 112.393 430.901 113.065" stroke="#484848"></path> <path d="M438.395 110.314C436.024 110.811 433.821 111.427 431.811 112.133C431.528 112.223 431.302 112.398 431.105 112.664C431.02 112.782 430.964 112.923 430.907 113.07" stroke="#484848"></path> <path d="M430.907 113.07C430.879 113.217 430.85 113.364 430.85 113.511C430.85 113.833 430.935 114.126 431.105 114.392C431.302 114.657 431.528 114.832 431.81 114.923C436.983 116.651 442.071 118.644 447.097 120.959L447.041 120.926C470.02 132.333 493.393 145.994 517.191 161.941L517.219 161.97C518.094 162.5 518.97 163.026 519.845 163.523" stroke="#484848"></path> <path d="M514.198 169.328C502.13 156.339 479.236 141.476 445.494 124.738C445.494 124.709 445.494 124.709 445.465 124.709C445.381 124.681 445.268 124.625 445.183 124.591C428.648 116.764 411.52 111.455 393.827 108.671C377.236 106.062 359.006 104.509 339.111 104.04" stroke="#484848"></path> <path d="M368.053 171.44L350.219 107.971C365.653 108.677 380.009 110.083 393.319 112.161C410.701 114.889 427.519 120.079 443.766 127.787C443.794 127.787 443.794 127.787 443.822 127.815C443.879 127.844 443.935 127.844 443.963 127.872C443.992 127.872 443.992 127.872 443.992 127.872C458.72 135.174 471.324 142.092 481.834 148.659" stroke="#484848"></path> <path d="M483.11 154.933C483.985 154.08 485.228 153.583 486.781 153.437C486.894 153.437 487.006 153.437 487.148 153.437C487.543 153.437 487.966 153.471 488.418 153.499" stroke="#484848"></path> <path d="M489.44 153.584C489.864 153.612 490.288 153.668 490.739 153.73C494.162 154.199 498.115 156.046 502.553 159.242C502.61 159.27 502.666 159.299 502.694 159.332C503.062 159.564 503.316 159.858 503.513 160.18" stroke="#484848"></path> <path d="M488.424 153.499C488.678 153.499 488.904 153.527 489.158 153.555C489.271 153.555 489.356 153.555 489.44 153.583" stroke="#484848"></path> <path d="M482.912 159.858C482.941 159.711 482.997 159.564 483.025 159.417C483.195 158.711 483.392 158.067 483.647 157.452C483.759 157.186 483.872 156.955 483.985 156.718C484.691 154.865 486.16 153.809 488.424 153.493" stroke="#484848"></path> <path d="M483.11 154.933C482.602 155.402 482.206 155.983 481.952 156.723C481.529 157.542 481.218 158.451 480.992 159.417C480.653 160.823 480.484 162.376 480.512 164.11C480.54 164.404 480.54 164.697 480.54 165.019C480.851 167.306 481.501 169.125 482.489 170.503L482.517 170.531L484.014 172.874C484.211 173.134 484.409 173.4 484.663 173.608C485.312 174.134 486.131 174.399 487.12 174.427" stroke="#484848"></path> <path d="M483.11 167.51C482.884 166.747 482.715 165.923 482.573 165.019C482.573 164.697 482.573 164.404 482.545 164.11C482.517 162.557 482.658 161.151 482.912 159.858" stroke="#484848"></path> <path d="M488.254 174.343C487.803 174.252 487.379 174.077 487.012 173.84C486.899 173.75 486.786 173.693 486.701 173.609C486.447 173.4 486.25 173.14 486.052 172.874L484.556 170.531L484.527 170.503C483.934 169.684 483.483 168.684 483.115 167.515" stroke="#484848"></path> <path d="M487.12 174.427C487.289 174.427 487.458 174.427 487.6 174.427C487.797 174.399 488.023 174.371 488.249 174.343" stroke="#484848"></path> <path d="M494.924 173.287L488.339 174.343C488.311 174.343 488.283 174.343 488.255 174.343" stroke="#484848"></path> <path d="M487.12 174.427L487.492 176.212" stroke="#484848"></path> <path d="M503.513 160.179C503.88 160.795 503.937 161.614 503.739 162.585L503.4 163.963" stroke="#484848"></path> <path d="M500.153 172.168C501.029 171.672 501.622 170.881 501.932 169.825L502.073 169.328" stroke="#484848"></path> <path d="M502.073 169.328L502.215 168.741" stroke="#484848"></path> <path d="M503.401 163.963L502.215 168.741" stroke="#484848"></path> <path d="M502.215 168.741L503.372 169.147C504.191 169.65 504.474 170.582 504.191 171.96C503.768 173.309 503.118 174.512 502.186 175.534" stroke="#484848"></path> <path d="M502.186 175.54C502.102 175.63 501.989 175.749 501.904 175.834C500.746 176.861 499.357 176.771 497.719 175.568L494.924 173.281" stroke="#484848"></path> <path d="M502.186 175.54C501.876 173.959 501.198 172.84 500.153 172.168" stroke="#484848"></path> <path d="M494.924 173.287L498.228 172.756C498.99 172.671 499.611 172.462 500.153 172.174" stroke="#484848"></path> <path d="M483.11 167.509L502.073 169.328" stroke="#484848"></path> <path d="M503.513 160.18L482.912 159.858" stroke="#484848"></path> <path d="M481.839 148.659L483.11 154.933" stroke="#484848"></path> <path d="M489.44 153.583C487.04 151.968 484.522 150.331 481.839 148.659" stroke="#484848"></path> <path d="M348.61 174.162L350.445 174.252" stroke="#484848"></path> <path d="M349.881 170.706L350.445 174.252" stroke="#484848"></path> <path d="M351.095 186.682C350.361 182.43 349.542 178.268 348.61 174.162" stroke="#484848"></path> <path d="M349.881 170.706L368.053 171.44" stroke="#484848"></path> <path d="M339.111 104.04L349.881 170.706" stroke="#484848"></path> <path d="M487.492 176.212L368.053 171.44" stroke="#484848"></path> <path d="M692.503 206.436H693.407" stroke="#484848"></path> <path d="M693.407 206.436H694.762C682.242 190.929 640.018 178.442 568.146 169.029C561.815 169.763 555.88 170.028 550.312 169.819" stroke="#484848"></path> <path d="M690.301 206.436H692.503" stroke="#484848"></path> <path d="M663.793 206.436H690.301" stroke="#484848"></path> <path d="M652.374 206.436H663.793" stroke="#484848"></path> <path d="M519.851 163.522C519.964 163.585 520.077 163.641 520.161 163.698" stroke="#484848"></path> <path d="M520.161 163.698L520.839 160.767" stroke="#484848"></path> <path d="M550.318 169.825V169.853C550.289 170.237 550.148 170.587 549.838 170.853C549.725 170.971 549.584 171.056 549.442 171.146" stroke="#484848"></path> <path d="M550.318 169.825C550.346 169.447 550.205 169.091 549.951 168.797C549.697 168.475 549.358 168.328 548.962 168.3C548.031 168.244 547.127 168.182 546.223 168.125" stroke="#484848"></path> <path d="M549.442 171.146C549.245 171.237 549.047 171.265 548.821 171.237C548.51 171.208 548.228 171.208 547.917 171.18" stroke="#484848"></path> <path d="M350.445 174.252L519.455 180.995C519.879 181.023 520.274 180.876 520.585 180.611C520.67 180.526 520.754 180.436 520.839 180.346" stroke="#484848"></path> <path d="M520.839 180.346C521.037 180.114 521.15 179.849 521.206 179.555C521.291 179.114 521.206 178.736 520.98 178.352C519.343 175.449 517.078 172.428 514.198 169.322" stroke="#484848"></path> <path d="M520.839 180.346C522.844 183.423 524.459 187.647 525.673 192.956" stroke="#484848"></path> <path d="M546.218 168.125C536.493 167.278 528.045 164.81 520.839 160.767" stroke="#484848"></path> <path d="M520.161 163.698C527.989 168.006 537.261 170.497 547.918 171.175" stroke="#484848"></path> <path d="M525.673 192.956L561.595 194.243C594.349 196.293 624.595 200.371 652.374 206.436" stroke="#484848"></path> <path d="M547.918 171.175C554.615 182.61 565.13 189.088 579.457 190.612C621.399 195.774 649.522 201.048 663.793 206.442" stroke="#484848"></path> <path d="M692.503 206.436C672.975 194.215 625.296 182.458 549.442 171.141" stroke="#484848"></path> <path d="M525.955 280.606C527.48 279.991 528.355 278.641 528.587 276.619C529.801 268.826 532.116 261.524 535.482 254.72C538.842 247.92 543.309 241.618 548.821 235.841C553.74 230.679 559.054 226.489 564.763 223.293C574.036 218.103 584.319 215.5 595.653 215.5C606.987 215.5 617.299 218.109 626.572 223.293C629.994 225.202 633.27 227.483 636.409 230.098" stroke="#484848"></path> <path d="M600.397 260.559L603.057 252.907" stroke="#484848"></path> <path d="M603.057 252.907C600.544 252.235 597.884 251.907 595.089 251.907C591.587 251.907 588.278 252.433 585.2 253.494C585.116 253.522 585.003 253.551 584.918 253.579" stroke="#484848"></path> <path d="M584.912 253.579L587.538 261.203" stroke="#484848"></path> <path d="M587.538 261.203C589.888 260.384 592.372 259.971 595.055 259.971C596.924 259.971 598.703 260.175 600.397 260.559" stroke="#484848"></path> <path d="M567.869 256.216C567.897 256.188 567.897 256.188 567.926 256.16C571.512 252.438 575.442 249.62 579.711 247.689" stroke="#484848"></path> <path d="M572.302 262.197L567.869 256.216" stroke="#484848"></path> <path d="M579.711 247.689L584.912 253.579" stroke="#484848"></path> <path d="M551.39 301.072C549.555 295.882 548.652 290.28 548.652 284.3C548.652 270.989 553.175 259.644 562.244 250.236C571.314 240.827 582.253 236.135 595.055 236.135C607.885 236.135 618.824 240.827 627.893 250.236C636.94 259.644 641.458 270.989 641.458 284.3C641.458 289.93 640.639 295.205 639.03 300.129" stroke="#484848"></path> <path d="M579.711 247.689C584.517 245.577 589.628 244.521 595.032 244.521C599.527 244.521 603.961 245.311 608.315 246.864" stroke="#484848"></path> <path d="M589.769 276.62L582.789 276.332V276.36" stroke="#484848"></path> <path d="M577.108 268.679C576.826 269.03 576.543 269.385 576.289 269.735C573.692 273.225 572.189 277.212 571.766 281.64" stroke="#484848"></path> <path d="M582.789 276.36H582.761L577.108 268.679" stroke="#484848"></path> <path d="M583.382 280.872C583.58 281.487 583.947 281.956 584.512 282.25C585.105 282.572 585.698 282.628 586.291 282.425C586.912 282.216 587.364 281.809 587.674 281.194C587.872 280.753 587.956 280.285 587.928 279.85C587.9 279.703 587.872 279.528 587.815 279.347C587.618 278.703 587.222 278.235 586.658 277.941C586.065 277.619 585.472 277.591 584.851 277.794C584.258 277.997 583.806 278.381 583.495 278.997C583.354 279.262 583.298 279.556 583.269 279.85C583.241 280.166 583.275 280.522 583.382 280.872Z" stroke="#484848"></path> <path d="M586.55 285.006L583.777 291.748L583.749 291.777" stroke="#484848"></path> <path d="M563.995 281.431L571.766 281.634" stroke="#484848"></path> <path d="M571.766 281.634L580.897 281.866" stroke="#484848"></path> <path d="M580.897 281.866L582.789 276.36" stroke="#484848"></path> <path d="M563.995 281.431C564.277 277.591 565.181 273.982 566.734 270.588C568.089 267.567 569.953 264.783 572.302 262.202" stroke="#484848"></path> <path d="M594.292 271.577L594.123 271.548C594.038 271.548 593.954 271.548 593.869 271.548C593.784 271.548 593.699 271.548 593.615 271.548L593.445 271.577" stroke="#484848"></path> <path d="M595.591 272.311C595.507 272.226 595.45 272.164 595.366 272.108C595.027 271.842 594.66 271.667 594.293 271.577" stroke="#484848"></path> <path d="M590.842 270.583H590.786L587.538 261.203" stroke="#484848"></path> <path d="M590.842 270.583V270.611L589.769 276.62" stroke="#484848"></path> <path d="M593.445 271.577C593.078 271.667 592.711 271.842 592.372 272.108C592.288 272.164 592.231 272.226 592.147 272.311" stroke="#484848"></path> <path d="M593.276 276.332C592.768 276.185 592.344 275.919 592.005 275.479C591.638 274.982 591.469 274.395 591.525 273.751C591.554 273.723 591.554 273.723 591.554 273.694C591.61 273.141 591.808 272.695 592.147 272.316" stroke="#484848"></path> <path d="M592.147 272.311C592.118 272.345 592.09 272.401 592.062 272.429C591.751 272.842 591.582 273.276 591.554 273.745C591.525 273.892 591.525 274.067 591.554 274.242C591.638 274.886 591.921 275.417 592.401 275.852C592.683 276.06 592.965 276.23 593.276 276.32" stroke="#484848"></path> <path d="M594.321 276.36C594.688 276.275 595.027 276.123 595.337 275.863C595.817 275.422 596.1 274.897 596.184 274.253C596.213 274.078 596.213 273.903 596.184 273.756C596.156 273.288 595.987 272.847 595.676 272.441C595.648 272.412 595.62 272.35 595.591 272.322" stroke="#484848"></path> <path d="M593.276 276.332L593.615 276.388C593.7 276.388 593.784 276.388 593.869 276.416C593.954 276.388 594.039 276.388 594.123 276.388C594.151 276.388 594.151 276.388 594.151 276.388L594.321 276.36" stroke="#484848"></path> <path d="M595.591 272.311C595.93 272.689 596.128 273.135 596.184 273.689C596.184 273.717 596.184 273.717 596.184 273.745C596.269 274.389 596.1 274.976 595.733 275.473C595.366 275.948 594.886 276.236 594.321 276.354" stroke="#484848"></path> <path d="M594.293 271.577C594.829 271.667 595.253 271.932 595.591 272.311" stroke="#484848"></path> <path d="M592.147 272.311C592.485 271.932 592.909 271.667 593.445 271.577" stroke="#484848"></path> <path d="M597.969 276.62L596.89 270.729L596.952 270.583" stroke="#484848"></path> <path d="M604.243 278.997C604.384 279.262 604.441 279.556 604.469 279.85C604.497 280.172 604.469 280.522 604.356 280.872C604.271 281.137 604.158 281.403 603.989 281.606C603.791 281.871 603.537 282.103 603.226 282.25C602.633 282.572 602.04 282.628 601.447 282.425C600.996 282.278 600.629 282.013 600.346 281.662C600.233 281.516 600.149 281.369 600.064 281.194C599.866 280.753 599.782 280.285 599.81 279.85C599.838 279.703 599.866 279.528 599.923 279.347C600.12 278.703 600.516 278.235 601.08 277.941C601.673 277.619 602.266 277.591 602.888 277.794C603.481 277.997 603.932 278.381 604.243 278.997Z" stroke="#484848"></path> <path d="M604.949 276.36V276.332L597.969 276.62" stroke="#484848"></path> <path d="M604.949 276.36H604.977L611.703 267.24" stroke="#484848"></path> <path d="M601.188 285.006L606.841 281.866" stroke="#484848"></path> <path d="M603.989 291.777L603.961 291.748L601.188 285.006" stroke="#484848"></path> <path d="M599.24 295.03L603.961 291.777H603.989" stroke="#484848"></path> <path d="M598.901 288.23C599.127 288.14 599.381 288.112 599.635 288.112C600.284 288.112 600.821 288.349 601.301 288.818C601.753 289.32 601.979 289.874 601.979 290.546C601.979 291.218 601.753 291.777 601.301 292.245C600.821 292.748 600.284 292.98 599.635 292.98C599.381 292.98 599.127 292.951 598.901 292.861C598.562 292.742 598.251 292.539 597.997 292.245C597.517 291.777 597.291 291.218 597.291 290.546C597.291 289.874 597.517 289.314 597.997 288.818C598.251 288.552 598.562 288.349 598.901 288.23Z" stroke="#484848"></path> <path d="M588.837 288.23C588.612 288.14 588.357 288.112 588.103 288.112C587.454 288.112 586.917 288.349 586.437 288.818C585.986 289.32 585.76 289.874 585.76 290.546C585.76 291.218 585.986 291.777 586.437 292.245C586.917 292.748 587.454 292.98 588.103 292.98C588.357 292.98 588.612 292.951 588.837 292.861C589.176 292.742 589.487 292.539 589.741 292.245C590.221 291.777 590.447 291.218 590.447 290.546C590.447 289.874 590.221 289.314 589.741 288.818C589.487 288.552 589.176 288.349 588.837 288.23Z" stroke="#484848"></path> <path d="M596.952 270.583H590.842" stroke="#484848"></path> <path d="M606.841 281.866L604.949 276.36" stroke="#484848"></path> <path d="M589.713 307.9L589.515 295.939" stroke="#484848"></path> <path d="M589.515 295.939L594.829 291.105" stroke="#484848"></path> <path d="M603.17 307.081L599.24 295.03" stroke="#484848"></path> <path d="M605.175 322.763L605.711 314.789" stroke="#484848"></path> <path d="M589.882 316.195L589.713 307.9" stroke="#484848"></path> <path d="M605.711 314.789L603.17 307.081" stroke="#484848"></path> <path d="M566.373 297.176C567.897 300.779 570.128 304.122 573.042 307.143C577.876 312.158 583.472 315.173 589.888 316.201" stroke="#484848"></path> <path d="M573.917 294.826C574.567 296.204 575.357 297.497 576.289 298.757C576.571 299.135 576.882 299.547 577.193 299.931C577.616 300.428 578.04 300.897 578.52 301.394C578.83 301.716 579.169 302.038 579.48 302.36C582.501 305.2 585.923 307.053 589.713 307.9" stroke="#484848"></path> <path d="M573.917 294.826L566.372 297.176" stroke="#484848"></path> <path d="M594.829 291.105L605.175 322.763" stroke="#484848"></path> <path d="M583.749 291.777L573.917 294.826" stroke="#484848"></path> <path d="M580.897 281.866L586.55 285.006" stroke="#484848"></path> <path d="M583.749 291.777L589.515 295.939" stroke="#484848"></path> <path d="M594.829 291.105L599.24 295.03" stroke="#484848"></path> <path d="M537.487 291.63C536.838 291.455 536.16 291.308 535.482 291.161C532.935 290.636 530.225 290.371 527.339 290.399L521.234 290.314" stroke="#484848"></path> <path d="M629 237.806C619.304 230.036 608.083 226.139 595.281 226.139C579.847 226.139 566.677 231.798 555.795 243.086C544.885 254.398 538.95 268.064 537.961 284.04L537.481 291.63" stroke="#484848"></path> <path d="M356.748 277.738L523.409 280.99C524.002 281.019 524.566 280.957 525.046 280.872" stroke="#484848"></path> <path d="M521.234 290.314L525.956 280.606" stroke="#484848"></path> <path d="M525.052 280.872C525.391 280.815 525.701 280.725 525.956 280.606" stroke="#484848"></path> <path d="M556.676 284.599L556.733 284.565H556.761L563.995 281.431" stroke="#484848"></path> <path d="M556.676 284.599V284.452C556.676 284.396 556.676 284.334 556.676 284.305C556.902 273.107 560.629 263.755 567.869 256.216" stroke="#484848"></path> <path d="M534.686 299.869C534.94 300.078 535.194 300.219 535.477 300.366C536.465 300.863 537.707 301.1 539.21 301.072H551.391" stroke="#484848"></path> <path d="M232.593 295.882C233.412 297.289 234.711 297.994 236.49 298.023L532.427 300.282C533.303 300.248 534.037 300.107 534.686 299.869" stroke="#484848"></path> <path d="M537.487 291.63L537.233 296.029C537.148 297.639 536.584 298.785 535.482 299.485C535.228 299.632 534.974 299.751 534.692 299.869" stroke="#484848"></path> <path d="M559.387 299.344C557.608 294.798 556.705 289.874 556.677 284.599" stroke="#484848"></path> <path d="M639.035 300.135C636.827 306.849 633.128 312.886 627.899 318.313C618.83 327.721 607.891 332.414 595.06 332.414C582.258 332.414 571.32 327.727 562.25 318.313C557.275 313.157 553.661 307.408 551.396 301.078" stroke="#484848"></path> <path d="M559.387 299.344L566.373 297.176" stroke="#484848"></path> <path d="M596.952 270.583L600.397 260.559" stroke="#484848"></path> <path d="M579.711 247.689L589.769 276.619" stroke="#484848"></path> <path d="M586.55 285.006L556.676 284.599" stroke="#484848"></path> <path d="M590.023 323.763C581.575 322.707 574.194 318.929 567.926 312.417C564.108 308.459 561.285 304.122 559.387 299.344" stroke="#484848"></path> <path d="M572.302 262.197L577.108 268.68" stroke="#484848"></path> <path d="M636.404 230.098C636.602 230.245 636.771 230.42 636.969 230.566" stroke="#484848"></path> <path d="M636.969 230.566C638.86 232.176 640.724 233.938 642.537 235.841C645.502 238.947 648.105 242.2 650.392 245.633C657.09 255.629 660.851 266.889 661.698 279.432C661.698 282.16 663.674 283.741 667.661 284.181C683.519 285.322 697.366 285.706 709.208 285.322C712.178 285.175 713.223 284.497 712.291 283.3" stroke="#484848"></path> <path d="M608.309 246.864C612.889 248.564 617.068 251.235 620.857 254.872" stroke="#484848"></path> <path d="M620.857 254.872C621.309 255.279 621.761 255.719 622.184 256.16C623.511 257.538 624.697 258.972 625.804 260.44C625.861 260.525 625.917 260.587 625.945 260.649C630.92 267.482 633.405 275.366 633.405 284.306C633.405 284.396 633.405 284.481 633.405 284.571C633.377 290.139 632.361 295.301 630.412 300.022" stroke="#484848"></path> <path d="M616.509 260.762C616.735 260.971 616.961 261.203 617.158 261.406C622.613 267.065 625.635 273.807 626.171 281.572" stroke="#484848"></path> <path d="M620.857 254.872L616.509 260.762" stroke="#484848"></path> <path d="M629 237.806L636.969 230.566" stroke="#484848"></path> <path d="M651.132 298.288V284.068C651.132 280.669 650.878 277.382 650.398 274.219C648.562 262.377 643.361 251.998 634.795 243.086C632.931 241.149 631.005 239.387 629 237.806" stroke="#484848"></path> <path d="M666.814 226.054C666.306 225.292 665.798 224.53 665.261 223.796C661.986 219.074 658.592 214.472 655.113 209.96C654.859 209.61 654.577 209.254 654.294 208.904" stroke="#484848"></path> <path d="M710.394 240.624L682.327 237.868C676.957 237.021 673.258 235.259 671.191 232.532C670.146 230.922 669.073 229.307 667.966 227.726" stroke="#484848"></path> <path d="M667.972 227.726C667.605 227.167 667.21 226.614 666.814 226.054" stroke="#484848"></path> <path d="M675.093 261.643C670.344 261.265 665.623 260.706 660.964 260.028C677.527 261.287 694.232 261.287 711.043 260.028" stroke="#484848"></path> <path d="M666.814 226.054L695.384 227.929C696.88 228.02 698.326 228.223 699.709 228.545" stroke="#484848"></path> <path d="M707.514 280.403C707.514 280.55 707.514 280.697 707.486 280.844C707.231 282.278 706.384 283.069 704.916 283.278C698.134 283.921 691.154 284.012 683.976 283.571C682.028 283.424 680.723 282.368 680.102 280.375L675.099 261.643" stroke="#484848"></path> <path d="M651.132 298.288C651.188 299.666 652.035 300.31 653.673 300.282C656.412 300.078 659.156 299.869 661.895 299.666C670.519 298.994 679.108 298.113 687.641 297.085C702.392 295.329 710.761 291.839 712.737 286.587C713.189 285.328 713.048 284.243 712.286 283.306" stroke="#484848"></path> <path d="M626.171 281.572H626.256L633.377 284.565L601.188 285.006" stroke="#484848"></path> <path d="M611.703 267.24C615.605 271.317 617.807 276.151 618.316 281.691" stroke="#484848"></path> <path d="M618.316 281.691L626.171 281.572" stroke="#484848"></path> <path d="M639.036 300.135C642.057 298.26 645.846 297.616 650.398 298.203C650.652 298.232 650.878 298.26 651.132 298.294" stroke="#484848"></path> <path d="M615.859 295.442C614.871 297.407 613.572 299.22 612.014 300.953C611.872 301.1 611.731 301.247 611.59 301.394C611.28 301.721 610.941 302.038 610.602 302.365C608.371 304.477 605.881 306.059 603.17 307.086" stroke="#484848"></path> <path d="M605.711 314.789C609.924 313.236 613.736 310.684 617.158 307.137C618.146 306.109 619.05 305.053 619.869 303.969C620.631 302.941 621.337 301.919 621.987 300.829C622.467 299.982 622.918 299.129 623.314 298.248C623.37 298.13 623.427 297.983 623.511 297.842" stroke="#484848"></path> <path d="M630.412 300.016C628.543 304.528 625.804 308.662 622.184 312.412C617.971 316.754 613.312 319.889 608.139 321.797C607.179 322.148 606.191 322.469 605.169 322.763" stroke="#484848"></path> <path d="M623.517 297.847L615.859 295.442" stroke="#484848"></path> <path d="M630.412 300.016L623.517 297.848" stroke="#484848"></path> <path d="M616.509 260.762L611.703 267.24" stroke="#484848"></path> <path d="M636.404 230.098L654.294 208.904" stroke="#484848"></path> <path d="M605.175 322.763C601.984 323.616 598.59 324.051 595.032 324.051C593.31 324.051 591.638 323.96 590.029 323.757" stroke="#484848"></path> <path d="M608.309 246.864L597.969 276.62" stroke="#484848"></path> <path d="M615.859 295.442L603.989 291.777" stroke="#484848"></path> <path d="M603.057 252.907L608.309 246.864" stroke="#484848"></path> <path d="M618.316 281.691L606.841 281.866" stroke="#484848"></path> <path d="M590.023 323.763L589.882 316.195" stroke="#484848"></path> <path d="M391.743 206.408H394.454C395.273 206.408 395.979 206.114 396.577 205.498C397.142 204.911 397.425 204.177 397.425 203.33C397.425 202.477 397.142 201.743 396.577 201.161C395.985 200.546 395.279 200.252 394.454 200.252H391.405" stroke="#484848"></path> <path d="M391.405 200.252C391.038 199.405 390.529 198.615 389.823 197.88C388.383 196.384 386.627 195.65 384.566 195.65C382.533 195.65 380.777 196.384 379.336 197.88C378.631 198.615 378.122 199.405 377.755 200.252" stroke="#484848"></path> <path d="M377.75 200.252H374.672C373.853 200.252 373.175 200.546 372.582 201.161C371.989 201.743 371.707 202.477 371.707 203.33C371.707 204.177 371.989 204.911 372.582 205.498C373.175 206.114 373.853 206.408 374.672 206.408H377.411" stroke="#484848"></path> <path d="M391.405 200.252H377.75" stroke="#484848"></path> <path d="M377.411 206.408H391.743" stroke="#484848"></path> <path d="M377.411 206.408C377.721 207.667 378.371 208.813 379.331 209.779C380.771 211.276 382.522 212.038 384.56 212.038C386.621 212.038 388.378 211.276 389.818 209.779C390.75 208.813 391.399 207.667 391.738 206.408" stroke="#484848"></path> <path d="M356.748 277.738L355.392 287.643" stroke="#484848"></path> <path d="M355.392 277.709L356.748 277.738" stroke="#484848"></path> <path d="M654.294 208.904C653.645 208.085 653.024 207.266 652.374 206.441" stroke="#484848"></path> <path d="M699.709 228.545L699.963 221.215C700.048 219.487 699.709 218.018 699.003 216.787C696.456 212.716 693.548 209.254 690.301 206.436" stroke="#484848"></path> <path d="M546.218 168.125C508.489 144.7 473.837 126.087 442.297 112.252" stroke="#484848"></path> <path d="M514.198 169.328L519.851 163.522" stroke="#484848"></path> <path d="M525.673 192.956L351.095 186.682" stroke="#484848"></path> <path d="M351.095 186.682C355.957 214.269 357.397 244.611 355.392 277.71" stroke="#484848"></path> <path d="M521.234 290.314L355.392 287.643" stroke="#484848"></path> <path d="M525.673 192.956C529.66 210.338 529.462 239.653 525.052 280.872" stroke="#484848"></path> <path d="M503.4 163.963C509.025 168.656 513.323 173.112 516.287 177.358L487.487 176.212" stroke="#484848"></path> <path d="M706.933 229.454H706.994" stroke="#484848"></path> <path d="M698.834 226.659C699.698 226.845 700.54 227.06 701.347 227.342L706.938 229.454" stroke="#484848"></path> <path d="M710.134 239.438C709.897 238.072 709.598 236.744 709.236 235.44C708.547 233.424 707.802 231.408 706.994 229.454" stroke="#484848"></path> <path d="M710.823 259.966V246.814C710.795 244.244 710.552 241.788 710.134 239.433" stroke="#484848"></path> <path d="M708.4 261.824L710.823 259.966" stroke="#484848"></path> <path d="M712.139 284.588C711.986 284.402 711.811 284.215 711.602 284.063C710.377 283.007 708.88 282.171 707.085 281.516" stroke="#484848"></path> <path d="M707.085 281.516C707.802 274.942 708.254 268.369 708.4 261.824" stroke="#484848"></path> <path d="M707.429 231.182C703.809 222.299 699.145 214.06 693.413 206.436" stroke="#484848"></path> <path d="M667.972 227.726L707.373 231.182" stroke="#484848"></path> <path d="M675.093 261.643C686.145 262.524 697.366 262.58 708.756 261.79" stroke="#484848"></path> <path d="M95.3488 153.555C98.9969 154.402 102.781 153.939 106.711 152.121C106.739 152.093 106.739 152.093 106.739 152.093C144.412 133.299 177.2 119.785 205.148 111.574C205.458 111.489 205.684 111.342 205.888 111.077C206.085 110.811 206.17 110.552 206.198 110.258C206.198 110.077 206.17 109.936 206.142 109.789" stroke="#484848"></path> <path d="M195.005 107.615C195.118 107.705 195.259 107.796 195.401 107.88L200.432 109.959C173.247 118.283 141.616 131.446 105.553 149.444C105.553 149.444 105.553 149.444 105.525 149.444C102.216 150.969 99.0251 151.381 95.9699 150.675H95.9417L89.1312 149.122" stroke="#484848"></path> <path d="M72.0089 176.652C70.9359 175.918 69.8574 175.218 68.8126 174.512C62.7362 170.378 57.1398 166.16 51.9669 161.851" stroke="#484848"></path> <path d="M89.1312 149.128L87.2959 148.721C86.9288 148.636 86.5618 148.721 86.2512 148.925C85.9123 149.128 85.7146 149.45 85.6299 149.862C85.6017 150.037 85.5735 150.212 85.6017 150.393" stroke="#484848"></path> <path d="M85.6017 150.387C85.63 150.591 85.7147 150.771 85.8276 150.946C86.0253 151.296 86.3358 151.505 86.7029 151.59L95.3545 153.555" stroke="#484848"></path> <path d="M38.7693 206.176C45.5234 206.176 50.1881 204.121 52.7914 200.049L62.883 183.31C63.8713 181.17 63.4477 179.442 61.6067 178.059C60.6749 177.443 55.5077 174.365 46.0373 168.882" stroke="#484848"></path> <path d="M63.2726 193.684L66.2939 196.356" stroke="#484848"></path> <path d="M47.4435 165.81C60.2514 173.258 67.2031 177.33 68.2761 178.064C70.1115 179.442 70.535 181.17 69.5524 183.316L63.2727 193.69" stroke="#484848"></path> <path d="M66.2936 196.355L73.2736 181.904C74.2618 179.792 73.8383 178.036 72.003 176.652" stroke="#484848"></path> <path d="M46.3139 156.955L85.6017 150.387" stroke="#484848"></path> <path d="M51.9668 161.851C51.4585 161.444 50.9503 161.032 50.4703 160.62" stroke="#484848"></path> <path d="M41.96 178.121C40.4918 177.386 39.9271 176.246 40.2941 174.749C40.52 173.665 40.7741 172.609 41.0282 171.525C41.4235 169.943 41.8753 168.357 42.3836 166.775C43.4566 163.489 44.7554 160.208 46.314 156.955" stroke="#484848"></path> <path d="M46.0317 168.887C45.4105 170.327 44.8459 171.852 44.3094 173.433C44.1117 173.992 43.9423 174.58 43.7447 175.195" stroke="#484848"></path> <path d="M46.0317 168.887C46.4835 167.803 46.9635 166.781 47.4435 165.81" stroke="#484848"></path> <path d="M50.4703 160.62C49.0585 159.389 47.6693 158.158 46.314 156.955" stroke="#484848"></path> <path d="M50.4703 160.62C49.3691 162.235 48.3809 163.963 47.4434 165.81" stroke="#484848"></path> <path d="M42.8072 178.499C42.5248 178.352 42.2425 178.239 41.9601 178.121" stroke="#484848"></path> <path d="M38.7976 199.902C38.8823 198.055 38.9952 196.209 39.1364 194.39" stroke="#484848"></path> <path d="M38.7976 199.902C38.7355 201.958 38.7355 204.036 38.7637 206.176" stroke="#484848"></path> <path d="M39.1363 194.39C39.6163 188.76 40.582 183.339 41.9656 178.121" stroke="#484848"></path> <path d="M42.8071 178.499C43.1177 177.358 43.4283 176.274 43.7389 175.184" stroke="#484848"></path> <path d="M51.9669 161.851L95.3489 153.555" stroke="#484848"></path> <path d="M38.9668 210.423C48.0363 211.332 54.0337 209.22 56.9985 204.092L63.2725 193.684" stroke="#484848"></path> <path d="M212.472 94.1295L194.751 73.7543C194.666 73.664 194.525 73.6075 194.384 73.6075C194.243 73.6414 194.102 73.6978 193.961 73.8108C193.819 73.9294 193.763 74.0762 193.735 74.223C193.706 74.3699 193.706 74.5167 193.791 74.6353L211.23 95.6825" stroke="#484848"></path> <path d="M226.093 122.541C240.364 115.77 255.261 111.489 270.836 109.642H270.752C292.206 107.999 312.27 107.265 330.923 107.446L334.853 169.797" stroke="#484848"></path> <path d="M339.111 104.04C318.087 103.543 295.221 104.249 270.492 106.124C270.464 106.124 270.464 106.124 270.436 106.152C238.495 109.908 209.242 123.834 182.678 147.897C182.678 147.897 182.678 147.897 182.649 147.925C179.685 150.624 179.058 154.611 180.814 159.914V159.942L182.141 163.811C182.847 166.216 184.711 167.538 187.738 167.741" stroke="#484848"></path> <path d="M198.111 105.825L196.445 105.153C196.078 105.006 195.74 105.006 195.372 105.153C195.005 105.3 194.751 105.593 194.61 105.972C194.497 106.294 194.497 106.649 194.582 106.971C194.61 107 194.61 107.062 194.638 107.09C194.723 107.293 194.864 107.468 195.005 107.615" stroke="#484848"></path> <path d="M211.224 95.6825L212.241 96.8854C212.466 97.1508 212.721 97.3259 213.031 97.3541C213.342 97.4106 213.596 97.3541 213.794 97.1791C213.991 97.004 214.104 96.7386 214.076 96.3884C214.048 96.0948 213.935 95.8068 213.709 95.5413L212.466 94.1352" stroke="#484848"></path> <path d="M212.89 99.6129C213.455 99.4944 214.02 99.3758 214.584 99.2628C218.537 98.5004 222.609 97.8284 226.822 97.2693" stroke="#484848"></path> <path d="M232.791 98.9974C226.715 99.7033 220.892 100.584 215.324 101.669C214.449 101.844 213.545 102.019 212.664 102.222" stroke="#484848"></path> <path d="M212.664 102.222L212.89 99.6129" stroke="#484848"></path> <path d="M212.664 102.222C212.523 102.25 212.354 102.278 212.213 102.312C211.224 102.516 210.208 102.719 209.214 102.956C205.402 103.809 201.697 104.774 198.106 105.83" stroke="#484848"></path> <path d="M226.828 97.2695L221.203 93.3108C220.13 92.6105 218.882 92.4016 217.498 92.6952L212.467 94.1296" stroke="#484848"></path> <path d="M212.89 99.6129L211.224 95.6824" stroke="#484848"></path> <path d="M226.828 97.2692C227.138 97.2071 227.421 97.1506 227.731 97.1224C229.454 96.8852 231.148 97.5008 232.791 98.9973" stroke="#484848"></path> <path d="M222.191 124.472C223.49 123.8 224.789 123.156 226.088 122.541" stroke="#484848"></path> <path d="M229.905 165.894L225.811 165.753" stroke="#484848"></path> <path d="M230.933 198.569H233.644C234.463 198.569 235.168 198.276 235.761 197.66C236.326 197.073 236.608 196.339 236.608 195.492C236.608 194.639 236.326 193.905 235.761 193.323C235.168 192.707 234.463 192.414 233.644 192.414H230.594" stroke="#484848"></path> <path d="M230.594 192.414C230.227 191.567 229.719 190.77 229.007 190.042C227.567 188.545 225.817 187.811 223.75 187.811C221.717 187.811 219.96 188.545 218.52 190.042C217.814 190.77 217.306 191.567 216.933 192.414" stroke="#484848"></path> <path d="M216.939 192.414H213.861C213.043 192.414 212.359 192.707 211.766 193.323C211.173 193.91 210.891 194.639 210.891 195.492C210.891 196.339 211.173 197.073 211.766 197.66C212.359 198.276 213.037 198.569 213.861 198.569H216.6" stroke="#484848"></path> <path d="M216.6 198.569C216.911 199.834 217.56 200.975 218.526 201.941C219.966 203.437 221.717 204.194 223.755 204.194C225.817 204.194 227.567 203.432 229.013 201.941C229.945 200.969 230.6 199.829 230.939 198.569" stroke="#484848"></path> <path d="M230.594 192.414H216.939" stroke="#484848"></path> <path d="M216.6 198.569H230.933" stroke="#484848"></path> <path d="M225.811 165.753L187.969 164.228C186.642 164.138 185.761 163.613 185.365 162.642C185.365 162.613 185.365 162.613 185.337 162.613L184.01 158.745M184.01 158.745V158.773C184.01 158.745 184.01 158.745 184.01 158.745ZM184.01 158.745C182.824 155.136 183.135 152.381 184.942 150.534H184.914C196.812 139.776 209.219 131.068 222.191 124.472" stroke="#484848"></path> <path d="M187.737 167.741H187.766L348.61 174.162" stroke="#484848"></path> <path d="M187.738 167.741C184.795 167.944 185.196 172.344 188.952 180.877" stroke="#484848"></path> <path d="M225.811 165.753L222.191 124.472" stroke="#484848"></path> <path d="M229.905 165.894L226.093 122.541" stroke="#484848"></path> <path d="M218.854 234.554L201.81 204.973C195.875 194.887 191.578 186.857 188.952 180.877" stroke="#484848"></path> <path d="M164.877 259.237C167.306 258.385 169.932 257.944 172.733 257.944C174.687 257.944 176.522 258.153 178.301 258.56" stroke="#484848"></path> <path d="M178.301 258.565L181.068 250.558" stroke="#484848"></path> <path d="M186.58 244.255C182.028 242.618 177.392 241.793 172.699 241.793C167.046 241.793 161.704 242.906 156.678 245.108" stroke="#484848"></path> <path d="M181.068 250.558L186.58 244.255" stroke="#484848"></path> <path d="M181.068 250.558C178.442 249.852 175.669 249.501 172.761 249.501C169.085 249.501 165.64 250.055 162.415 251.173C162.331 251.201 162.218 251.23 162.133 251.263" stroke="#484848"></path> <path d="M162.133 251.263L164.877 259.237" stroke="#484848"></path> <path d="M156.678 245.108L162.133 251.264" stroke="#484848"></path> <path d="M199.693 252.613C200.173 253.054 200.625 253.494 201.082 253.963C202.466 255.397 203.708 256.894 204.866 258.419C204.922 258.509 204.979 258.599 205.007 258.656C210.208 265.783 212.811 274.016 212.811 283.368C212.811 283.458 212.811 283.549 212.811 283.633C212.783 289.467 211.738 294.832 209.671 299.785" stroke="#484848"></path> <path d="M218.854 234.553C218.543 233.994 218.148 233.497 217.696 233.029C204.611 219.453 188.81 212.682 170.304 212.682C152.951 212.682 137.997 218.634 125.42 230.567" stroke="#484848"></path> <path d="M205.232 280.522L197.038 280.64" stroke="#484848"></path> <path d="M205.233 280.522H205.317L212.783 283.628L179.12 284.096" stroke="#484848"></path> <path d="M142.266 232.148C150.663 226.901 160.128 224.264 170.671 224.264C186.1 224.264 199.269 229.923 210.179 241.211C221.062 252.523 227.618 265.54 229.792 280.285L231.599 292.454C231.741 293.86 232.079 295.007 232.588 295.882" stroke="#484848"></path> <path d="M219.819 295.882H232.593" stroke="#484848"></path> <path d="M202.465 297.526C202.381 297.672 202.324 297.819 202.268 297.932C201.844 298.87 201.387 299.779 200.884 300.626C200.207 301.772 199.472 302.856 198.653 303.913C197.773 305.053 196.841 306.171 195.824 307.227C192.266 310.921 188.28 313.592 183.869 315.23" stroke="#484848"></path> <path d="M209.671 299.779C207.723 304.5 204.865 308.809 201.082 312.734C196.699 317.28 191.815 320.532 186.41 322.554C185.394 322.904 184.349 323.226 183.304 323.548" stroke="#484848"></path> <path d="M202.465 297.526L209.671 299.779" stroke="#484848"></path> <path d="M219.819 295.882C217.786 304.5 213.517 312.18 207.045 318.895C197.575 328.715 186.128 333.64 172.733 333.64C159.338 333.64 147.891 328.715 138.426 318.895C130.712 310.887 126.16 301.541 124.72 290.839" stroke="#484848"></path> <path d="M124.714 290.839C124.404 288.405 124.234 285.915 124.234 283.362C124.234 269.436 128.955 257.594 138.42 247.773C147.89 237.953 159.337 233.029 172.727 233.029C186.122 233.029 197.569 237.953 207.039 247.773C216.504 257.594 221.225 269.436 221.225 283.362C221.225 287.733 220.745 291.924 219.814 295.882" stroke="#484848"></path> <path d="M153.967 267.036C153.656 267.415 153.374 267.77 153.12 268.149C150.409 271.814 148.822 275.948 148.399 280.578" stroke="#484848"></path> <path d="M159.902 275.067V275.038L167.193 275.332" stroke="#484848"></path> <path d="M153.967 267.036L159.874 275.067H159.902" stroke="#484848"></path> <path d="M160.411 278.704C160.382 279.054 160.411 279.409 160.524 279.788C160.721 280.432 161.117 280.9 161.71 281.222C162.302 281.544 162.924 281.606 163.573 281.397C164.222 281.194 164.703 280.753 165.013 280.11C165.211 279.641 165.295 279.172 165.267 278.704C165.239 278.557 165.211 278.382 165.154 278.178C164.957 277.506 164.533 277.032 163.94 276.71C163.347 276.388 162.698 276.36 162.048 276.563C161.427 276.772 160.947 277.207 160.637 277.823C160.495 278.116 160.439 278.41 160.411 278.704Z" stroke="#484848"></path> <path d="M169.96 270.555C170.27 270.317 170.638 270.171 171.038 270.086L171.208 270.058C171.321 270.058 171.406 270.058 171.49 270.058C171.575 270.058 171.66 270.058 171.744 270.058L171.914 270.086" stroke="#484848"></path> <path d="M169.847 270.673C169.875 270.645 169.875 270.645 169.903 270.617C169.932 270.588 169.932 270.588 169.96 270.56" stroke="#484848"></path> <path d="M169.684 270.847C169.74 270.791 169.796 270.729 169.853 270.673" stroke="#484848"></path> <path d="M169.847 270.673C169.875 270.645 169.932 270.588 169.96 270.555" stroke="#484848"></path> <path d="M167.193 275.332L168.322 269.058V269.03" stroke="#484848"></path> <path d="M168.322 269.03H168.266L164.877 259.237" stroke="#484848"></path> <path d="M169.683 270.848C169.655 270.876 169.627 270.939 169.598 270.967C169.288 271.407 169.09 271.848 169.062 272.345C169.034 272.491 169.034 272.667 169.062 272.87C169.147 273.542 169.429 274.101 169.937 274.541C170.248 274.773 170.558 274.954 170.869 275.038" stroke="#484848"></path> <path d="M170.869 275.038C170.333 274.892 169.909 274.598 169.542 274.163C169.147 273.604 168.977 273.017 169.034 272.345C169.062 272.316 169.062 272.316 169.062 272.283C169.118 271.729 169.316 271.227 169.683 270.848" stroke="#484848"></path> <path d="M172.592 274.863C172.479 274.925 172.366 274.982 172.225 275.01L171.773 275.1H171.745C171.66 275.1 171.575 275.1 171.49 275.129C171.406 275.1 171.293 275.1 171.208 275.1L170.869 275.044" stroke="#484848"></path> <path d="M167.899 289.902C167.899 289.202 167.645 288.586 167.159 288.083C166.905 287.79 166.594 287.586 166.227 287.468C165.973 287.383 165.719 287.349 165.465 287.349C164.787 287.349 164.194 287.586 163.714 288.083C163.234 288.58 163.008 289.202 163.008 289.902C163.008 290.574 163.234 291.161 163.714 291.664C164.194 292.161 164.787 292.426 165.465 292.426C165.719 292.426 165.973 292.392 166.227 292.307C166.594 292.189 166.905 291.986 167.159 291.664C167.645 291.161 167.899 290.574 167.899 289.902Z" stroke="#484848"></path> <path d="M163.833 284.097L160.947 291.161L160.919 291.19" stroke="#484848"></path> <path d="M159.902 275.066L157.926 280.815" stroke="#484848"></path> <path d="M157.926 280.815L163.833 284.097" stroke="#484848"></path> <path d="M173.89 272.345C173.862 271.848 173.693 271.407 173.382 270.967C173.354 270.939 173.326 270.876 173.297 270.848" stroke="#484848"></path> <path d="M173.297 270.848C173.213 270.763 173.128 270.701 173.043 270.617C172.676 270.351 172.309 270.176 171.914 270.086" stroke="#484848"></path> <path d="M175.754 275.332L174.653 269.176L174.709 269.03" stroke="#484848"></path> <path d="M190.115 265.54L183.044 275.067" stroke="#484848"></path> <path d="M183.044 275.067V275.038L175.754 275.332" stroke="#484848"></path> <path d="M182.57 278.704C182.599 279.054 182.57 279.409 182.429 279.788C182.344 280.053 182.231 280.319 182.056 280.55C181.859 280.844 181.576 281.081 181.266 281.222C180.645 281.544 180.023 281.606 179.402 281.397C178.922 281.25 178.555 280.991 178.245 280.607C178.132 280.46 178.047 280.313 177.962 280.11C177.736 279.641 177.652 279.172 177.68 278.704C177.708 278.557 177.736 278.382 177.793 278.178C178.019 277.506 178.414 277.032 179.007 276.71C179.628 276.388 180.249 276.36 180.899 276.563C181.548 276.772 182 277.207 182.311 277.823C182.457 278.116 182.542 278.41 182.57 278.704Z" stroke="#484848"></path> <path d="M172.591 274.863C172.733 274.773 172.874 274.66 173.015 274.541C173.523 274.101 173.806 273.542 173.89 272.87C173.89 272.779 173.89 272.689 173.89 272.604" stroke="#484848"></path> <path d="M173.89 272.604C173.919 273.163 173.777 273.689 173.439 274.157C173.185 274.445 172.902 274.683 172.592 274.858" stroke="#484848"></path> <path d="M173.89 272.345V272.604" stroke="#484848"></path> <path d="M173.297 270.848C173.636 271.227 173.834 271.729 173.89 272.283C173.89 272.311 173.89 272.311 173.89 272.345" stroke="#484848"></path> <path d="M179.967 289.902C179.967 290.574 179.741 291.161 179.261 291.664C178.781 292.161 178.188 292.426 177.51 292.426C177.228 292.426 176.974 292.392 176.748 292.307C176.381 292.189 176.07 291.986 175.788 291.664C175.308 291.167 175.054 290.579 175.054 289.902C175.054 289.202 175.308 288.586 175.788 288.083C176.07 287.79 176.381 287.586 176.748 287.468C176.974 287.383 177.228 287.349 177.51 287.349C178.188 287.349 178.781 287.586 179.261 288.083C179.741 288.58 179.967 289.202 179.967 289.902Z" stroke="#484848"></path> <path d="M179.12 284.097L182.028 291.161L182.056 291.19" stroke="#484848"></path> <path d="M179.12 284.097L185.027 280.815" stroke="#484848"></path> <path d="M185.027 280.815L183.045 275.066" stroke="#484848"></path> <path d="M181.209 307.171L177.087 294.595" stroke="#484848"></path> <path d="M194.463 295.001C193.419 297.051 192.058 298.988 190.454 300.778C190.313 300.925 190.143 301.072 190.002 301.219C189.663 301.569 189.324 301.925 188.957 302.247C186.614 304.443 184.038 306.087 181.215 307.171" stroke="#484848"></path> <path d="M183.869 315.23L181.209 307.171" stroke="#484848"></path> <path d="M167.136 308.018C163.183 307.109 159.62 305.2 156.452 302.241C156.113 301.919 155.774 301.569 155.435 301.213C154.955 300.716 154.475 300.186 154.052 299.689C153.741 299.282 153.43 298.87 153.12 298.458C152.16 297.142 151.335 295.792 150.629 294.352" stroke="#484848"></path> <path d="M167.136 308.018L166.939 295.532" stroke="#484848"></path> <path d="M142.746 296.82C144.356 300.598 146.677 304.059 149.726 307.227C154.758 312.474 160.608 315.608 167.306 316.692" stroke="#484848"></path> <path d="M167.306 316.692L167.136 308.018" stroke="#484848"></path> <path d="M174.709 269.03H168.322" stroke="#484848"></path> <path d="M150.63 294.358L160.919 291.189" stroke="#484848"></path> <path d="M160.919 291.189L166.939 295.532" stroke="#484848"></path> <path d="M166.939 295.532L172.479 290.489" stroke="#484848"></path> <path d="M172.479 290.489L177.087 294.595" stroke="#484848"></path> <path d="M177.087 294.595L182.056 291.189" stroke="#484848"></path> <path d="M171.914 270.086C172.479 270.176 172.93 270.436 173.297 270.848" stroke="#484848"></path> <path d="M182.056 291.189L194.463 295.001" stroke="#484848"></path> <path d="M186.58 244.255L175.754 275.332" stroke="#484848"></path> <path d="M195.141 258.769L190.115 265.54" stroke="#484848"></path> <path d="M174.709 269.03L178.301 258.565" stroke="#484848"></path> <path d="M156.678 245.108L167.193 275.332" stroke="#484848"></path> <path d="M185.027 280.815L197.039 280.64" stroke="#484848"></path> <path d="M197.039 280.641C196.502 274.835 194.209 269.792 190.115 265.54" stroke="#484848"></path> <path d="M199.693 252.613L195.141 258.769" stroke="#484848"></path> <path d="M195.141 258.769C195.367 258.972 195.593 259.209 195.819 259.441C201.528 265.365 204.668 272.401 205.232 280.522" stroke="#484848"></path> <path d="M194.463 295.001L202.465 297.526" stroke="#484848"></path> <path d="M186.58 244.255C191.351 246.045 195.734 248.829 199.693 252.607" stroke="#484848"></path> <path d="M240.025 275.451L218.854 234.553" stroke="#484848"></path> <path d="M355.392 287.643L259.869 286.09C250.399 286.118 244.294 283.566 241.555 278.382L240.031 275.451" stroke="#484848"></path> <path d="M183.305 323.554C179.939 324.463 176.409 324.903 172.705 324.903C170.926 324.903 169.175 324.819 167.475 324.61" stroke="#484848"></path> <path d="M167.475 324.61L167.306 316.692" stroke="#484848"></path> <path d="M172.479 290.489L183.305 323.554" stroke="#484848"></path> <path d="M183.305 323.554L183.869 315.23" stroke="#484848"></path> <path d="M28 228.951V228.658L38.9669 210.428" stroke="#484848"></path> <path d="M28 255.691C28.8245 256.482 30.1798 257.012 32.0716 257.334L95.7158 265.099C100.522 265.805 104 263.953 106.118 259.588C109.71 249.767 115.334 240.912 122.936 233.029C123.76 232.176 124.601 231.357 125.426 230.566" stroke="#484848"></path> <path d="M62.4539 284.125L43.4905 279.375C34.0822 276.885 28.9037 271.661 28.0002 263.659V258.853" stroke="#484848"></path> <path d="M28 258.859V255.691" stroke="#484848"></path> <path d="M66.2939 196.356L53.7458 222.333C51.0916 227.754 42.4965 229.985 28.0001 228.957" stroke="#484848"></path> <path d="M28 255.691V228.951" stroke="#484848"></path> <path d="M125.42 230.567L110.212 229.104C104.927 228.545 100.573 226.76 97.1843 223.683L66.294 196.361" stroke="#484848"></path> <path d="M144.299 254.019C144.327 253.991 144.355 253.991 144.384 253.963C148.116 250.066 152.211 247.135 156.678 245.108" stroke="#484848"></path> <path d="M148.935 260.265L144.299 254.019" stroke="#484848"></path> <path d="M142.266 232.148C138.335 234.582 134.665 237.597 131.186 241.211C120.276 252.523 114.34 266.183 113.352 282.165L112.985 288.112C112.957 288.784 112.816 289.343 112.618 289.84" stroke="#484848"></path> <path d="M125.42 230.566L142.266 232.148" stroke="#484848"></path> <path d="M112.618 289.84C111.94 291.393 110.415 292.008 108.01 291.63L65.7572 284.893C64.9666 284.746 64.176 284.571 63.3854 284.362L62.4536 284.125" stroke="#484848"></path> <path d="M112.618 289.84L124.715 290.839" stroke="#484848"></path> <path d="M140.255 280.375L148.399 280.578" stroke="#484848"></path> <path d="M132.626 283.684L132.688 283.656L140.255 280.375" stroke="#484848"></path> <path d="M132.626 283.684V283.509C132.626 283.453 132.626 283.39 132.626 283.362C132.852 271.667 136.754 261.875 144.299 254.019" stroke="#484848"></path> <path d="M140.256 280.375C140.566 276.36 141.526 272.576 143.141 269.03C144.553 265.89 146.479 262.959 148.935 260.265" stroke="#484848"></path> <path d="M135.455 299.079L142.746 296.82" stroke="#484848"></path> <path d="M167.475 324.61C158.632 323.492 150.912 319.533 144.384 312.734C140.402 308.6 137.404 304.059 135.45 299.073" stroke="#484848"></path> <path d="M135.455 299.079C133.62 294.329 132.654 289.202 132.626 283.684" stroke="#484848"></path> <path d="M28.0002 258.859C39.5036 272.463 50.9788 280.872 62.4539 284.125" stroke="#484848"></path> <path d="M89.1313 149.128C116.012 135.552 151.307 121.722 195.005 107.615" stroke="#484848"></path> <path d="M148.399 280.578L157.926 280.816" stroke="#484848"></path> <path d="M153.967 267.036L148.935 260.265" stroke="#484848"></path> <path d="M163.833 284.097L132.626 283.684" stroke="#484848"></path> <path d="M150.629 294.358L142.746 296.82" stroke="#484848"></path> <path d="M188.952 180.876L72.0089 176.652" stroke="#484848"></path> <path d="M38.7694 206.176C38.8032 207.582 38.8823 208.988 38.9727 210.423" stroke="#484848"></path> <path d="M349.881 170.706L229.905 165.894" stroke="#484848"></path> <path d="M240.025 275.451L355.392 277.71" stroke="#484848"></path> <path d="M188.952 180.877L351.095 186.682" stroke="#484848"></path> </svg> 