<?xml version="1.0" encoding="UTF-8"?> <svg xmlns="http://www.w3.org/2000/svg" width="546" height="218" viewBox="0 0 546 218" fill="none"> <path fill-rule="evenodd" clip-rule="evenodd" d="M177.053 99.2366H198.746V99.8689H177.661V116.757H177.053V99.5529C177.053 99.5528 177.053 99.5528 177.357 99.5528L177.053 99.5529V99.2366Z" fill="#333333"></path> <path fill-rule="evenodd" clip-rule="evenodd" d="M198.746 80.8816H212.426V83.7089H222.107V84.328H211.8V81.5007H199.371V135.112H198.746V81.1918C198.746 81.1914 198.746 81.1912 199.059 81.1912H198.746V80.8816Z" fill="#333333"></path> <path fill-rule="evenodd" clip-rule="evenodd" d="M217.101 124.266V89.2249H217.935V124.266H217.101Z" fill="#333333"></path> <path fill-rule="evenodd" clip-rule="evenodd" d="M222.941 48.3433H257.983V57.8398H257.369V48.9557H223.555V93.3965H222.941V48.3433Z" fill="#333333"></path> <path fill-rule="evenodd" clip-rule="evenodd" d="M242.965 108.414V50.8462H243.799V108.414H242.965Z" fill="#333333"></path> <path fill-rule="evenodd" clip-rule="evenodd" d="M253.11 58.355H273.835V65.153H270.96V64.535H273.214V58.973H253.73V65.0212H246.983L246.978 67.815C246.974 69.7896 246.969 72.6112 246.964 75.9993C246.953 82.7754 246.941 91.8172 246.932 100.88C246.923 109.943 246.919 119.027 246.926 125.887C246.929 129.318 246.935 132.192 246.944 134.229C246.949 135.248 246.954 136.057 246.961 136.621C246.964 136.904 246.967 137.124 246.971 137.279C246.973 137.356 246.975 137.415 246.977 137.457C246.978 137.492 246.979 137.504 246.979 137.505C246.979 137.505 246.978 137.5 246.977 137.493L246.369 137.615C246.361 137.576 246.358 137.521 246.357 137.485L246.357 137.485C246.355 137.437 246.353 137.372 246.351 137.293C246.347 137.135 246.343 136.912 246.34 136.629C246.334 136.062 246.328 135.251 246.323 134.232C246.314 132.193 246.308 129.318 246.305 125.888C246.299 119.027 246.303 109.943 246.311 100.88C246.32 91.8165 246.333 82.7745 246.343 75.9983C246.349 72.6102 246.354 69.7885 246.357 67.8139L246.363 64.7124C246.363 64.7119 246.363 64.7116 246.673 64.7122L246.363 64.7116L246.363 64.4032H253.11V58.355Z" fill="#333333"></path> <path fill-rule="evenodd" clip-rule="evenodd" d="M272.166 66.6982V114.254H271.332V66.6982H272.166Z" fill="#333333"></path> <path fill-rule="evenodd" clip-rule="evenodd" d="M280.702 58.9441H274.669V58.355H281.322V63.6061H283.846V64.1952H280.702V58.9441Z" fill="#333333"></path> <path fill-rule="evenodd" clip-rule="evenodd" d="M256.314 117.592V73.3728H257.148V117.592H256.314Z" fill="#333333"></path> <path fill-rule="evenodd" clip-rule="evenodd" d="M260.485 113.42V70.0354H261.32V113.42H260.485Z" fill="#333333"></path> <path fill-rule="evenodd" clip-rule="evenodd" d="M265.491 116.757V73.3728H266.326V116.757H265.491Z" fill="#333333"></path> <path fill-rule="evenodd" clip-rule="evenodd" d="M283.846 40H318.054V81.9152H317.43V40.6222H284.47V111.751H283.846V40Z" fill="#333333"></path> <path fill-rule="evenodd" clip-rule="evenodd" d="M308.042 98.4024V46.6746H308.876V98.4024H308.042Z" fill="#333333"></path> <path fill-rule="evenodd" clip-rule="evenodd" d="M314.716 82.5503H335.574V83.1782H315.311V107.58H314.716V82.5503Z" fill="#333333"></path> <path fill-rule="evenodd" clip-rule="evenodd" d="M331.403 60.0237H351.426V103.408H350.807V60.6465H332.022V81.8696H331.403V60.0237Z" fill="#333333"></path> <path fill-rule="evenodd" clip-rule="evenodd" d="M343.194 91.7278L343.083 62.5287L343.806 62.5266L343.917 91.7257L343.194 91.7278Z" fill="#333333"></path> <path fill-rule="evenodd" clip-rule="evenodd" d="M379.179 85.671H351.426V85.0532H379.793V125.935H379.179V85.671Z" fill="#333333"></path> <path fill-rule="evenodd" clip-rule="evenodd" d="M304.704 49.1776H288.018V48.3433H304.704V49.1776Z" fill="#333333"></path> <path fill-rule="evenodd" clip-rule="evenodd" d="M161.355 115.923H179.991V116.546H161.973V133.17L161.948 152.895L161.473 152.589L161.471 152.588L161.463 152.583C161.459 152.58 161.453 152.577 161.446 152.572C161.441 152.569 161.437 152.566 161.431 152.563C161.403 152.545 161.359 152.519 161.302 152.485C161.188 152.417 161.018 152.319 160.8 152.2C160.363 151.964 159.733 151.646 158.96 151.326C157.411 150.684 155.305 150.036 153.051 149.99C150.802 149.945 148.413 150.498 146.271 152.253C144.127 154.01 142.201 156.997 140.931 161.876C138.389 171.645 140.249 178.314 142.919 182.342C142.926 182.353 142.934 182.364 142.941 182.375C144.954 182.773 146.841 183.621 148.193 184.509C148.978 185.026 149.604 185.569 149.966 186.064C150.145 186.31 150.279 186.569 150.313 186.825C150.351 187.1 150.271 187.364 150.048 187.559C149.719 187.846 149.207 187.876 148.681 187.778C148.135 187.675 147.487 187.42 146.793 187.016C145.46 186.24 143.923 184.895 142.575 182.94C142.338 182.898 142.098 182.862 141.858 182.835C139.587 182.572 137.296 182.989 135.57 184.662C133.84 186.337 132.619 189.331 132.619 194.354C132.619 205.46 141.583 211.09 150.714 213.948C155.267 215.373 159.824 216.095 163.245 216.461C164.955 216.643 166.38 216.737 167.376 216.785C167.875 216.809 168.266 216.821 168.532 216.827C168.665 216.831 168.766 216.832 168.835 216.833C168.869 216.834 168.895 216.834 168.912 216.834L168.931 216.834L168.935 216.834L168.936 216.834H168.936L373.119 217.088L373.118 217.71L168.935 217.457H168.934L168.936 217.146C168.934 217.457 168.934 217.457 168.934 217.457L168.932 217.457L168.927 217.457L168.906 217.457C168.888 217.457 168.861 217.456 168.826 217.456C168.756 217.455 168.652 217.453 168.517 217.45C168.246 217.443 167.85 217.431 167.347 217.406C166.34 217.358 164.904 217.264 163.18 217.08C159.734 216.712 155.135 215.984 150.531 214.543C141.349 211.669 132 205.902 132 194.354C132 189.243 133.242 186.053 135.141 184.213C137.043 182.37 139.544 181.94 141.929 182.216C141.992 182.223 142.055 182.231 142.118 182.239C139.499 178.012 137.842 171.292 140.333 161.718C141.625 156.753 143.606 153.635 145.881 151.77C148.159 149.904 150.701 149.32 153.063 149.368C155.421 149.416 157.606 150.092 159.195 150.75C159.991 151.08 160.641 151.407 161.093 151.652C161.18 151.699 161.259 151.743 161.331 151.783L161.355 133.17V116.235C161.355 116.234 161.355 116.234 161.664 116.234L161.355 116.235V115.923ZM143.479 183.133C144.675 184.721 145.979 185.823 147.103 186.477C147.755 186.857 148.337 187.08 148.794 187.166C149.271 187.255 149.535 187.183 149.643 187.089C149.692 187.046 149.713 186.999 149.701 186.909C149.686 186.8 149.619 186.64 149.468 186.433C149.168 186.024 148.611 185.528 147.855 185.031C146.709 184.278 145.156 183.553 143.479 183.133Z" fill="#333333"></path> <path fill-rule="evenodd" clip-rule="evenodd" d="M398.345 108.186H379.793V107.58H398.983V133.444H398.345V108.186Z" fill="#333333"></path> <path fill-rule="evenodd" clip-rule="evenodd" d="M168.71 137.615V121.763H169.545V137.615H168.71Z" fill="#333333"></path> <path fill-rule="evenodd" clip-rule="evenodd" d="M172.882 143.456V121.763H173.716V143.456H172.882Z" fill="#333333"></path> <path fill-rule="evenodd" clip-rule="evenodd" d="M177.053 150.965V121.763H177.888V150.965H177.053Z" fill="#333333"></path> <path fill-rule="evenodd" clip-rule="evenodd" d="M356.432 115.923V90.0591H357.266V115.923H356.432Z" fill="#333333"></path> <path fill-rule="evenodd" clip-rule="evenodd" d="M362.272 120.929V90.0591H363.107V120.929H362.272Z" fill="#333333"></path> <path fill-rule="evenodd" clip-rule="evenodd" d="M368.113 125.101V90.0591H368.947V125.101H368.113Z" fill="#333333"></path> <path fill-rule="evenodd" clip-rule="evenodd" d="M371.867 185.6C364.887 185.6 359.228 191.385 359.228 198.52C359.228 205.655 364.887 211.44 371.867 211.44C378.847 211.44 384.506 205.655 384.506 198.52C384.506 191.385 378.847 185.6 371.867 185.6ZM353.095 198.52C353.095 187.922 361.499 179.331 371.867 179.331C382.235 179.331 390.639 187.922 390.639 198.52C390.639 209.118 382.235 217.709 371.867 217.709C361.499 217.709 353.095 209.118 353.095 198.52Z" fill="#333333"></path> <path fill-rule="evenodd" clip-rule="evenodd" d="M220.855 185.464C213.875 185.464 208.216 191.123 208.216 198.103C208.216 205.083 213.875 210.742 220.855 210.742C227.835 210.742 233.494 205.083 233.494 198.103C233.494 191.123 227.835 185.464 220.855 185.464ZM202.083 198.103C202.083 187.735 210.487 179.331 220.855 179.331C231.223 179.331 239.627 187.735 239.627 198.103C239.627 208.47 231.223 216.875 220.855 216.875C210.487 216.875 202.083 208.47 202.083 198.103Z" fill="#333333"></path> <path d="M280.509 132.609H269.663V139.283H280.509V132.609Z" fill="#FFDE3E"></path> <path d="M185.396 173.49L166.308 171.142L165.373 164.313L184.461 166.665L185.396 173.49Z" fill="#FF3C00"></path> <path d="M257.148 173.275L240.916 186.005C240.916 186.005 221.267 156.876 220.818 156.007C220.345 155.092 220.188 154.377 221.094 153.466C222 152.551 223.926 151.798 223.926 151.798L232.263 160.578L244.415 160.777L257.148 173.275Z" fill="#FFDE3E"></path> <path fill-rule="evenodd" clip-rule="evenodd" d="M390.456 175.244L390.416 175.544C390.456 175.244 390.456 175.244 390.456 175.244L390.547 175.256C390.606 175.264 390.693 175.276 390.805 175.291C391.028 175.32 391.35 175.363 391.744 175.417C392.532 175.524 393.61 175.673 394.767 175.84C397.076 176.172 399.719 176.578 401.003 176.867M391.029 175.93L396.526 184.413L396.013 184.739L389.805 175.159L390.456 175.244M391.029 175.93C391.209 175.954 391.422 175.983 391.661 176.015C392.448 176.122 393.524 176.271 394.679 176.437C396.995 176.771 399.612 177.174 400.868 177.456C402.126 177.739 403.92 178.183 405.402 178.557C406.143 178.743 406.804 178.912 407.281 179.035C407.519 179.096 407.711 179.146 407.844 179.18L407.98 179.215C408.004 179.236 408.036 179.266 408.076 179.304C408.174 179.398 408.318 179.543 408.496 179.746C408.853 180.152 409.347 180.788 409.884 181.7C410.958 183.523 412.208 186.452 412.873 190.847L412.873 190.85L412.874 190.854C413.541 194.714 413.457 198.266 413.205 200.853C413.079 202.146 412.912 203.197 412.776 203.923C412.708 204.286 412.648 204.568 412.605 204.759C412.584 204.854 412.567 204.926 412.555 204.974C412.552 204.988 412.549 204.999 412.547 205.009C412.545 205.017 412.543 205.023 412.542 205.028L412.539 205.041L412.538 205.045C412.538 205.045 412.538 205.045 412.833 205.12C413.128 205.195 413.128 205.195 413.128 205.194L413.13 205.189L413.134 205.173C413.137 205.16 413.142 205.141 413.148 205.115C413.16 205.064 413.178 204.988 413.2 204.89C413.245 204.693 413.306 204.404 413.375 204.033C413.514 203.292 413.684 202.224 413.812 200.911C414.067 198.287 414.153 194.681 413.475 190.755C412.799 186.289 411.525 183.288 410.411 181.396C409.853 180.45 409.337 179.783 408.956 179.35C408.766 179.133 408.61 178.975 408.5 178.87C408.444 178.817 408.401 178.778 408.37 178.751C408.355 178.737 408.343 178.727 408.334 178.72L408.324 178.711L408.321 178.709L408.32 178.708L408.319 178.707C408.319 178.707 408.319 178.707 408.126 178.941L408.319 178.707L408.268 178.665L408.203 178.649L408.126 178.941C408.203 178.649 408.203 178.649 408.203 178.649L407.998 178.596C407.865 178.561 407.673 178.512 407.434 178.45C406.957 178.328 406.294 178.159 405.553 177.972C404.071 177.598 402.269 177.152 401.003 176.867" fill="#333333"></path> <path fill-rule="evenodd" clip-rule="evenodd" d="M358.838 164.217C365.08 165.194 373.142 166.552 380.415 168.079C387.692 169.606 394.001 171.433 398.49 172.878C400.735 173.601 402.526 174.228 403.755 174.675C404.37 174.898 404.845 175.077 405.167 175.199C405.327 175.261 405.45 175.308 405.532 175.34C405.573 175.356 405.604 175.368 405.625 175.377L405.649 175.386L405.655 175.388L405.657 175.389C405.657 175.389 405.657 175.389 405.548 175.691C405.438 175.993 405.438 175.993 405.438 175.993L405.431 175.99L405.408 175.981C405.388 175.973 405.358 175.961 405.317 175.946C405.236 175.914 405.115 175.867 404.956 175.806C404.637 175.685 404.166 175.508 403.554 175.285C402.33 174.841 400.547 174.216 398.31 173.496C393.835 172.055 387.547 170.234 380.294 168.712C373.036 167.189 364.985 165.832 358.747 164.856C355.628 164.368 352.963 163.975 351.078 163.704C350.136 163.569 349.388 163.464 348.876 163.393C348.62 163.357 348.423 163.33 348.29 163.312L348.089 163.285C348.089 163.285 348.089 163.285 348.128 162.964C348.167 162.644 348.167 162.644 348.167 162.644L348.37 162.672C348.503 162.69 348.701 162.717 348.957 162.752C349.47 162.824 350.218 162.929 351.162 163.064C353.049 163.335 355.716 163.728 358.838 164.217Z" fill="#333333"></path> <path fill-rule="evenodd" clip-rule="evenodd" d="M397.763 206.721C401.106 206.503 405.673 206.067 410.57 205.194L410.663 205.944C405.741 206.821 401.154 207.259 397.797 207.478C396.119 207.588 394.747 207.642 393.795 207.67C393.319 207.684 392.948 207.69 392.695 207.694C392.569 207.696 392.472 207.696 392.407 207.697L392.333 207.697L392.314 207.697L392.308 207.697C392.308 207.697 392.308 207.697 392.308 207.318C392.308 206.939 392.308 206.939 392.308 206.939L392.313 206.939L392.331 206.939L392.404 206.939C392.468 206.938 392.563 206.937 392.688 206.936C392.938 206.932 393.307 206.926 393.78 206.912C394.727 206.885 396.091 206.83 397.763 206.721Z" fill="#333333"></path> <path fill-rule="evenodd" clip-rule="evenodd" d="M245.229 142.465C245.229 142.465 245.229 142.465 245.206 142.151C245.184 141.837 245.184 141.837 245.184 141.837L245.282 141.83C245.347 141.826 245.443 141.819 245.569 141.81C245.822 141.792 246.195 141.767 246.677 141.736C247.641 141.674 249.043 141.589 250.791 141.499C254.288 141.317 259.174 141.11 264.73 141.011C275.838 140.813 289.643 141.043 300.387 142.763C318.478 145.659 334.692 158.58 339.409 162.628C340.096 163.218 339.656 164.349 338.767 164.312C331.693 164.008 305.202 163.066 280.478 162.2C268.117 161.768 256.197 161.354 247.369 161.048C242.954 160.895 239.312 160.77 236.774 160.682L232.802 160.545C232.801 160.545 232.801 160.545 232.811 160.231L232.801 160.545L232.676 160.541L225.444 152.839L225.888 152.403L232.947 159.921L236.795 160.053C239.333 160.141 242.975 160.266 247.389 160.419C256.218 160.725 268.138 161.139 280.499 161.572C305.221 162.437 331.715 163.379 338.792 163.683C339.102 163.696 339.245 163.309 339.013 163.11C334.306 159.071 318.203 146.252 300.292 143.385C289.603 141.674 275.842 141.442 264.741 141.64C259.193 141.739 254.314 141.946 250.823 142.127C249.077 142.218 247.678 142.302 246.716 142.364C246.235 142.395 245.863 142.42 245.611 142.438C245.485 142.446 245.39 142.453 245.325 142.458L245.229 142.465Z" fill="#333333"></path> <path fill-rule="evenodd" clip-rule="evenodd" d="M276.176 136.967C289.463 137.492 301.982 139.078 309.038 141.211C320.645 144.72 329.987 149.964 336.427 154.33C339.647 156.513 342.143 158.478 343.835 159.897C344.681 160.607 345.326 161.181 345.76 161.578C345.977 161.777 346.142 161.931 346.252 162.036C346.307 162.088 346.349 162.129 346.377 162.156L346.409 162.187L346.417 162.195L346.419 162.197L346.42 162.198C346.42 162.198 346.42 162.198 346.204 162.421C345.987 162.644 345.987 162.644 345.987 162.644L345.986 162.644L345.977 162.635L345.948 162.606C345.921 162.58 345.881 162.541 345.827 162.49C345.719 162.388 345.558 162.236 345.344 162.041C344.916 161.649 344.277 161.081 343.438 160.377C341.761 158.969 339.282 157.018 336.081 154.848C329.679 150.508 320.393 145.296 308.86 141.809C301.88 139.7 289.424 138.115 276.152 137.591C262.883 137.068 248.84 137.606 238.69 139.722C228.536 141.839 218.976 145.627 210.752 149.171C208.989 149.93 207.285 150.68 205.65 151.399C203.476 152.355 201.424 153.257 199.517 154.059C196.174 155.465 193.243 156.575 190.833 157.137C188.063 157.783 183.999 158.317 180.64 158.688C178.958 158.874 177.448 159.02 176.358 159.12C175.814 159.17 175.374 159.208 175.07 159.233C174.919 159.246 174.801 159.256 174.721 159.262L174.599 159.272C174.599 159.272 174.599 159.272 174.574 158.961C174.55 158.65 174.55 158.65 174.55 158.65L174.671 158.64C174.75 158.633 174.867 158.624 175.019 158.611C175.321 158.585 175.759 158.547 176.302 158.498C177.389 158.399 178.895 158.253 180.572 158.068C183.932 157.696 187.963 157.166 190.693 156.529C193.049 155.979 195.937 154.888 199.279 153.483C201.184 152.682 203.226 151.784 205.393 150.83C207.028 150.111 208.735 149.36 210.508 148.596C218.741 145.049 228.347 141.24 238.564 139.11C248.786 136.979 262.886 136.443 276.176 136.967Z" fill="#333333"></path> <path fill-rule="evenodd" clip-rule="evenodd" d="M242.13 206.863H349.757V207.697H242.13V206.863Z" fill="#333333"></path> <path fill-rule="evenodd" clip-rule="evenodd" d="M170.767 164.123C171.939 164.491 173.624 164.947 175.674 165.297C177.727 165.649 179.949 165.861 181.66 165.984C182.515 166.046 183.241 166.085 183.754 166.109C184.01 166.121 184.212 166.129 184.351 166.135C184.42 166.137 184.473 166.139 184.509 166.14L184.549 166.142L184.562 166.142L184.553 166.479C184.545 166.816 184.545 166.816 184.545 166.816L184.53 166.815L184.489 166.814C184.452 166.813 184.398 166.811 184.328 166.808C184.188 166.803 183.984 166.795 183.726 166.783C183.209 166.758 182.478 166.719 181.617 166.657C179.897 166.533 177.654 166.32 175.572 165.962M170.767 164.123C170.181 163.939 169.724 163.777 169.414 163.661ZM169.414 163.661C169.259 163.604 169.141 163.557 169.063 163.526ZM169.063 163.526C169.023 163.51 168.994 163.498 168.974 163.49ZM168.974 163.49L168.952 163.481ZM168.952 163.481L168.947 163.479ZM168.947 163.479L168.946 163.479ZM168.946 163.479C168.946 163.479 168.946 163.478 168.828 163.791ZM168.828 163.791C168.71 164.104 168.71 164.104 168.71 164.104ZM168.71 164.104L168.711 164.105ZM168.711 164.105L168.713 164.105ZM168.713 164.105L168.719 164.108ZM168.719 164.108L168.744 164.118ZM168.744 164.118C168.765 164.127 168.797 164.14 168.839 164.157ZM168.839 164.157C168.922 164.19 169.044 164.238 169.204 164.297ZM169.204 164.297C169.523 164.416 169.99 164.582 170.586 164.769ZM170.586 164.769C171.78 165.144 173.492 165.607 175.572 165.962Z" fill="#333333"></path> <path fill-rule="evenodd" clip-rule="evenodd" d="M173.719 159.307C173.719 159.307 173.719 159.307 173.966 159.49C174.212 159.673 174.212 159.673 174.212 159.673L174.211 159.674L174.208 159.678L174.195 159.698C174.182 159.715 174.164 159.741 174.14 159.776C174.091 159.847 174.02 159.953 173.928 160.093C173.746 160.374 173.483 160.791 173.169 161.336C172.54 162.426 171.701 164.025 170.869 166.054C169.203 170.113 167.561 175.89 167.656 182.761C167.752 189.662 168.566 194.399 169.351 197.404C169.744 198.906 170.13 199.976 170.416 200.667C170.559 201.012 170.676 201.263 170.758 201.426C170.788 201.487 170.814 201.536 170.833 201.572C170.865 201.586 170.904 201.602 170.951 201.622C171.092 201.68 171.302 201.765 171.574 201.87C172.12 202.08 172.917 202.37 173.921 202.687C175.93 203.321 178.763 204.064 182.062 204.502C188.886 205.404 199.07 205.412 199.575 205.408L199.58 206.028C199.075 206.032 188.853 206.025 181.983 205.116C178.642 204.673 175.773 203.921 173.74 203.279C172.722 202.957 171.913 202.664 171.358 202.45C171.08 202.343 170.865 202.256 170.72 202.196C170.647 202.166 170.591 202.142 170.554 202.126C170.535 202.118 170.521 202.112 170.511 202.107L170.5 202.102L170.496 202.101C170.496 202.101 170.495 202.1 170.618 201.816C170.356 201.976 170.356 201.976 170.355 201.975L170.355 201.975L170.354 201.974L170.352 201.97L170.344 201.956C170.337 201.944 170.328 201.927 170.316 201.904C170.291 201.86 170.256 201.794 170.213 201.706C170.125 201.53 170.001 201.266 169.852 200.907C169.556 200.189 169.161 199.092 168.761 197.563C167.961 194.504 167.142 189.716 167.045 182.77C166.949 175.794 168.615 169.932 170.305 165.816C171.149 163.757 172.001 162.133 172.642 161.023C172.962 160.467 173.23 160.04 173.419 159.751C173.513 159.606 173.588 159.496 173.639 159.422C173.664 159.384 173.684 159.356 173.698 159.337L173.713 159.315L173.718 159.309L173.719 159.307L173.719 159.307ZM170.618 201.816L170.356 201.976L170.406 202.061L170.495 202.1L170.618 201.816Z" fill="#333333"></path> <path fill-rule="evenodd" clip-rule="evenodd" d="M282.438 165.147L277.172 139.414L277.746 139.283L283.012 165.016L282.438 165.147Z" fill="#333333"></path> <path d="M257.431 172.656L241.296 185.422L247.953 195.609C247.953 195.609 248.703 197 250.286 198.075C251.966 199.213 253.971 199.354 253.971 199.354H285.515L257.431 172.656Z" fill="#333333"></path> <path d="M349.758 176.828L354.763 176.828L354.763 171.822L349.758 171.822L349.758 176.828Z" fill="#333333"></path> <path d="M344.751 180.999L349.757 180.999L349.757 176.828L344.751 176.828L344.751 180.999Z" fill="#333333"></path> <path d="M340.58 176.828L344.751 176.828L344.751 171.822L340.58 171.822L340.58 176.828Z" fill="#333333"></path> <path d="M335.574 180.999L340.58 180.999L340.58 176.828L335.574 176.828L335.574 180.999Z" fill="#333333"></path> <path d="M331.402 176.828L335.574 176.828L335.574 171.822L331.402 171.822L331.402 176.828Z" fill="#333333"></path> <path fill-rule="evenodd" clip-rule="evenodd" d="M277.977 167.65L248.805 166.508L248.834 165.981L278.006 167.124L277.977 167.65Z" fill="#333333"></path> <path fill-rule="evenodd" clip-rule="evenodd" d="M311.144 198.52L247.97 172.403L248.205 171.822L311.379 197.939L311.144 198.52Z" fill="#333333"></path> <path fill-rule="evenodd" clip-rule="evenodd" d="M327.1 186.839L249.639 169.927L249.77 169.319L327.231 186.231L327.1 186.839Z" fill="#333333"></path> <path fill-rule="evenodd" clip-rule="evenodd" d="M249.198 177.662L245.468 173.953L245.908 173.49L249.639 177.199L249.198 177.662Z" fill="#333333"></path> </svg> 